<svg id="svg" version="1.1" xmlns="http://www.w3.org/2000/svg" xmlns:xlink="http://www.w3.org/1999/xlink" width="400" height="400" viewBox="0, 0, 400,400"><g id="svgg"><path id="path0" d="M8.654 0.601 C 8.024 0.931,7.269 1.200,6.976 1.200 C 6.292 1.200,1.200 6.279,1.200 6.961 C 1.200 7.245,0.929 8.020,0.598 8.684 C -0.228 10.340,-0.127 392.024,0.700 392.300 C 0.975 392.392,1.200 392.822,1.200 393.257 C 1.200 393.692,1.380 393.936,1.600 393.800 C 1.820 393.664,2.000 393.749,2.000 393.990 C 2.000 394.585,4.660 397.207,4.960 396.907 C 5.092 396.775,5.200 396.890,5.200 397.162 C 5.200 397.843,6.216 398.800,6.938 398.800 C 7.265 398.800,7.608 399.025,7.700 399.300 C 7.831 399.695,16.314 399.823,47.933 399.909 L 88.000 400.019 88.000 320.609 C 88.000 247.940,87.945 241.200,87.357 241.200 C 86.943 241.200,86.798 240.981,86.950 240.585 C 87.083 240.239,86.934 239.873,86.608 239.748 C 86.048 239.533,85.360 238.110,85.521 237.500 C 85.564 237.335,85.120 237.200,84.533 237.200 C 83.947 237.200,83.578 237.089,83.714 236.952 C 84.151 236.515,82.891 235.600,81.852 235.600 C 81.299 235.600,80.736 235.420,80.600 235.200 C 80.447 234.952,76.863 234.800,71.176 234.800 C 65.325 234.800,62.000 234.655,62.000 234.400 C 62.000 234.180,61.460 234.000,60.800 234.000 C 60.140 234.000,59.600 233.799,59.600 233.553 C 59.600 233.304,59.247 233.199,58.800 233.316 C 58.360 233.431,58.000 233.349,58.000 233.134 C 58.000 232.621,56.953 231.580,56.696 231.838 C 56.586 231.947,56.381 231.579,56.240 231.019 C 56.100 230.458,55.808 230.000,55.592 230.000 C 55.377 230.000,55.200 229.550,55.200 229.000 C 55.200 228.450,55.020 228.000,54.800 228.000 C 54.164 228.000,54.261 187.258,54.900 185.883 C 55.175 185.291,55.535 184.805,55.700 184.803 C 55.865 184.801,56.006 184.485,56.013 184.100 C 56.028 183.281,56.977 181.910,57.303 182.236 C 57.426 182.360,57.646 182.087,57.790 181.630 C 57.937 181.167,58.396 180.800,58.827 180.800 C 59.252 180.800,59.600 180.620,59.600 180.400 C 59.600 180.180,60.320 180.000,61.200 180.000 C 62.080 180.000,62.800 179.820,62.800 179.600 C 62.800 179.345,66.200 179.200,72.200 179.200 C 78.200 179.200,81.600 179.055,81.600 178.800 C 81.600 178.580,81.920 178.400,82.312 178.400 C 82.703 178.400,83.283 178.040,83.600 177.600 C 83.917 177.160,84.497 176.800,84.888 176.800 C 85.281 176.800,85.600 176.506,85.600 176.144 C 85.600 175.783,85.914 175.259,86.297 174.978 C 86.681 174.698,86.996 174.138,86.997 173.734 C 86.999 173.330,87.217 173.042,87.483 173.094 C 87.853 173.167,87.972 169.410,87.991 156.953 C 88.006 147.172,88.172 140.426,88.408 139.985 C 88.624 139.582,88.800 137.021,88.800 134.293 C 88.800 131.565,88.924 129.209,89.076 129.057 C 89.228 128.906,89.306 127.909,89.249 126.844 C 89.172 125.387,89.302 124.847,89.773 124.666 C 90.245 124.484,90.400 123.836,90.400 122.036 C 90.400 120.722,90.562 119.547,90.761 119.424 C 90.959 119.302,91.247 118.121,91.400 116.801 C 91.553 115.480,91.841 114.400,92.039 114.400 C 92.238 114.400,92.400 113.860,92.400 113.200 C 92.400 112.540,92.580 112.000,92.800 112.000 C 93.020 112.000,93.200 111.471,93.200 110.824 C 93.200 110.177,93.380 109.536,93.600 109.400 C 93.820 109.264,94.000 108.713,94.000 108.176 C 94.000 107.639,94.180 107.200,94.400 107.200 C 94.620 107.200,94.800 106.829,94.800 106.376 C 94.800 105.923,94.980 105.664,95.200 105.800 C 95.428 105.941,95.600 105.596,95.600 105.000 C 95.600 104.404,95.772 104.059,96.000 104.200 C 96.228 104.341,96.400 103.996,96.400 103.400 C 96.400 102.804,96.572 102.459,96.800 102.600 C 97.020 102.736,97.200 102.477,97.200 102.024 C 97.200 101.571,97.380 101.200,97.600 101.200 C 97.820 101.200,98.000 100.880,98.000 100.488 C 98.000 100.097,98.360 99.517,98.800 99.200 C 99.240 98.883,99.600 98.303,99.600 97.912 C 99.600 97.520,99.780 97.200,100.000 97.200 C 100.220 97.200,100.400 96.904,100.400 96.543 C 100.400 96.182,100.940 95.371,101.600 94.740 C 102.260 94.109,102.800 93.400,102.800 93.163 C 102.800 92.927,103.430 92.121,104.200 91.374 C 104.970 90.626,105.600 89.801,105.600 89.540 C 105.600 89.280,105.701 89.167,105.824 89.290 C 105.947 89.414,106.928 88.634,108.005 87.557 C 109.081 86.481,110.137 85.600,110.352 85.600 C 110.566 85.600,111.091 85.156,111.518 84.614 C 111.945 84.071,112.408 83.741,112.547 83.880 C 112.686 84.019,112.800 83.923,112.800 83.667 C 112.800 83.410,113.036 83.200,113.325 83.200 C 113.613 83.200,114.236 82.840,114.708 82.400 C 115.180 81.960,115.844 81.600,116.183 81.600 C 116.522 81.600,116.800 81.420,116.800 81.200 C 116.800 80.980,117.160 80.800,117.600 80.800 C 118.040 80.800,118.400 80.620,118.400 80.400 C 118.400 80.180,118.760 80.000,119.200 80.000 C 119.640 80.000,120.000 79.820,120.000 79.600 C 120.000 79.380,120.360 79.200,120.800 79.200 C 121.240 79.200,121.600 79.020,121.600 78.800 C 121.600 78.580,121.960 78.400,122.400 78.400 C 122.840 78.400,123.200 78.220,123.200 78.000 C 123.200 77.780,123.650 77.600,124.200 77.600 C 124.750 77.600,125.200 77.420,125.200 77.200 C 125.200 76.980,125.560 76.800,126.000 76.800 C 126.440 76.800,126.800 76.620,126.800 76.400 C 126.800 76.180,127.520 76.000,128.400 76.000 C 129.280 76.000,130.000 75.838,130.000 75.639 C 130.000 75.310,134.556 74.538,135.330 74.736 C 135.511 74.782,135.545 74.635,135.406 74.410 C 135.247 74.153,135.826 74.000,136.953 74.000 C 137.943 74.000,138.864 73.820,139.000 73.600 C 139.136 73.380,140.371 73.200,141.744 73.200 C 143.117 73.200,144.411 73.029,144.620 72.821 C 144.829 72.612,146.932 72.410,149.294 72.373 C 151.656 72.335,153.490 72.146,153.371 71.952 C 153.246 71.751,162.585 71.600,175.176 71.600 C 187.289 71.600,197.200 71.743,197.200 71.918 C 197.200 72.093,197.861 72.281,198.668 72.335 C 199.530 72.393,200.416 72.758,200.815 73.217 C 201.188 73.648,201.866 74.000,202.320 74.000 C 202.826 74.000,203.256 74.349,203.430 74.900 C 203.587 75.395,204.049 76.091,204.457 76.447 C 204.880 76.815,205.200 77.624,205.200 78.323 C 205.200 79.000,205.380 79.664,205.600 79.800 C 205.858 79.959,206.000 86.871,206.000 99.224 C 206.000 111.741,205.861 118.400,205.600 118.400 C 205.380 118.400,205.200 119.120,205.200 120.000 C 205.200 120.952,205.011 121.600,204.733 121.600 C 204.477 121.600,204.378 121.711,204.514 121.848 C 204.650 121.984,204.545 122.322,204.281 122.599 C 204.016 122.875,203.535 123.484,203.212 123.951 C 202.888 124.418,202.380 124.800,202.083 124.800 C 201.474 124.800,200.162 125.969,200.671 126.057 C 200.852 126.088,200.280 126.224,199.400 126.359 C 198.489 126.499,197.674 126.432,197.506 126.202 C 197.323 125.951,197.210 125.988,197.206 126.300 C 197.201 126.690,194.175 126.800,183.424 126.800 C 174.671 126.800,169.557 126.946,169.400 127.200 C 169.264 127.420,168.362 127.600,167.395 127.600 C 165.698 127.600,163.651 128.235,163.164 128.912 C 163.034 129.092,162.539 129.269,162.064 129.305 C 161.589 129.341,161.200 129.512,161.200 129.685 C 161.200 129.858,160.836 130.000,160.390 130.000 C 159.805 130.000,159.511 130.343,159.334 131.232 C 159.198 131.909,158.753 132.673,158.344 132.928 C 157.935 133.183,157.600 133.709,157.600 134.096 C 157.600 134.483,157.420 134.800,157.200 134.800 C 156.980 134.800,156.800 135.160,156.800 135.600 C 156.800 136.040,156.620 136.400,156.400 136.400 C 156.180 136.400,156.000 137.109,156.000 137.976 C 156.000 138.843,155.820 139.664,155.600 139.800 C 154.708 140.351,155.094 173.347,156.000 174.000 C 156.440 174.317,156.800 174.815,156.800 175.106 C 156.800 176.107,159.720 178.400,160.995 178.400 C 161.328 178.400,161.600 178.580,161.600 178.800 C 161.600 179.061,168.133 179.200,180.400 179.200 C 192.667 179.200,199.200 179.339,199.200 179.600 C 199.200 179.820,199.470 180.000,199.800 180.000 C 200.130 180.000,200.400 180.180,200.400 180.400 C 200.400 180.620,200.678 180.800,201.018 180.800 C 201.830 180.800,203.600 182.586,203.600 183.405 C 203.600 183.758,203.780 183.936,204.000 183.800 C 204.228 183.659,204.400 184.004,204.400 184.600 C 204.400 185.196,204.572 185.541,204.800 185.400 C 205.051 185.245,205.200 186.129,205.200 187.776 C 205.200 189.259,205.026 190.400,204.800 190.400 C 204.561 190.400,204.400 191.933,204.400 194.200 C 204.400 196.467,204.239 198.000,204.000 198.000 C 203.763 198.000,203.600 199.459,203.600 201.576 C 203.600 203.543,203.420 205.264,203.200 205.400 C 202.980 205.536,202.800 207.257,202.800 209.224 C 202.800 211.341,202.637 212.800,202.400 212.800 C 202.163 212.800,202.000 214.267,202.000 216.400 C 202.000 218.533,201.837 220.000,201.600 220.000 C 201.369 220.000,201.200 221.259,201.200 222.976 C 201.200 224.613,201.020 226.064,200.800 226.200 C 200.580 226.336,200.400 226.876,200.400 227.400 C 200.400 227.924,200.220 228.464,200.000 228.600 C 199.780 228.736,199.600 229.142,199.600 229.502 C 199.600 230.308,197.652 232.400,196.902 232.400 C 196.600 232.400,196.464 232.580,196.600 232.800 C 196.740 233.027,196.404 233.200,195.824 233.200 C 195.261 233.200,194.800 233.380,194.800 233.600 C 194.800 233.820,194.170 234.000,193.400 234.000 C 192.630 234.000,192.000 234.180,192.000 234.400 C 192.000 234.660,186.725 234.800,176.976 234.800 C 167.063 234.800,162.037 234.936,162.200 235.200 C 162.344 235.433,161.937 235.600,161.224 235.600 C 160.551 235.600,160.000 235.780,160.000 236.000 C 160.000 236.220,159.722 236.400,159.382 236.400 C 158.583 236.400,156.800 238.181,156.800 238.978 C 156.800 239.317,156.440 239.818,156.000 240.093 C 155.204 240.590,155.200 241.026,155.200 320.299 L 155.200 400.005 273.380 399.903 C 367.281 399.821,391.663 399.697,392.060 399.300 C 392.335 399.025,392.784 398.800,393.058 398.800 C 393.707 398.800,398.800 393.707,398.800 393.058 C 398.800 392.784,399.025 392.335,399.300 392.060 C 400.036 391.324,400.036 7.945,399.300 7.700 C 399.025 7.608,398.800 7.265,398.800 6.938 C 398.800 6.216,397.843 5.200,397.162 5.200 C 396.890 5.200,396.775 5.092,396.907 4.960 C 397.207 4.660,394.585 2.000,393.990 2.000 C 393.749 2.000,393.664 1.820,393.800 1.600 C 393.936 1.380,393.692 1.200,393.257 1.200 C 392.822 1.200,392.392 0.975,392.300 0.700 C 392.025 -0.124,10.230 -0.222,8.654 0.601 " stroke="none" fill="#bc9c14" fill-rule="evenodd"></path><path id="path1" d="M89.314 126.600 C 89.317 127.700,89.395 128.103,89.487 127.495 C 89.579 126.886,89.577 125.986,89.482 125.495 C 89.387 125.003,89.311 125.500,89.314 126.600 M197.600 126.311 C 197.600 126.481,198.320 126.552,199.200 126.469 C 200.080 126.385,200.800 126.245,200.800 126.158 C 200.800 126.071,200.080 126.000,199.200 126.000 C 198.320 126.000,197.600 126.140,197.600 126.311 M86.847 173.533 C 86.217 174.419,86.167 174.667,86.620 174.667 C 86.939 174.667,87.109 174.576,86.999 174.465 C 86.888 174.354,87.072 173.844,87.408 173.332 C 88.275 172.008,87.816 172.173,86.847 173.533 M198.235 231.003 C 197.595 231.553,197.158 232.091,197.265 232.198 C 197.371 232.304,197.974 231.854,198.604 231.196 C 199.999 229.739,199.816 229.643,198.235 231.003 " stroke="none" fill="#c09c14" fill-rule="evenodd"></path><path id="path2" d="M89.314 126.600 C 89.317 127.700,89.395 128.103,89.487 127.495 C 89.579 126.886,89.577 125.986,89.482 125.495 C 89.387 125.003,89.311 125.500,89.314 126.600 M197.600 126.311 C 197.600 126.481,198.320 126.552,199.200 126.469 C 200.080 126.385,200.800 126.245,200.800 126.158 C 200.800 126.071,200.080 126.000,199.200 126.000 C 198.320 126.000,197.600 126.140,197.600 126.311 M86.847 173.533 C 86.217 174.419,86.167 174.667,86.620 174.667 C 86.939 174.667,87.109 174.576,86.999 174.465 C 86.888 174.354,87.072 173.844,87.408 173.332 C 88.275 172.008,87.816 172.173,86.847 173.533 M198.235 231.003 C 197.595 231.553,197.158 232.091,197.265 232.198 C 197.371 232.304,197.974 231.854,198.604 231.196 C 199.999 229.739,199.816 229.643,198.235 231.003 " stroke="none" fill="#c09c14" fill-rule="evenodd"></path><path id="path3" d="M89.314 126.600 C 89.317 127.700,89.395 128.103,89.487 127.495 C 89.579 126.886,89.577 125.986,89.482 125.495 C 89.387 125.003,89.311 125.500,89.314 126.600 M197.600 126.311 C 197.600 126.481,198.320 126.552,199.200 126.469 C 200.080 126.385,200.800 126.245,200.800 126.158 C 200.800 126.071,200.080 126.000,199.200 126.000 C 198.320 126.000,197.600 126.140,197.600 126.311 M86.847 173.533 C 86.217 174.419,86.167 174.667,86.620 174.667 C 86.939 174.667,87.109 174.576,86.999 174.465 C 86.888 174.354,87.072 173.844,87.408 173.332 C 88.275 172.008,87.816 172.173,86.847 173.533 M198.235 231.003 C 197.595 231.553,197.158 232.091,197.265 232.198 C 197.371 232.304,197.974 231.854,198.604 231.196 C 199.999 229.739,199.816 229.643,198.235 231.003 " stroke="none" fill="#c09c14" fill-rule="evenodd"></path><path id="path4" d="M89.314 126.600 C 89.317 127.700,89.395 128.103,89.487 127.495 C 89.579 126.886,89.577 125.986,89.482 125.495 C 89.387 125.003,89.311 125.500,89.314 126.600 M197.600 126.311 C 197.600 126.481,198.320 126.552,199.200 126.469 C 200.080 126.385,200.800 126.245,200.800 126.158 C 200.800 126.071,200.080 126.000,199.200 126.000 C 198.320 126.000,197.600 126.140,197.600 126.311 M86.847 173.533 C 86.217 174.419,86.167 174.667,86.620 174.667 C 86.939 174.667,87.109 174.576,86.999 174.465 C 86.888 174.354,87.072 173.844,87.408 173.332 C 88.275 172.008,87.816 172.173,86.847 173.533 M198.235 231.003 C 197.595 231.553,197.158 232.091,197.265 232.198 C 197.371 232.304,197.974 231.854,198.604 231.196 C 199.999 229.739,199.816 229.643,198.235 231.003 " stroke="none" fill="#c09c14" fill-rule="evenodd"></path></g></svg>