<svg id="svg" version="1.1" xmlns="http://www.w3.org/2000/svg" xmlns:xlink="http://www.w3.org/1999/xlink" width="400" height="400" viewBox="0, 0, 400,400"><g id="svgg"><path id="path0" d="M184.800 4.800 C 184.800 5.041,183.133 5.200,180.600 5.200 C 178.067 5.200,176.400 5.359,176.400 5.600 C 176.400 5.833,175.067 6.000,173.200 6.000 C 171.333 6.000,170.000 6.167,170.000 6.400 C 170.000 6.623,168.925 6.800,167.576 6.800 C 166.063 6.800,165.246 6.950,165.400 7.200 C 165.553 7.448,164.812 7.600,163.447 7.600 C 162.237 7.600,161.136 7.780,161.000 8.000 C 160.864 8.220,159.863 8.400,158.776 8.400 C 157.600 8.400,156.800 8.579,156.800 8.842 C 156.800 9.116,156.194 9.226,155.203 9.132 C 154.325 9.048,153.560 9.109,153.503 9.268 C 153.447 9.427,152.545 9.600,151.500 9.653 C 150.455 9.706,149.600 9.896,149.600 10.075 C 149.600 10.254,148.880 10.400,148.000 10.400 C 147.120 10.400,146.400 10.580,146.400 10.800 C 146.400 11.020,145.860 11.200,145.200 11.200 C 144.540 11.200,144.000 11.380,144.000 11.600 C 144.000 11.820,143.586 12.000,143.080 12.000 C 142.574 12.000,141.986 12.174,141.773 12.387 C 141.561 12.599,140.817 12.816,140.121 12.869 C 139.425 12.923,138.944 13.109,139.051 13.283 C 139.218 13.553,137.645 13.797,136.700 13.647 C 136.535 13.621,136.400 13.780,136.400 14.000 C 136.400 14.220,135.860 14.400,135.200 14.400 C 134.540 14.400,134.000 14.580,134.000 14.800 C 134.000 15.020,133.466 15.200,132.813 15.200 C 131.917 15.200,131.682 15.349,131.857 15.805 C 132.018 16.225,131.905 16.338,131.485 16.177 C 131.153 16.050,130.762 16.138,130.617 16.373 C 130.472 16.608,129.733 16.800,128.976 16.800 C 128.219 16.800,127.600 16.980,127.600 17.200 C 127.600 17.420,127.150 17.600,126.600 17.600 C 126.050 17.600,125.599 17.735,125.597 17.900 C 125.592 18.347,123.574 19.200,122.520 19.200 C 122.014 19.200,121.600 19.380,121.600 19.600 C 121.600 19.820,121.240 20.000,120.800 20.000 C 120.360 20.000,120.000 20.180,120.000 20.400 C 120.000 20.620,119.640 20.800,119.200 20.800 C 118.760 20.800,118.400 20.980,118.400 21.200 C 118.400 21.420,118.117 21.600,117.771 21.600 C 117.426 21.600,116.871 21.872,116.539 22.204 C 116.207 22.536,115.770 22.705,115.568 22.580 C 115.365 22.455,115.200 22.543,115.200 22.776 C 115.200 23.009,114.750 23.200,114.200 23.200 C 113.650 23.200,113.200 23.380,113.200 23.600 C 113.200 23.820,112.840 24.000,112.400 24.000 C 111.960 24.000,111.600 24.164,111.600 24.365 C 111.600 24.566,110.880 24.851,110.000 25.000 C 108.954 25.177,108.400 25.481,108.400 25.878 C 108.400 26.249,108.170 26.397,107.811 26.259 C 107.485 26.135,107.042 26.340,106.823 26.717 C 106.604 27.092,106.416 27.220,106.406 27.000 C 106.395 26.748,106.279 26.754,106.094 27.018 C 105.602 27.717,102.804 29.200,101.977 29.200 C 101.550 29.200,101.200 29.380,101.200 29.600 C 101.200 29.820,100.829 30.000,100.376 30.000 C 99.923 30.000,99.664 30.180,99.800 30.400 C 99.936 30.620,99.794 30.800,99.486 30.800 C 99.177 30.800,98.598 31.160,98.200 31.600 C 97.802 32.040,97.178 32.400,96.813 32.400 C 96.449 32.400,95.764 32.760,95.292 33.200 C 94.820 33.640,94.246 34.000,94.017 34.000 C 93.788 34.000,93.600 34.264,93.600 34.587 C 93.600 34.950,93.366 35.085,92.988 34.940 C 92.635 34.804,92.065 35.063,91.641 35.553 C 91.237 36.019,90.656 36.400,90.349 36.400 C 90.043 36.400,89.568 36.760,89.293 37.200 C 89.018 37.640,88.553 38.000,88.259 38.000 C 87.965 38.000,87.398 38.360,87.000 38.800 C 86.602 39.240,86.035 39.600,85.741 39.600 C 85.447 39.600,84.691 40.140,84.060 40.800 C 83.429 41.460,82.607 42.000,82.233 42.000 C 81.859 42.000,81.664 42.180,81.800 42.400 C 81.936 42.620,81.767 42.800,81.424 42.800 C 81.081 42.800,80.800 43.001,80.800 43.247 C 80.800 43.503,80.443 43.600,79.960 43.474 C 79.499 43.353,79.210 43.343,79.318 43.451 C 79.588 43.721,77.670 45.600,77.125 45.600 C 76.884 45.600,75.894 46.416,74.926 47.412 C 73.957 48.409,72.992 49.119,72.782 48.989 C 72.572 48.859,72.400 49.044,72.400 49.400 C 72.400 49.756,72.263 49.962,72.095 49.859 C 71.928 49.755,71.173 50.375,70.419 51.235 C 69.665 52.096,68.806 52.800,68.511 52.800 C 68.215 52.800,67.343 53.430,66.573 54.200 C 65.803 54.970,65.282 55.600,65.415 55.600 C 65.548 55.600,65.387 55.870,65.057 56.200 C 64.727 56.530,64.276 56.800,64.056 56.800 C 63.835 56.800,63.540 57.160,63.400 57.600 C 63.260 58.040,62.933 58.400,62.673 58.401 C 62.413 58.401,61.542 59.076,60.738 59.901 C 58.671 62.021,57.275 63.141,57.019 62.886 C 56.899 62.765,56.800 63.070,56.800 63.562 C 56.800 64.054,56.530 64.727,56.200 65.057 C 55.870 65.387,55.600 65.551,55.600 65.421 C 55.600 65.291,54.430 66.355,53.000 67.785 C 51.570 69.215,50.400 70.535,50.400 70.717 C 50.400 70.900,49.866 71.444,49.213 71.927 C 48.476 72.472,48.114 73.031,48.256 73.402 C 48.382 73.731,48.321 74.000,48.120 74.000 C 47.550 74.000,43.985 77.452,44.265 77.732 C 44.403 77.869,43.769 78.706,42.858 79.590 C 41.946 80.475,41.200 81.449,41.200 81.755 C 41.200 82.060,40.662 82.735,40.004 83.255 C 39.346 83.775,38.806 84.475,38.804 84.812 C 38.802 85.148,38.440 85.683,38.000 86.000 C 37.560 86.317,37.200 86.881,37.200 87.253 C 37.200 87.625,36.660 88.383,36.000 88.939 C 35.340 89.494,34.800 90.190,34.800 90.486 C 34.800 90.782,34.440 91.283,34.000 91.600 C 33.560 91.917,33.200 92.407,33.200 92.688 C 33.200 92.970,33.001 93.200,32.757 93.200 C 32.514 93.200,32.422 93.479,32.553 93.821 C 32.697 94.198,32.625 94.339,32.368 94.181 C 32.136 94.037,31.847 94.298,31.726 94.760 C 31.606 95.222,31.337 95.600,31.130 95.600 C 30.922 95.600,30.864 95.780,31.000 96.000 C 31.136 96.220,30.967 96.400,30.624 96.400 C 30.221 96.400,30.000 96.763,30.000 97.424 C 30.000 98.004,29.827 98.340,29.600 98.200 C 29.380 98.064,29.200 98.313,29.200 98.754 C 29.200 99.194,28.869 99.790,28.465 100.077 C 28.060 100.365,27.607 101.095,27.457 101.700 C 27.307 102.305,26.935 102.800,26.630 102.800 C 26.286 102.800,26.149 103.083,26.270 103.545 C 26.383 103.978,26.216 104.385,25.870 104.518 C 25.543 104.643,25.146 105.337,24.987 106.060 C 24.543 108.080,23.166 110.232,22.648 109.714 C 22.511 109.578,22.400 109.957,22.400 110.557 C 22.400 111.182,22.229 111.542,22.000 111.400 C 21.780 111.264,21.600 111.523,21.600 111.976 C 21.600 112.429,21.458 112.800,21.285 112.800 C 21.112 112.800,20.945 113.129,20.915 113.531 C 20.885 113.934,20.307 115.202,19.630 116.349 C 18.954 117.496,18.400 118.607,18.400 118.818 C 18.400 119.028,18.209 119.200,17.976 119.200 C 17.743 119.200,17.648 119.353,17.764 119.541 C 17.880 119.729,17.716 120.224,17.400 120.641 C 17.084 121.058,16.820 121.679,16.813 122.020 C 16.796 122.849,15.877 124.793,15.500 124.797 C 15.335 124.799,15.200 125.171,15.200 125.624 C 15.200 126.077,15.056 126.358,14.880 126.249 C 14.460 125.990,13.447 129.430,13.783 129.973 C 13.939 130.225,13.795 130.296,13.421 130.153 C 12.930 129.964,12.800 130.218,12.800 131.357 C 12.800 132.151,12.620 132.800,12.400 132.800 C 12.180 132.800,12.000 133.070,12.000 133.400 C 12.000 133.730,11.820 134.000,11.600 134.000 C 11.380 134.000,11.200 134.540,11.200 135.200 C 11.200 135.860,11.020 136.400,10.800 136.400 C 10.580 136.400,10.400 136.749,10.400 137.176 C 10.400 137.603,10.228 138.059,10.018 138.189 C 9.809 138.318,9.515 139.499,9.367 140.812 C 9.218 142.125,8.978 143.200,8.833 143.200 C 8.689 143.200,8.526 143.785,8.472 144.500 C 8.419 145.215,8.200 145.860,7.987 145.933 C 7.774 146.007,7.600 146.502,7.600 147.033 C 7.600 147.565,7.420 148.000,7.200 148.000 C 6.980 148.000,6.800 148.720,6.800 149.600 C 6.800 150.480,6.620 151.200,6.400 151.200 C 6.180 151.200,6.000 151.920,6.000 152.800 C 6.000 153.680,5.820 154.400,5.600 154.400 C 5.380 154.400,5.200 155.120,5.200 156.000 C 5.200 156.880,5.039 157.600,4.842 157.600 C 4.500 157.600,4.332 158.353,3.769 162.400 C 3.631 163.390,3.356 164.371,3.159 164.580 C 2.962 164.789,2.800 165.734,2.800 166.680 C 2.800 167.626,2.620 168.400,2.400 168.400 C 2.171 168.400,2.000 169.600,2.000 171.200 C 2.000 172.800,1.829 174.000,1.600 174.000 C 1.380 174.000,1.221 174.135,1.247 174.300 C 1.446 175.557,1.127 179.602,0.844 179.427 C -0.170 178.801,-0.288 228.672,0.725 229.685 C 1.020 229.980,1.200 231.497,1.200 233.680 C 1.200 235.760,1.364 237.200,1.600 237.200 C 1.820 237.200,2.000 238.100,2.000 239.200 C 2.000 240.300,2.180 241.200,2.400 241.200 C 2.620 241.200,2.800 242.010,2.800 243.000 C 2.800 243.990,2.980 244.800,3.200 244.800 C 3.420 244.800,3.600 245.599,3.600 246.576 C 3.600 247.553,3.780 248.464,4.000 248.600 C 4.220 248.736,4.400 249.647,4.400 250.624 C 4.400 251.601,4.580 252.400,4.800 252.400 C 5.020 252.400,5.200 253.210,5.200 254.200 C 5.200 255.190,5.380 256.000,5.600 256.000 C 5.820 256.000,6.000 256.529,6.000 257.176 C 6.000 257.823,6.180 258.464,6.400 258.600 C 6.620 258.736,6.800 259.276,6.800 259.800 C 6.800 260.324,6.980 260.864,7.200 261.000 C 7.420 261.136,7.600 261.856,7.600 262.600 C 7.600 263.344,7.780 264.064,8.000 264.200 C 8.220 264.336,8.400 264.977,8.400 265.624 C 8.400 266.271,8.580 266.800,8.800 266.800 C 9.020 266.800,9.200 267.250,9.200 267.800 C 9.200 268.350,9.355 268.800,9.545 268.800 C 9.734 268.800,9.803 269.251,9.697 269.802 C 9.592 270.354,9.707 271.047,9.952 271.343 C 10.198 271.639,10.437 272.345,10.484 272.912 C 10.531 273.479,10.712 273.855,10.885 273.748 C 11.058 273.640,11.200 273.923,11.200 274.376 C 11.200 274.829,11.380 275.200,11.600 275.200 C 11.820 275.200,12.000 275.639,12.000 276.176 C 12.000 276.713,12.180 277.264,12.400 277.400 C 12.620 277.536,12.800 278.177,12.800 278.824 C 12.800 279.471,12.935 280.001,13.100 280.003 C 13.547 280.008,14.400 282.026,14.400 283.080 C 14.400 283.586,14.580 284.000,14.800 284.000 C 15.020 284.000,15.200 284.360,15.200 284.800 C 15.200 285.240,15.380 285.600,15.600 285.600 C 15.820 285.600,16.000 285.883,16.000 286.229 C 16.000 286.574,16.279 287.136,16.620 287.477 C 16.960 287.818,17.345 288.625,17.474 289.270 C 17.617 289.985,17.904 290.369,18.209 290.252 C 18.539 290.125,18.641 290.323,18.508 290.830 C 18.397 291.253,18.508 291.600,18.753 291.600 C 18.999 291.600,19.200 292.140,19.200 292.800 C 19.200 293.460,19.380 294.000,19.600 294.000 C 19.820 294.000,20.000 294.360,20.000 294.800 C 20.000 295.240,20.180 295.600,20.400 295.600 C 20.620 295.600,20.800 295.920,20.800 296.312 C 20.800 296.703,21.160 297.283,21.600 297.600 C 22.040 297.917,22.400 298.420,22.400 298.717 C 22.400 299.014,22.672 299.529,23.004 299.861 C 23.336 300.193,23.505 300.630,23.380 300.832 C 23.255 301.035,23.343 301.200,23.576 301.200 C 23.809 301.200,24.000 301.560,24.000 302.000 C 24.000 302.440,24.177 302.800,24.392 302.800 C 24.608 302.800,24.898 303.252,25.037 303.805 C 25.176 304.358,25.543 304.952,25.852 305.125 C 26.162 305.299,26.483 305.795,26.567 306.228 C 26.813 307.506,28.602 310.418,30.062 311.919 C 30.427 312.294,30.787 312.957,30.862 313.394 C 30.938 313.831,31.495 314.612,32.100 315.130 C 32.705 315.648,33.200 316.372,33.200 316.739 C 33.200 317.107,33.560 317.632,34.000 317.907 C 34.440 318.182,34.800 318.722,34.800 319.107 C 34.800 319.492,35.160 320.032,35.600 320.307 C 36.040 320.582,36.400 321.088,36.400 321.432 C 36.400 322.174,37.398 323.268,37.752 322.914 C 37.889 322.778,38.000 323.022,38.000 323.457 C 38.000 323.892,38.716 324.867,39.591 325.624 C 40.466 326.381,41.186 327.206,41.191 327.458 C 41.196 327.709,41.739 328.493,42.398 329.198 C 43.058 329.904,43.497 330.643,43.375 330.841 C 43.253 331.038,43.313 331.200,43.509 331.200 C 43.705 331.200,44.106 331.650,44.400 332.200 C 44.694 332.750,45.163 333.200,45.441 333.200 C 45.922 333.200,46.647 334.665,46.479 335.300 C 46.436 335.465,46.681 335.600,47.024 335.600 C 47.367 335.600,47.549 335.760,47.428 335.955 C 47.308 336.150,47.567 336.403,48.004 336.517 C 48.442 336.631,48.800 337.012,48.800 337.363 C 48.800 337.713,49.100 338.000,49.467 338.000 C 49.833 338.000,50.024 338.109,49.891 338.243 C 49.574 338.560,50.509 339.571,50.900 339.334 C 51.065 339.235,51.200 339.356,51.200 339.605 C 51.200 340.174,51.988 340.964,52.900 341.310 C 53.285 341.456,53.600 341.854,53.600 342.196 C 53.600 342.922,59.437 348.829,59.798 348.468 C 59.932 348.334,59.924 348.534,59.778 348.912 C 59.590 349.403,59.717 349.600,60.224 349.600 C 60.614 349.600,60.818 349.715,60.677 349.856 C 60.348 350.186,63.190 352.800,63.878 352.800 C 64.165 352.800,64.400 352.991,64.400 353.224 C 64.400 353.457,64.580 353.536,64.800 353.400 C 65.020 353.264,65.200 353.352,65.200 353.595 C 65.200 354.195,67.054 356.012,67.358 355.709 C 67.491 355.576,67.600 355.797,67.600 356.200 C 67.600 356.603,67.701 356.832,67.825 356.708 C 67.949 356.584,68.745 357.184,69.594 358.041 C 70.443 358.899,71.359 359.600,71.631 359.600 C 71.903 359.600,72.831 360.320,73.693 361.200 C 74.556 362.080,75.528 362.800,75.854 362.800 C 76.180 362.800,76.336 362.980,76.200 363.200 C 76.064 363.420,76.221 363.600,76.549 363.600 C 76.878 363.600,77.260 363.960,77.400 364.400 C 77.543 364.849,78.005 365.200,78.456 365.200 C 78.896 365.200,79.527 365.470,79.857 365.800 C 80.187 366.130,80.362 366.400,80.247 366.400 C 80.131 366.400,80.486 366.850,81.036 367.400 C 81.586 367.950,82.258 368.400,82.530 368.400 C 82.801 368.400,83.283 368.760,83.600 369.200 C 83.917 369.640,84.487 370.000,84.866 370.000 C 85.245 370.000,85.790 370.315,86.077 370.700 C 86.365 371.085,86.870 371.459,87.200 371.530 C 87.530 371.602,87.860 371.828,87.934 372.032 C 88.008 372.237,88.233 372.303,88.434 372.179 C 88.635 372.055,88.800 372.153,88.800 372.397 C 88.800 372.642,89.340 373.030,90.000 373.260 C 90.660 373.490,91.200 373.831,91.200 374.017 C 91.200 374.358,92.794 375.358,94.100 375.837 C 94.485 375.978,94.800 376.252,94.800 376.447 C 94.800 376.641,95.072 376.800,95.405 376.800 C 96.177 376.800,97.604 377.599,98.443 378.500 C 98.801 378.885,99.281 379.200,99.509 379.200 C 100.069 379.200,103.264 380.871,103.953 381.524 C 104.256 381.812,105.201 382.350,106.053 382.718 C 106.904 383.087,107.600 383.526,107.600 383.694 C 107.600 383.862,107.960 384.000,108.400 384.000 C 108.840 384.000,109.200 384.174,109.200 384.387 C 109.200 384.601,109.470 384.671,109.800 384.545 C 110.180 384.399,110.400 384.550,110.400 384.957 C 110.400 385.405,110.764 385.600,111.600 385.600 C 112.260 385.600,112.800 385.791,112.800 386.024 C 112.800 386.257,112.969 386.343,113.176 386.215 C 113.383 386.087,113.778 386.225,114.055 386.521 C 114.331 386.817,114.975 386.979,115.485 386.882 C 116.241 386.737,116.361 386.836,116.138 387.418 C 115.959 387.883,116.016 388.037,116.300 387.862 C 116.539 387.714,117.007 387.864,117.339 388.196 C 117.671 388.528,118.226 388.800,118.571 388.800 C 118.917 388.800,119.200 388.974,119.200 389.187 C 119.200 389.401,119.492 389.463,119.850 389.326 C 120.240 389.176,120.647 389.340,120.869 389.738 C 121.073 390.102,121.522 390.400,121.866 390.400 C 122.745 390.400,126.572 391.737,126.733 392.100 C 126.807 392.265,127.392 392.400,128.033 392.400 C 128.675 392.400,129.200 392.580,129.200 392.800 C 129.200 393.020,129.740 393.200,130.400 393.200 C 131.060 393.200,131.600 393.380,131.600 393.600 C 131.600 393.820,131.960 394.000,132.400 394.000 C 132.840 394.000,133.200 394.180,133.200 394.400 C 133.200 394.620,133.740 394.800,134.400 394.800 C 135.060 394.800,135.600 394.980,135.600 395.200 C 135.600 396.020,143.826 395.684,145.400 394.800 C 146.183 394.360,147.076 394.000,147.383 394.000 C 147.691 394.000,148.253 393.296,148.632 392.436 C 149.069 391.445,149.520 390.948,149.861 391.079 C 150.242 391.225,150.400 390.921,150.400 390.043 C 150.400 389.359,150.580 388.800,150.800 388.800 C 151.062 388.800,151.200 381.600,151.200 368.000 L 151.200 347.200 148.800 347.200 C 146.876 347.200,146.400 347.326,146.400 347.834 C 146.400 348.362,145.963 348.446,143.799 348.334 C 142.369 348.260,141.199 348.335,141.199 348.500 C 141.200 348.665,136.610 348.800,131.000 348.800 C 125.390 348.800,120.800 348.665,120.801 348.500 C 120.801 348.335,119.618 348.261,118.171 348.335 C 116.183 348.438,115.425 348.324,115.070 347.869 C 114.812 347.538,113.790 347.170,112.800 347.051 C 108.528 346.538,105.485 345.710,105.828 345.155 C 105.949 344.960,105.542 344.798,104.924 344.795 C 103.223 344.786,102.000 344.366,102.000 343.791 C 102.000 343.472,101.695 343.355,101.200 343.484 C 100.644 343.630,100.400 343.496,100.400 343.047 C 100.400 342.691,100.265 342.436,100.100 342.479 C 99.554 342.623,98.000 341.953,98.000 341.573 C 98.000 341.368,97.728 341.200,97.396 341.200 C 97.064 341.200,96.228 340.660,95.537 340.000 C 94.846 339.340,94.078 338.800,93.829 338.800 C 93.580 338.800,93.124 338.450,92.815 338.021 C 92.507 337.593,92.126 337.322,91.970 337.419 C 91.813 337.515,91.571 337.138,91.431 336.581 C 91.291 336.023,91.002 335.675,90.788 335.807 C 90.575 335.939,90.400 335.767,90.400 335.424 C 90.400 335.081,90.109 334.800,89.753 334.800 C 89.316 334.800,89.171 334.555,89.305 334.042 C 89.443 333.515,89.206 333.149,88.529 332.840 C 87.993 332.596,87.668 332.213,87.807 331.988 C 87.946 331.764,87.821 331.630,87.530 331.690 C 87.191 331.760,87.036 331.467,87.099 330.877 C 87.157 330.344,87.030 330.058,86.799 330.200 C 86.572 330.341,86.400 329.995,86.400 329.400 C 86.400 328.804,86.228 328.459,86.000 328.600 C 85.773 328.740,85.600 328.404,85.600 327.824 C 85.600 327.218,85.396 326.841,85.100 326.900 C 84.795 326.961,84.639 326.641,84.699 326.077 C 84.757 325.544,84.630 325.258,84.399 325.400 C 84.180 325.536,84.000 325.277,84.000 324.824 C 84.000 324.371,83.820 324.000,83.600 324.000 C 83.380 324.000,83.200 323.561,83.200 323.024 C 83.200 322.487,83.020 321.936,82.800 321.800 C 82.580 321.664,82.400 321.203,82.400 320.776 C 82.400 320.349,82.220 320.000,82.000 320.000 C 81.780 320.000,81.600 319.717,81.600 319.371 C 81.600 319.026,81.328 318.471,80.996 318.139 C 80.664 317.807,80.495 317.370,80.620 317.168 C 80.745 316.965,80.657 316.800,80.424 316.800 C 80.191 316.800,80.000 316.530,80.000 316.200 C 80.000 315.870,79.820 315.600,79.600 315.600 C 79.380 315.600,79.200 315.240,79.200 314.800 C 79.200 314.360,79.020 314.000,78.800 314.000 C 78.580 314.000,78.400 313.758,78.400 313.461 C 78.400 312.686,77.204 310.400,76.798 310.400 C 76.609 310.400,76.326 309.995,76.170 309.500 C 76.013 309.005,75.576 308.382,75.198 308.116 C 74.820 307.850,74.284 307.085,74.007 306.416 C 73.730 305.747,73.334 305.200,73.128 305.200 C 72.922 305.200,72.864 305.020,73.000 304.800 C 73.136 304.580,73.057 304.400,72.824 304.400 C 72.591 304.400,72.400 304.190,72.400 303.934 C 72.400 303.677,72.133 303.182,71.807 302.834 C 67.939 298.701,66.344 297.200,65.822 297.200 C 65.480 297.200,65.200 297.020,65.200 296.800 C 65.200 296.580,65.065 296.445,64.900 296.500 C 64.735 296.555,64.189 296.189,63.687 295.687 C 63.186 295.186,62.241 294.668,61.587 294.538 C 60.934 294.407,60.400 294.052,60.400 293.750 C 60.400 293.447,60.238 293.245,60.040 293.300 C 59.842 293.355,59.671 293.253,59.661 293.074 C 59.650 292.894,59.137 292.358,58.521 291.881 C 57.904 291.405,57.340 290.876,57.267 290.707 C 57.193 290.538,56.878 290.400,56.567 290.400 C 56.255 290.400,56.000 290.029,56.000 289.576 C 56.000 289.123,55.820 288.864,55.600 289.000 C 55.373 289.140,55.200 288.804,55.200 288.224 C 55.200 287.563,54.979 287.200,54.576 287.200 C 54.233 287.200,54.064 287.020,54.200 286.800 C 54.336 286.580,54.257 286.400,54.024 286.400 C 53.791 286.400,53.600 286.119,53.600 285.776 C 53.600 285.433,53.780 285.264,54.000 285.400 C 54.220 285.536,54.400 285.354,54.400 284.997 C 54.400 284.528,54.624 284.417,55.200 284.600 C 55.659 284.746,56.000 284.672,56.000 284.427 C 56.000 284.145,57.839 284.000,61.400 284.000 C 64.801 284.000,66.800 284.151,66.800 284.408 C 66.800 284.645,67.227 284.708,67.820 284.559 C 68.507 284.387,68.998 284.504,69.320 284.918 C 69.584 285.256,70.652 285.814,71.693 286.159 C 72.734 286.504,73.956 287.156,74.409 287.609 C 75.241 288.441,77.136 289.387,77.715 289.260 C 77.888 289.222,78.428 289.597,78.915 290.095 C 79.402 290.593,80.470 291.341,81.289 291.757 C 82.107 292.173,82.682 292.668,82.565 292.857 C 82.448 293.046,82.644 293.200,83.000 293.200 C 83.356 293.200,83.572 293.335,83.479 293.500 C 83.268 293.878,89.087 299.580,89.382 299.284 C 89.502 299.165,89.600 299.557,89.600 300.157 C 89.600 300.782,89.771 301.142,90.000 301.000 C 90.220 300.864,90.400 301.033,90.400 301.376 C 90.400 301.719,90.580 302.000,90.800 302.000 C 91.020 302.000,91.200 302.287,91.200 302.637 C 91.200 302.987,91.558 303.728,91.995 304.284 C 92.432 304.839,92.674 305.481,92.533 305.709 C 92.384 305.949,92.471 306.003,92.738 305.838 C 93.012 305.669,93.200 305.807,93.200 306.176 C 93.200 306.519,93.489 306.800,93.843 306.800 C 94.217 306.800,94.399 307.025,94.279 307.338 C 94.166 307.634,94.416 308.124,94.836 308.426 C 95.256 308.729,95.600 309.123,95.600 309.302 C 95.600 309.480,96.229 310.255,96.997 311.023 C 97.765 311.792,98.350 312.574,98.297 312.762 C 98.244 312.950,98.695 313.567,99.300 314.133 C 99.905 314.699,100.400 315.273,100.400 315.409 C 100.400 315.865,101.502 316.765,101.752 316.514 C 101.889 316.378,102.000 316.567,102.000 316.933 C 102.000 317.300,102.278 317.600,102.617 317.600 C 103.254 317.600,103.975 318.090,105.117 319.300 C 105.480 319.685,105.998 320.000,106.266 320.000 C 106.535 320.000,107.035 320.400,107.377 320.889 C 107.720 321.378,108.000 321.626,108.000 321.440 C 108.000 321.254,108.278 321.332,108.617 321.614 C 109.744 322.549,112.922 324.000,113.844 324.000 C 114.344 324.000,114.875 324.197,115.023 324.438 C 115.172 324.678,115.717 324.794,116.235 324.695 C 116.752 324.597,117.081 324.670,116.964 324.858 C 116.848 325.046,117.843 325.200,119.176 325.200 C 120.525 325.200,121.600 325.377,121.600 325.600 C 121.600 325.839,123.133 326.000,125.400 326.000 C 127.490 326.000,129.200 325.848,129.200 325.662 C 129.200 325.477,131.945 325.206,135.300 325.061 C 138.752 324.912,141.458 324.624,141.533 324.399 C 141.607 324.179,142.014 324.000,142.439 324.000 C 143.185 324.000,143.576 323.855,145.495 322.862 C 145.987 322.608,146.797 322.394,147.295 322.387 C 147.793 322.380,148.542 322.116,148.959 321.800 C 149.376 321.484,149.871 321.320,150.059 321.436 C 150.247 321.552,150.400 321.457,150.400 321.224 C 150.400 320.991,150.760 320.800,151.200 320.800 C 151.903 320.800,152.000 320.533,152.000 318.600 C 152.000 317.390,152.180 316.400,152.400 316.400 C 152.620 316.400,152.800 315.590,152.800 314.600 C 152.800 313.610,152.980 312.800,153.200 312.800 C 153.420 312.800,153.600 312.271,153.600 311.624 C 153.600 310.977,153.780 310.336,154.000 310.200 C 154.220 310.064,154.400 309.601,154.400 309.171 C 154.400 308.350,155.152 306.780,155.755 306.343 C 155.950 306.201,156.023 305.632,155.917 305.079 C 155.769 304.303,155.863 304.126,156.328 304.304 C 156.694 304.445,156.828 304.368,156.668 304.110 C 156.523 303.876,156.674 303.581,157.002 303.454 C 157.331 303.328,157.600 302.949,157.600 302.613 C 157.600 302.276,157.780 302.000,158.000 302.000 C 158.220 302.000,158.403 301.595,158.407 301.100 C 158.411 300.605,158.861 299.776,159.407 299.258 C 159.953 298.740,160.400 298.143,160.400 297.932 C 160.400 297.721,161.300 296.671,162.400 295.600 C 165.294 292.782,164.772 292.000,159.998 292.000 C 158.705 292.000,157.536 291.820,157.400 291.600 C 157.264 291.380,155.813 291.200,154.176 291.200 C 152.459 291.200,151.200 291.031,151.200 290.800 C 151.200 290.580,150.311 290.400,149.224 290.400 C 148.137 290.400,147.136 290.220,147.000 290.000 C 146.864 289.780,146.144 289.600,145.400 289.600 C 144.656 289.600,143.936 289.420,143.800 289.200 C 143.664 288.980,142.854 288.800,142.000 288.800 C 141.146 288.800,140.336 288.620,140.200 288.400 C 140.064 288.180,139.344 288.000,138.600 288.000 C 137.856 288.000,137.136 287.820,137.000 287.600 C 136.864 287.380,136.033 287.200,135.153 287.200 C 134.188 287.200,133.651 287.041,133.800 286.800 C 133.944 286.567,133.537 286.400,132.824 286.400 C 132.151 286.400,131.600 286.220,131.600 286.000 C 131.600 285.780,131.105 285.599,130.500 285.599 C 129.895 285.598,128.811 285.238,128.090 284.799 C 127.370 284.359,126.425 284.000,125.990 284.000 C 125.556 284.000,125.200 283.820,125.200 283.600 C 125.200 283.380,124.840 283.200,124.400 283.200 C 123.960 283.200,123.600 283.020,123.600 282.800 C 123.600 282.580,123.251 282.400,122.824 282.400 C 122.397 282.400,121.936 282.220,121.800 282.000 C 121.664 281.780,121.203 281.600,120.776 281.600 C 120.349 281.600,120.000 281.420,120.000 281.200 C 120.000 280.980,119.865 280.821,119.700 280.847 C 118.822 280.986,118.061 280.717,117.283 279.992 C 116.806 279.547,116.277 279.142,116.108 279.092 C 115.938 279.041,115.845 278.865,115.900 278.700 C 115.955 278.535,115.865 278.421,115.700 278.447 C 114.820 278.586,114.060 278.316,113.275 277.584 C 112.794 277.136,112.400 276.870,112.400 276.995 C 112.400 277.119,111.860 276.941,111.200 276.600 C 110.540 276.259,110.000 275.818,110.000 275.622 C 110.000 275.425,109.425 275.137,108.723 274.983 C 107.367 274.685,106.273 273.860,106.686 273.448 C 106.822 273.311,106.623 273.200,106.243 273.200 C 105.863 273.200,105.664 273.020,105.800 272.800 C 105.942 272.571,105.582 272.400,104.957 272.400 C 104.357 272.400,103.977 272.290,104.111 272.156 C 104.463 271.804,102.210 270.000,101.419 270.000 C 101.052 270.000,100.864 269.820,101.000 269.600 C 101.136 269.380,100.979 269.200,100.651 269.200 C 100.322 269.200,99.940 268.840,99.800 268.400 C 99.660 267.960,99.278 267.600,98.949 267.600 C 98.621 267.600,98.456 267.433,98.582 267.229 C 98.708 267.025,98.494 266.744,98.106 266.606 C 97.718 266.468,96.770 265.579,96.000 264.632 C 95.230 263.684,94.492 262.968,94.360 263.041 C 94.228 263.113,93.886 262.735,93.600 262.200 C 93.314 261.665,92.927 261.322,92.740 261.437 C 92.553 261.553,92.400 261.367,92.400 261.024 C 92.400 260.681,92.220 260.400,92.000 260.400 C 91.780 260.400,91.600 260.034,91.600 259.587 C 91.600 259.141,91.337 258.674,91.015 258.550 C 90.694 258.427,90.322 257.984,90.189 257.565 C 90.056 257.147,89.696 256.553,89.388 256.245 C 89.080 255.937,88.777 255.446,88.714 255.152 C 88.556 254.416,87.753 253.600,87.186 253.600 C 86.927 253.600,86.816 253.336,86.940 253.013 C 87.064 252.690,86.993 252.319,86.783 252.189 C 86.572 252.059,86.400 251.603,86.400 251.176 C 86.400 250.749,86.220 250.400,86.000 250.400 C 85.780 250.400,85.600 250.149,85.600 249.843 C 85.600 249.536,85.318 249.177,84.972 249.045 C 84.555 248.885,84.430 248.535,84.599 248.002 C 84.746 247.541,84.672 247.200,84.427 247.200 C 84.192 247.200,84.000 246.930,84.000 246.600 C 84.000 246.270,83.840 246.000,83.644 246.000 C 83.448 246.000,83.049 245.190,82.757 244.200 C 82.465 243.210,82.085 242.400,81.913 242.400 C 81.741 242.400,81.600 241.950,81.600 241.400 C 81.600 240.850,81.420 240.400,81.200 240.400 C 80.980 240.400,80.800 240.040,80.800 239.600 C 80.800 239.160,80.620 238.800,80.400 238.800 C 80.180 238.800,80.000 238.260,80.000 237.600 C 80.000 236.940,79.820 236.400,79.600 236.400 C 79.380 236.400,79.200 235.849,79.200 235.176 C 79.200 234.463,79.033 234.056,78.800 234.200 C 78.562 234.347,78.400 233.871,78.400 233.024 C 78.400 232.241,78.220 231.600,78.000 231.600 C 77.780 231.600,77.600 230.981,77.600 230.224 C 77.600 229.467,77.420 228.736,77.200 228.600 C 76.980 228.464,76.800 227.744,76.800 227.000 C 76.800 226.256,76.620 225.536,76.400 225.400 C 76.180 225.264,76.000 224.533,76.000 223.776 C 76.000 223.019,75.838 222.400,75.640 222.400 C 75.442 222.400,75.151 220.147,74.992 217.394 C 74.833 214.640,74.545 212.290,74.352 212.170 C 74.158 212.051,74.000 209.893,74.000 207.376 C 74.000 204.592,73.843 202.800,73.600 202.800 C 73.348 202.800,73.200 200.067,73.200 195.400 C 73.200 190.733,73.348 188.000,73.600 188.000 C 73.835 188.000,74.000 186.608,74.000 184.624 C 74.000 182.767,74.164 181.146,74.364 181.022 C 74.565 180.898,74.856 179.268,75.012 177.399 C 75.167 175.529,75.453 174.000,75.647 174.000 C 75.841 174.000,76.000 173.460,76.000 172.800 C 76.000 172.140,76.180 171.600,76.400 171.600 C 76.620 171.600,76.800 171.060,76.800 170.400 C 76.800 169.740,76.980 169.200,77.200 169.200 C 77.420 169.200,77.600 168.559,77.600 167.776 C 77.600 166.929,77.762 166.453,78.000 166.600 C 78.233 166.744,78.400 166.337,78.400 165.624 C 78.400 164.951,78.580 164.400,78.800 164.400 C 79.020 164.400,79.200 164.040,79.200 163.600 C 79.200 163.160,79.380 162.800,79.600 162.800 C 79.820 162.800,80.000 162.440,80.000 162.000 C 80.000 161.560,80.180 161.200,80.400 161.200 C 80.620 161.200,80.800 160.742,80.800 160.183 C 80.800 159.624,81.160 158.780,81.600 158.308 C 82.040 157.836,82.624 156.944,82.897 156.325 C 83.171 155.706,83.531 155.200,83.698 155.200 C 83.864 155.200,84.000 154.880,84.000 154.488 C 84.000 154.097,84.360 153.517,84.800 153.200 C 85.240 152.883,85.600 152.369,85.600 152.059 C 85.600 151.748,85.972 151.171,86.426 150.777 C 86.881 150.383,87.247 149.912,87.241 149.730 C 87.235 149.549,87.568 149.010,87.982 148.534 C 88.396 148.058,88.630 147.563,88.501 147.434 C 88.372 147.305,88.546 147.200,88.888 147.200 C 89.229 147.200,89.791 146.605,90.136 145.879 C 90.481 145.152,91.311 143.984,91.981 143.282 C 93.216 141.990,93.835 138.000,92.800 138.000 C 92.580 138.000,92.400 137.550,92.400 137.000 C 92.400 136.450,92.220 136.000,92.000 136.000 C 91.780 136.000,91.600 135.359,91.600 134.576 C 91.600 133.793,91.465 133.236,91.300 133.339 C 91.135 133.441,91.062 132.642,91.139 131.562 C 91.226 130.321,91.116 129.600,90.839 129.600 C 90.569 129.600,90.400 128.674,90.400 127.200 C 90.400 125.333,90.267 124.800,89.800 124.800 C 89.289 124.800,89.200 123.733,89.200 117.600 C 89.200 111.670,89.300 110.400,89.764 110.400 C 90.193 110.400,90.313 109.834,90.264 108.033 C 90.228 106.686,90.368 105.695,90.589 105.733 C 90.802 105.770,91.130 104.270,91.316 102.400 C 91.503 100.530,91.823 98.940,92.028 98.867 C 92.233 98.793,92.400 98.028,92.400 97.167 C 92.400 96.305,92.580 95.600,92.800 95.600 C 93.020 95.600,93.200 95.060,93.200 94.400 C 93.200 93.740,93.380 93.200,93.600 93.200 C 93.820 93.200,94.000 92.876,94.000 92.480 C 94.000 91.586,94.894 89.607,95.300 89.603 C 95.465 89.601,95.600 89.319,95.600 88.976 C 95.600 88.633,95.780 88.464,96.000 88.600 C 96.220 88.736,96.400 88.657,96.400 88.424 C 96.400 88.154,97.851 88.000,100.400 88.000 C 102.800 88.000,104.400 88.160,104.400 88.400 C 104.400 88.620,104.535 88.769,104.700 88.730 C 105.654 88.508,110.451 89.380,110.838 89.845 C 111.091 90.150,111.726 90.400,112.249 90.400 C 112.772 90.400,113.200 90.601,113.200 90.847 C 113.200 91.096,113.553 91.201,114.001 91.084 C 114.441 90.969,114.700 91.038,114.577 91.237 C 114.454 91.437,114.903 91.600,115.576 91.600 C 116.249 91.600,116.800 91.780,116.800 92.000 C 116.800 92.220,117.441 92.400,118.224 92.400 C 119.071 92.400,119.547 92.562,119.400 92.800 C 119.264 93.020,119.398 93.200,119.697 93.200 C 120.451 93.200,122.393 94.135,122.397 94.500 C 122.399 94.665,122.829 94.800,123.354 94.800 C 124.573 94.800,126.480 95.777,126.094 96.204 C 125.932 96.382,125.998 96.415,126.241 96.277 C 126.484 96.139,127.024 96.284,127.441 96.600 C 127.858 96.916,128.605 97.180,129.100 97.187 C 129.595 97.194,130.000 97.380,130.000 97.600 C 130.000 97.820,130.362 98.000,130.804 98.000 C 131.246 98.000,131.916 98.360,132.293 98.800 C 132.670 99.240,133.208 99.600,133.489 99.600 C 133.770 99.600,134.000 99.780,134.000 100.000 C 134.000 100.220,134.360 100.400,134.800 100.400 C 135.240 100.400,135.600 100.591,135.600 100.824 C 135.600 101.057,135.765 101.145,135.968 101.020 C 136.170 100.895,136.607 101.064,136.939 101.396 C 137.271 101.728,137.700 102.000,137.892 102.000 C 138.517 102.000,140.394 102.992,140.397 103.324 C 140.399 103.502,140.580 103.536,140.800 103.400 C 141.020 103.264,141.200 103.349,141.200 103.589 C 141.200 103.829,141.515 104.142,141.900 104.285 C 142.285 104.428,142.872 104.827,143.204 105.172 C 143.927 105.923,145.430 106.800,145.995 106.800 C 146.218 106.800,146.774 107.174,147.231 107.631 C 147.688 108.088,148.327 108.360,148.652 108.236 C 148.983 108.108,149.135 108.182,148.997 108.405 C 148.690 108.901,151.616 108.898,153.800 108.400 C 154.680 108.200,155.940 107.924,156.600 107.788 C 157.260 107.651,158.160 107.387,158.600 107.200 C 159.556 106.794,161.036 106.462,164.000 105.988 C 165.210 105.795,167.190 105.433,168.400 105.184 C 169.610 104.934,171.815 104.641,173.300 104.532 C 174.785 104.423,176.000 104.169,176.000 103.967 C 176.000 103.765,177.800 103.600,180.000 103.600 C 182.400 103.600,184.000 103.440,184.000 103.200 C 184.000 102.949,186.600 102.800,191.000 102.800 C 195.400 102.800,198.000 102.651,198.000 102.400 C 198.000 102.180,198.900 102.000,200.000 102.000 C 201.100 102.000,202.000 102.172,202.000 102.383 C 202.000 102.604,204.991 102.851,209.100 102.969 C 219.221 103.259,224.000 103.598,224.000 104.027 C 224.000 104.232,225.159 104.400,226.576 104.400 C 227.993 104.400,229.264 104.580,229.400 104.800 C 229.536 105.020,230.447 105.200,231.424 105.200 C 232.401 105.200,233.200 105.349,233.200 105.532 C 233.200 105.714,234.221 105.904,235.470 105.955 C 236.718 106.005,238.057 106.216,238.444 106.423 C 238.831 106.631,239.599 106.800,240.150 106.800 C 240.702 106.800,241.252 106.960,241.373 107.156 C 241.494 107.351,242.179 107.608,242.896 107.727 C 243.613 107.845,245.010 108.127,246.000 108.354 C 249.392 109.129,250.930 108.924,253.145 107.400 C 254.265 106.630,255.415 106.000,255.702 106.000 C 255.989 106.000,256.483 105.640,256.800 105.200 C 257.117 104.760,257.631 104.400,257.941 104.400 C 258.252 104.400,258.797 104.085,259.153 103.700 C 260.093 102.683,262.235 101.573,262.608 101.911 C 262.784 102.070,262.799 101.975,262.641 101.700 C 262.383 101.252,263.079 100.991,264.100 101.153 C 264.265 101.179,264.400 101.064,264.400 100.898 C 264.400 100.731,264.985 100.344,265.700 100.036 C 266.415 99.729,267.322 99.145,267.716 98.739 C 268.109 98.332,268.795 98.000,269.239 98.000 C 269.684 98.000,269.936 97.820,269.800 97.600 C 269.658 97.371,270.018 97.200,270.643 97.200 C 271.243 97.200,271.616 97.083,271.473 96.939 C 271.176 96.642,273.013 95.600,273.834 95.600 C 274.132 95.600,275.017 95.240,275.800 94.800 C 276.583 94.360,277.489 94.000,277.812 94.000 C 278.135 94.000,278.400 93.820,278.400 93.600 C 278.400 93.380,278.940 93.200,279.600 93.200 C 280.260 93.200,280.800 93.020,280.800 92.800 C 280.800 92.580,281.070 92.400,281.400 92.400 C 281.730 92.400,282.000 92.220,282.000 92.000 C 282.000 91.780,282.315 91.599,282.700 91.598 C 283.926 91.594,286.428 90.769,286.222 90.436 C 286.113 90.260,286.477 90.202,287.031 90.308 C 287.699 90.436,288.212 90.263,288.554 89.795 C 288.921 89.293,289.433 89.143,290.335 89.276 C 291.031 89.378,291.600 89.331,291.600 89.171 C 291.600 88.772,294.610 88.382,299.500 88.146 C 302.384 88.007,303.600 88.082,303.600 88.398 C 303.600 88.645,303.780 88.736,304.000 88.600 C 304.220 88.464,304.400 88.633,304.400 88.976 C 304.400 89.319,304.580 89.600,304.800 89.600 C 305.020 89.600,305.200 90.050,305.200 90.600 C 305.200 91.150,305.380 91.600,305.600 91.600 C 305.820 91.600,306.000 92.140,306.000 92.800 C 306.000 93.460,306.180 94.000,306.400 94.000 C 306.620 94.000,306.800 94.540,306.800 95.200 C 306.800 95.860,306.980 96.400,307.200 96.400 C 307.420 96.400,307.600 97.120,307.600 98.000 C 307.600 98.880,307.780 99.600,308.000 99.600 C 308.220 99.600,308.400 100.050,308.400 100.600 C 308.400 101.150,308.593 101.600,308.828 101.600 C 309.096 101.600,309.224 102.536,309.170 104.100 C 309.123 105.475,309.245 106.570,309.442 106.532 C 309.639 106.495,309.738 107.549,309.662 108.875 C 309.582 110.274,309.708 111.468,309.962 111.722 C 310.563 112.323,310.560 124.480,309.959 125.081 C 309.712 125.328,309.580 126.400,309.659 127.511 C 309.754 128.851,309.655 129.444,309.357 129.329 C 309.053 129.212,308.975 129.796,309.108 131.179 C 309.237 132.527,309.152 133.200,308.851 133.200 C 308.603 133.200,308.400 133.729,308.400 134.376 C 308.400 135.023,308.220 135.664,308.000 135.800 C 307.780 135.936,307.600 136.487,307.600 137.024 C 307.600 137.561,307.420 138.000,307.200 138.000 C 306.070 138.000,306.799 141.997,308.200 143.482 C 308.970 144.299,309.600 145.180,309.600 145.441 C 309.600 145.701,309.881 146.022,310.225 146.154 C 310.569 146.286,310.739 146.576,310.602 146.797 C 310.465 147.019,310.621 147.200,310.949 147.200 C 311.502 147.200,312.261 148.611,312.079 149.300 C 312.036 149.465,312.276 149.600,312.613 149.600 C 312.949 149.600,313.344 149.915,313.490 150.300 C 313.636 150.685,313.992 151.240,314.281 151.532 C 314.571 151.825,314.725 152.197,314.625 152.359 C 314.525 152.522,314.793 152.907,315.221 153.215 C 315.650 153.524,316.000 154.097,316.000 154.488 C 316.000 154.880,316.159 155.200,316.353 155.200 C 316.548 155.200,316.806 155.578,316.926 156.040 C 317.047 156.502,317.313 156.777,317.517 156.651 C 317.721 156.525,317.839 156.867,317.779 157.411 C 317.719 157.955,317.835 158.400,318.035 158.400 C 318.236 158.400,318.400 158.670,318.400 159.000 C 318.400 159.330,318.580 159.600,318.800 159.600 C 319.020 159.600,319.200 159.960,319.200 160.400 C 319.200 160.840,319.380 161.200,319.600 161.200 C 319.820 161.200,320.000 161.560,320.000 162.000 C 320.000 162.440,320.180 162.800,320.400 162.800 C 320.620 162.800,320.800 163.160,320.800 163.600 C 320.800 164.040,320.980 164.400,321.200 164.400 C 321.420 164.400,321.600 164.940,321.600 165.600 C 321.600 166.260,321.780 166.800,322.000 166.800 C 322.220 166.800,322.400 167.239,322.400 167.776 C 322.400 168.313,322.580 168.864,322.800 169.000 C 323.020 169.136,323.200 169.787,323.200 170.447 C 323.200 171.145,323.367 171.544,323.600 171.400 C 323.833 171.256,324.000 171.663,324.000 172.376 C 324.000 173.049,324.155 173.600,324.345 173.600 C 324.535 173.600,324.818 175.175,324.974 177.100 C 325.146 179.218,325.484 180.850,325.831 181.234 C 326.505 181.979,327.212 202.801,326.564 202.799 C 326.359 202.799,326.255 204.755,326.326 207.269 C 326.427 210.845,326.337 211.803,325.875 212.062 C 325.446 212.302,325.223 213.673,325.008 217.394 C 324.849 220.149,324.557 222.503,324.360 222.625 C 324.162 222.747,324.000 223.366,324.000 224.000 C 324.000 224.634,323.820 225.264,323.600 225.400 C 323.380 225.536,323.200 226.256,323.200 227.000 C 323.200 227.744,323.020 228.464,322.800 228.600 C 322.580 228.736,322.400 229.557,322.400 230.424 C 322.400 231.291,322.220 232.000,322.000 232.000 C 321.780 232.000,321.600 232.450,321.600 233.000 C 321.600 233.550,321.459 234.000,321.287 234.000 C 321.115 234.000,320.934 234.495,320.884 235.100 C 320.834 235.705,320.615 236.260,320.397 236.333 C 320.178 236.407,320.000 236.981,320.000 237.610 C 320.000 238.238,319.820 238.864,319.600 239.000 C 319.380 239.136,319.200 239.687,319.200 240.224 C 319.200 240.761,319.020 241.200,318.800 241.200 C 318.580 241.200,318.400 241.470,318.400 241.800 C 318.400 242.130,318.199 242.400,317.953 242.400 C 317.697 242.400,317.585 242.811,317.691 243.363 C 317.808 243.974,317.710 244.264,317.423 244.154 C 317.175 244.058,316.941 244.387,316.904 244.884 C 316.866 245.381,316.648 245.851,316.418 245.927 C 316.188 246.004,316.000 246.502,316.000 247.033 C 316.000 247.565,315.820 248.000,315.600 248.000 C 315.380 248.000,315.200 248.480,315.200 249.067 C 315.200 249.653,315.089 250.022,314.952 249.886 C 314.597 249.531,313.600 250.626,313.600 251.371 C 313.600 251.717,313.399 252.000,313.153 252.000 C 312.897 252.000,312.785 252.411,312.891 252.963 C 313.032 253.699,312.932 253.872,312.472 253.696 C 312.099 253.553,311.972 253.631,312.138 253.900 C 312.286 254.139,312.144 254.599,311.823 254.920 C 311.501 255.242,311.335 255.602,311.454 255.720 C 311.572 255.839,311.204 256.241,310.635 256.614 C 310.066 256.987,309.600 257.442,309.600 257.625 C 309.600 257.809,309.150 258.444,308.600 259.038 C 308.050 259.631,307.600 260.419,307.600 260.789 C 307.600 261.616,305.855 263.322,305.437 262.904 C 305.270 262.737,305.193 262.870,305.267 263.200 C 305.340 263.530,305.175 263.755,304.900 263.700 C 304.625 263.645,304.392 263.825,304.381 264.100 C 304.371 264.375,303.659 265.140,302.798 265.800 C 301.937 266.460,301.123 267.315,300.990 267.700 C 300.856 268.085,300.488 268.400,300.173 268.400 C 299.858 268.400,299.600 268.580,299.600 268.800 C 299.600 269.020,299.285 269.208,298.900 269.219 C 298.515 269.229,297.660 269.940,297.000 270.800 C 296.340 271.660,295.530 272.377,295.200 272.394 C 294.398 272.436,293.145 273.412,293.473 273.740 C 293.616 273.883,293.343 274.000,292.867 274.000 C 292.390 274.000,292.000 274.162,292.000 274.361 C 292.000 274.559,291.460 274.910,290.800 275.140 C 290.140 275.370,289.600 275.727,289.600 275.933 C 289.600 276.138,289.285 276.416,288.900 276.549 C 288.515 276.682,287.660 277.140,287.000 277.566 C 286.340 277.993,285.365 278.355,284.833 278.371 C 284.302 278.387,283.984 278.517,284.127 278.661 C 284.464 278.997,282.537 280.000,281.554 280.000 C 281.139 280.000,280.800 280.146,280.800 280.325 C 280.800 280.504,280.170 280.898,279.400 281.200 C 278.630 281.502,278.000 281.896,278.000 282.075 C 278.000 282.254,277.766 282.400,277.480 282.400 C 276.744 282.400,274.807 283.341,274.803 283.700 C 274.801 283.865,274.260 284.000,273.600 284.000 C 272.940 284.000,272.400 284.180,272.400 284.400 C 272.400 284.620,271.849 284.800,271.176 284.800 C 270.463 284.800,270.056 284.967,270.200 285.200 C 270.341 285.428,269.996 285.600,269.400 285.600 C 268.804 285.600,268.459 285.772,268.600 286.000 C 268.749 286.241,268.212 286.400,267.247 286.400 C 266.367 286.400,265.536 286.580,265.400 286.800 C 265.264 287.020,264.724 287.200,264.200 287.200 C 263.676 287.200,263.136 287.380,263.000 287.600 C 262.864 287.820,262.144 288.000,261.400 288.000 C 260.656 288.000,259.936 288.180,259.800 288.400 C 259.664 288.620,258.753 288.800,257.776 288.800 C 256.799 288.800,256.000 288.980,256.000 289.200 C 256.000 289.420,255.280 289.600,254.400 289.600 C 253.520 289.600,252.800 289.780,252.800 290.000 C 252.800 290.222,251.733 290.400,250.400 290.400 C 249.067 290.400,248.000 290.578,248.000 290.800 C 248.000 291.026,246.867 291.200,245.400 291.200 C 243.933 291.200,242.800 291.374,242.800 291.600 C 242.800 291.824,241.615 292.012,240.100 292.028 C 235.232 292.079,234.760 292.794,237.692 295.674 C 238.741 296.705,239.602 297.785,239.604 298.074 C 239.606 298.363,240.127 299.010,240.761 299.511 C 241.469 300.071,242.017 300.967,242.180 301.832 C 242.325 302.608,242.704 303.342,243.022 303.464 C 243.340 303.586,243.600 304.026,243.600 304.443 C 243.600 304.859,243.799 305.200,244.043 305.200 C 244.286 305.200,244.395 305.436,244.284 305.725 C 244.174 306.013,244.420 306.688,244.833 307.225 C 245.245 307.761,245.586 308.590,245.591 309.067 C 245.596 309.543,245.774 309.993,245.987 310.067 C 246.200 310.140,246.419 310.785,246.472 311.500 C 246.526 312.215,246.712 312.800,246.885 312.800 C 247.058 312.800,247.200 313.700,247.200 314.800 C 247.200 316.213,247.359 316.800,247.740 316.800 C 248.650 316.800,248.800 322.351,248.800 356.061 C 248.800 377.087,248.937 388.000,249.200 388.000 C 249.420 388.000,249.600 388.362,249.600 388.805 C 249.600 390.138,251.107 392.400,251.995 392.400 C 252.244 392.400,252.336 392.580,252.200 392.800 C 252.064 393.020,252.263 393.200,252.643 393.200 C 253.023 393.200,253.222 393.311,253.086 393.448 C 252.736 393.797,253.821 394.800,254.548 394.800 C 254.881 394.800,255.264 394.980,255.400 395.200 C 255.539 395.425,257.463 395.600,259.800 395.600 C 262.137 395.600,264.061 395.425,264.200 395.200 C 264.336 394.980,264.977 394.800,265.624 394.800 C 266.271 394.800,266.800 394.620,266.800 394.400 C 266.800 394.180,267.171 394.000,267.624 394.000 C 268.077 394.000,268.336 393.820,268.200 393.600 C 268.053 393.362,268.529 393.200,269.376 393.200 C 270.159 393.200,270.800 393.020,270.800 392.800 C 270.800 392.580,271.340 392.400,272.000 392.400 C 272.660 392.400,273.200 392.236,273.200 392.035 C 273.200 391.834,273.919 391.549,274.798 391.400 C 275.677 391.252,276.497 390.966,276.622 390.765 C 276.746 390.564,277.292 390.400,277.836 390.400 C 278.380 390.400,278.931 390.125,279.060 389.788 C 279.208 389.402,279.572 389.264,280.047 389.415 C 280.463 389.547,280.800 389.463,280.800 389.227 C 280.800 388.992,281.160 388.800,281.600 388.800 C 282.040 388.800,282.400 388.620,282.400 388.400 C 282.400 388.180,282.760 388.000,283.200 388.000 C 283.670 388.000,284.000 387.733,284.000 387.353 C 284.000 386.903,284.244 386.770,284.801 386.916 C 285.241 387.031,285.500 386.962,285.377 386.763 C 285.254 386.563,285.613 386.400,286.176 386.400 C 286.739 386.400,287.200 386.220,287.200 386.000 C 287.200 385.780,287.740 385.600,288.400 385.600 C 289.147 385.600,289.562 385.411,289.500 385.100 C 289.440 384.798,289.756 384.638,290.300 384.695 C 290.795 384.748,291.200 384.613,291.200 384.395 C 291.200 384.178,291.470 384.000,291.800 384.000 C 292.130 384.000,292.400 383.820,292.400 383.600 C 292.400 383.380,292.760 383.200,293.200 383.200 C 293.640 383.200,294.000 383.020,294.000 382.800 C 294.000 382.580,294.320 382.400,294.712 382.400 C 295.103 382.400,295.683 382.040,296.000 381.600 C 296.317 381.160,296.897 380.800,297.288 380.800 C 297.680 380.800,298.000 380.620,298.000 380.400 C 298.000 380.180,298.360 380.000,298.800 380.000 C 299.240 380.000,299.600 379.820,299.600 379.600 C 299.600 379.380,299.848 379.200,300.151 379.200 C 300.454 379.200,300.923 378.934,301.193 378.608 C 301.784 377.897,303.902 376.800,304.685 376.800 C 304.994 376.800,305.136 376.620,305.000 376.400 C 304.864 376.180,305.101 376.000,305.527 376.000 C 305.953 376.000,306.526 375.730,306.800 375.400 C 307.074 375.070,307.596 374.800,307.961 374.800 C 308.325 374.800,308.883 374.440,309.200 374.000 C 309.517 373.560,309.998 373.200,310.268 373.200 C 310.539 373.200,310.944 372.885,311.168 372.500 C 311.392 372.115,311.581 371.948,311.588 372.129 C 311.595 372.309,311.885 372.173,312.232 371.825 C 312.580 371.477,313.030 371.295,313.232 371.420 C 313.435 371.545,313.600 371.356,313.600 371.000 C 313.600 370.644,313.780 370.464,314.000 370.600 C 314.220 370.736,314.400 370.657,314.400 370.424 C 314.400 370.191,314.642 370.000,314.938 370.000 C 315.234 370.000,315.802 369.640,316.200 369.200 C 316.598 368.760,317.226 368.400,317.594 368.400 C 317.963 368.400,318.502 367.956,318.793 367.414 C 319.083 366.871,319.460 366.514,319.631 366.619 C 319.802 366.725,320.057 366.449,320.198 366.006 C 320.360 365.497,320.803 365.200,321.400 365.200 C 321.995 365.200,322.440 364.903,322.600 364.400 C 322.740 363.960,323.142 363.600,323.494 363.600 C 323.845 363.600,324.022 363.489,323.886 363.352 C 323.599 363.065,324.565 362.000,325.112 362.000 C 325.315 362.000,326.046 361.460,326.737 360.800 C 327.428 360.140,328.188 359.600,328.428 359.600 C 328.667 359.600,329.569 358.887,330.431 358.016 C 331.294 357.144,332.000 356.499,332.000 356.582 C 332.000 356.665,332.630 356.121,333.400 355.374 C 334.170 354.626,334.800 353.820,334.800 353.583 C 334.800 353.347,334.980 353.264,335.200 353.400 C 335.420 353.536,335.600 353.457,335.600 353.224 C 335.600 352.991,335.861 352.800,336.180 352.800 C 336.499 352.800,336.944 352.485,337.168 352.100 C 337.392 351.715,337.581 351.541,337.588 351.714 C 337.595 351.887,338.026 351.617,338.547 351.114 C 339.068 350.611,339.418 350.065,339.324 349.900 C 339.230 349.735,339.433 349.600,339.776 349.600 C 340.119 349.600,340.400 349.445,340.400 349.255 C 340.400 349.065,341.750 347.493,343.400 345.760 C 345.050 344.028,346.400 342.405,346.400 342.154 C 346.400 341.903,346.670 341.474,347.000 341.200 C 347.330 340.926,347.603 340.859,347.606 341.051 C 347.609 341.243,347.834 340.970,348.106 340.445 C 348.378 339.920,348.698 339.560,348.818 339.645 C 349.126 339.864,351.200 337.730,351.200 337.195 C 351.200 336.952,351.335 336.830,351.500 336.924 C 351.830 337.112,353.378 335.638,353.520 335.000 C 353.782 333.827,354.092 333.200,354.409 333.200 C 354.958 333.200,356.800 331.228,356.800 330.640 C 356.800 330.352,357.250 329.631,357.800 329.038 C 358.350 328.444,358.800 327.720,358.800 327.428 C 358.800 327.135,359.520 326.265,360.400 325.494 C 361.280 324.722,362.000 323.790,362.000 323.422 C 362.000 323.054,362.135 322.835,362.300 322.934 C 362.592 323.111,363.625 322.222,363.608 321.808 C 363.564 320.705,363.653 320.386,363.956 320.573 C 364.152 320.694,364.599 320.189,364.949 319.452 C 365.299 318.714,365.848 317.892,366.169 317.626 C 366.490 317.359,366.660 316.900,366.547 316.605 C 366.430 316.300,366.914 315.666,367.670 315.135 C 368.402 314.621,369.059 313.932,369.132 313.604 C 369.205 313.276,369.475 312.874,369.732 312.710 C 369.989 312.546,370.058 312.409,369.884 312.406 C 369.711 312.403,369.759 312.175,369.992 311.900 C 371.517 310.097,372.000 309.441,372.000 309.167 C 372.000 308.997,372.225 308.619,372.500 308.329 C 372.775 308.038,373.540 306.675,374.200 305.301 C 374.860 303.926,375.535 302.801,375.700 302.801 C 375.865 302.800,376.000 302.350,376.000 301.800 C 376.000 301.250,376.180 300.800,376.400 300.800 C 376.620 300.800,376.800 300.429,376.800 299.976 C 376.800 299.523,376.980 299.264,377.200 299.400 C 377.420 299.536,377.600 299.304,377.600 298.886 C 377.600 298.467,377.960 297.798,378.400 297.400 C 378.840 297.002,379.200 296.434,379.200 296.138 C 379.200 295.842,379.380 295.600,379.600 295.600 C 379.820 295.600,380.000 295.060,380.000 294.400 C 380.000 293.740,380.180 293.200,380.400 293.200 C 380.620 293.200,380.800 292.840,380.800 292.400 C 380.800 291.960,380.980 291.600,381.200 291.600 C 381.420 291.600,381.600 291.330,381.600 291.000 C 381.600 290.670,381.780 290.400,382.000 290.400 C 382.220 290.400,382.400 289.950,382.400 289.400 C 382.400 288.850,382.580 288.400,382.800 288.400 C 383.020 288.400,383.200 288.130,383.200 287.800 C 383.200 287.470,383.380 287.200,383.600 287.200 C 383.820 287.200,384.000 286.840,384.000 286.400 C 384.000 285.960,384.192 285.600,384.427 285.600 C 384.672 285.600,384.746 285.259,384.600 284.800 C 384.420 284.232,384.528 284.000,384.973 284.000 C 385.361 284.000,385.600 283.649,385.600 283.080 C 385.600 282.037,386.451 280.008,386.890 280.003 C 387.050 280.001,387.077 279.486,386.952 278.858 C 386.786 278.032,386.900 277.647,387.362 277.470 C 387.713 277.335,388.000 276.771,388.000 276.213 C 388.000 275.656,388.164 275.200,388.365 275.200 C 388.566 275.200,388.858 274.438,389.016 273.507 C 389.173 272.576,389.528 271.631,389.805 271.407 C 390.304 271.003,390.446 270.542,391.319 266.500 C 391.568 265.345,391.913 264.400,392.086 264.400 C 392.259 264.400,392.400 263.680,392.400 262.800 C 392.400 261.920,392.580 261.200,392.800 261.200 C 393.020 261.200,393.200 260.660,393.200 260.000 C 393.200 259.340,393.380 258.800,393.600 258.800 C 393.820 258.800,394.000 258.080,394.000 257.200 C 394.000 256.320,394.180 255.600,394.400 255.600 C 394.620 255.600,394.800 254.869,394.800 253.976 C 394.800 252.996,394.958 252.451,395.200 252.600 C 395.446 252.752,395.600 252.079,395.600 250.847 C 395.600 249.747,395.780 248.736,396.000 248.600 C 396.220 248.464,396.400 247.553,396.400 246.576 C 396.400 245.599,396.580 244.800,396.800 244.800 C 397.020 244.800,397.200 243.889,397.200 242.776 C 397.200 241.529,397.353 240.848,397.600 241.000 C 397.846 241.152,398.000 240.479,398.000 239.247 C 398.000 238.147,398.180 237.136,398.400 237.000 C 398.620 236.864,398.800 235.248,398.800 233.410 C 398.800 231.091,398.953 230.016,399.300 229.900 C 399.693 229.769,399.800 224.391,399.800 204.800 C 399.800 185.209,399.693 179.831,399.300 179.700 C 398.964 179.588,398.800 178.624,398.800 176.767 C 398.800 175.189,398.628 174.000,398.400 174.000 C 398.171 174.000,398.000 172.800,398.000 171.200 C 398.000 169.600,397.829 168.400,397.600 168.400 C 397.380 168.400,397.200 167.601,397.200 166.624 C 397.200 165.647,397.020 164.736,396.800 164.600 C 396.580 164.464,396.400 163.553,396.400 162.576 C 396.400 161.599,396.220 160.800,396.000 160.800 C 395.780 160.800,395.600 160.080,395.600 159.200 C 395.600 158.320,395.420 157.600,395.200 157.600 C 394.980 157.600,394.800 157.006,394.800 156.280 C 394.800 155.554,394.629 154.789,394.419 154.579 C 394.210 154.370,393.993 153.524,393.937 152.699 C 393.882 151.875,393.693 151.200,393.518 151.200 C 393.343 151.200,393.200 150.480,393.200 149.600 C 393.200 148.720,393.020 148.000,392.800 148.000 C 392.580 148.000,392.400 147.460,392.400 146.800 C 392.400 146.140,392.244 145.600,392.054 145.600 C 391.864 145.600,391.594 144.763,391.454 143.740 C 391.314 142.718,391.019 141.664,390.800 141.400 C 390.580 141.135,390.361 140.442,390.313 139.860 C 390.263 139.257,389.983 138.800,389.663 138.800 C 389.251 138.800,389.164 138.478,389.340 137.600 C 389.475 136.923,389.410 136.400,389.190 136.400 C 388.976 136.400,388.800 135.860,388.800 135.200 C 388.800 134.540,388.620 134.000,388.400 134.000 C 388.180 134.000,388.000 133.640,388.000 133.200 C 388.000 132.728,387.733 132.400,387.350 132.400 C 386.839 132.400,386.752 132.140,386.944 131.180 C 387.095 130.424,387.038 130.053,386.794 130.204 C 386.575 130.339,386.400 130.002,386.400 129.447 C 386.400 128.897,386.220 128.336,386.000 128.200 C 385.780 128.064,385.600 127.513,385.600 126.976 C 385.600 126.409,385.391 126.042,385.100 126.100 C 384.825 126.155,384.600 125.930,384.600 125.600 C 384.600 125.270,384.373 124.760,384.096 124.468 C 383.819 124.175,383.695 123.770,383.820 123.568 C 383.945 123.365,383.857 123.200,383.624 123.200 C 383.391 123.200,383.200 122.660,383.200 122.000 C 383.200 121.340,383.065 120.799,382.900 120.797 C 382.541 120.793,381.600 118.856,381.600 118.120 C 381.600 117.834,381.420 117.600,381.200 117.600 C 380.980 117.600,380.800 117.330,380.800 117.000 C 380.800 116.670,380.620 116.400,380.400 116.400 C 380.180 116.400,380.000 116.040,380.000 115.600 C 380.000 115.160,379.820 114.800,379.600 114.800 C 379.380 114.800,379.200 114.339,379.200 113.776 C 379.200 113.196,379.027 112.860,378.800 113.000 C 378.572 113.141,378.400 112.796,378.400 112.200 C 378.400 111.604,378.228 111.259,378.000 111.400 C 377.771 111.542,377.600 111.182,377.600 110.557 C 377.600 109.957,377.489 109.578,377.352 109.714 C 376.997 110.069,376.000 108.974,376.000 108.229 C 376.000 107.883,375.820 107.600,375.600 107.600 C 375.380 107.600,375.199 107.285,375.198 106.900 C 375.196 106.515,374.926 105.684,374.598 105.054 C 374.269 104.424,374.000 103.702,374.000 103.450 C 374.000 103.199,373.640 102.768,373.200 102.493 C 372.760 102.218,372.400 101.712,372.400 101.368 C 372.400 100.592,371.328 99.474,370.861 99.762 C 370.671 99.880,370.606 99.504,370.716 98.928 C 370.854 98.207,370.774 97.969,370.458 98.164 C 370.160 98.349,370.000 98.091,370.000 97.424 C 370.000 96.818,369.796 96.441,369.500 96.500 C 369.225 96.555,369.045 96.375,369.100 96.100 C 369.155 95.825,369.020 95.600,368.800 95.600 C 368.580 95.600,368.400 95.221,368.400 94.757 C 368.400 94.186,368.214 93.986,367.820 94.137 C 367.433 94.285,367.315 94.167,367.463 93.780 C 367.596 93.432,367.445 93.200,367.086 93.200 C 366.756 93.200,366.374 92.750,366.236 92.200 C 366.098 91.650,365.808 91.200,365.592 91.200 C 365.377 91.200,365.200 90.917,365.200 90.571 C 365.200 89.826,364.203 88.731,363.848 89.086 C 363.711 89.222,363.600 89.033,363.600 88.667 C 363.600 88.300,363.420 88.000,363.200 88.000 C 362.980 88.000,362.800 87.680,362.800 87.288 C 362.800 86.897,362.440 86.317,362.000 86.000 C 361.560 85.683,361.200 85.175,361.200 84.872 C 361.200 84.569,360.660 83.817,360.000 83.200 C 359.340 82.583,358.798 81.926,358.797 81.740 C 358.795 81.553,358.165 80.737,357.397 79.927 C 356.628 79.116,356.000 78.244,356.000 77.987 C 356.000 77.731,355.100 76.639,354.000 75.562 C 352.900 74.485,352.000 73.426,352.000 73.209 C 352.000 72.992,350.830 71.645,349.400 70.215 C 347.970 68.785,346.800 67.714,346.800 67.836 C 346.800 67.958,346.530 67.787,346.200 67.457 C 345.870 67.127,345.600 66.654,345.600 66.405 C 345.600 66.156,345.420 66.064,345.200 66.200 C 344.980 66.336,344.800 66.253,344.800 66.017 C 344.800 65.780,344.215 64.976,343.500 64.230 C 342.785 63.484,342.020 62.673,341.800 62.428 C 340.779 61.290,339.227 60.106,339.025 60.309 C 338.901 60.432,338.800 60.277,338.800 59.964 C 338.800 59.309,336.199 56.800,335.520 56.800 C 335.271 56.800,335.175 56.692,335.307 56.560 C 335.609 56.257,332.091 52.805,331.463 52.787 C 330.953 52.773,329.262 51.600,329.752 51.600 C 329.920 51.600,329.787 51.330,329.457 51.000 C 329.127 50.670,328.634 50.400,328.362 50.400 C 328.090 50.400,327.978 50.289,328.114 50.152 C 328.434 49.832,327.406 48.800,326.767 48.800 C 326.497 48.800,325.591 48.080,324.754 47.200 C 323.917 46.320,323.047 45.600,322.821 45.600 C 322.228 45.600,320.800 44.304,320.800 43.767 C 320.800 43.489,320.385 43.390,319.741 43.513 C 319.009 43.653,318.769 43.574,318.964 43.258 C 319.132 42.986,318.984 42.800,318.600 42.800 C 318.244 42.800,318.064 42.620,318.200 42.400 C 318.342 42.171,317.982 42.000,317.357 42.000 C 316.757 42.000,316.376 41.891,316.509 41.758 C 316.845 41.422,314.963 39.600,314.280 39.600 C 313.974 39.600,313.398 39.240,313.000 38.800 C 312.602 38.360,312.035 38.000,311.741 38.000 C 311.447 38.000,310.982 37.640,310.707 37.200 C 310.432 36.760,309.891 36.400,309.504 36.400 C 309.117 36.400,308.800 36.209,308.800 35.976 C 308.800 35.743,308.622 35.663,308.405 35.797 C 308.170 35.942,308.116 35.764,308.270 35.362 C 308.486 34.799,308.344 34.717,307.442 34.890 C 306.630 35.045,306.407 34.959,306.564 34.549 C 306.693 34.213,306.504 34.000,306.076 34.000 C 305.691 34.000,305.117 33.640,304.800 33.200 C 304.483 32.760,303.905 32.400,303.515 32.400 C 303.126 32.400,302.582 32.040,302.307 31.600 C 302.032 31.160,301.390 30.800,300.880 30.800 C 300.364 30.800,300.062 30.623,300.200 30.400 C 300.336 30.180,300.109 30.000,299.695 30.000 C 298.874 30.000,294.283 27.654,294.066 27.123 C 293.992 26.943,293.766 26.898,293.563 27.023 C 293.360 27.148,293.091 26.981,292.964 26.651 C 292.837 26.321,292.479 26.148,292.167 26.268 C 291.827 26.399,291.600 26.236,291.600 25.861 C 291.600 25.464,291.090 25.141,290.200 24.974 C 289.430 24.829,288.800 24.551,288.800 24.355 C 288.800 24.160,288.350 24.000,287.800 24.000 C 287.250 24.000,286.800 23.820,286.800 23.600 C 286.800 23.380,286.350 23.200,285.800 23.200 C 285.250 23.200,284.800 23.020,284.800 22.800 C 284.800 22.580,284.566 22.400,284.280 22.400 C 283.544 22.400,281.607 21.459,281.603 21.100 C 281.601 20.935,281.366 20.800,281.080 20.800 C 280.344 20.800,278.407 19.859,278.403 19.500 C 278.401 19.335,277.860 19.200,277.200 19.200 C 276.540 19.200,276.000 19.020,276.000 18.800 C 276.000 18.580,275.629 18.400,275.176 18.400 C 274.723 18.400,274.464 18.220,274.600 18.000 C 274.744 17.767,274.337 17.600,273.624 17.600 C 272.951 17.600,272.400 17.459,272.400 17.287 C 272.400 17.115,271.913 16.934,271.318 16.885 C 270.722 16.836,270.056 16.616,269.838 16.398 C 269.619 16.179,269.105 16.000,268.696 16.000 C 268.287 16.000,268.064 15.820,268.200 15.600 C 268.347 15.362,267.871 15.200,267.024 15.200 C 266.241 15.200,265.600 15.020,265.600 14.800 C 265.600 14.580,265.150 14.400,264.600 14.400 C 264.050 14.400,263.600 14.220,263.600 14.000 C 263.600 13.780,263.060 13.600,262.400 13.600 C 261.740 13.600,261.200 13.457,261.200 13.282 C 261.200 13.107,260.525 12.919,259.700 12.864 C 258.875 12.810,258.140 12.593,258.067 12.382 C 257.993 12.172,257.498 12.000,256.967 12.000 C 256.435 12.000,256.000 11.840,256.000 11.644 C 256.000 11.448,255.325 11.173,254.500 11.032 C 250.898 10.419,250.400 10.297,250.400 10.031 C 250.400 9.876,249.545 9.706,248.500 9.653 C 247.455 9.600,246.553 9.427,246.497 9.268 C 246.440 9.109,245.675 9.048,244.797 9.132 C 243.806 9.226,243.200 9.116,243.200 8.842 C 243.200 8.578,242.393 8.400,241.200 8.400 C 240.100 8.400,239.200 8.220,239.200 8.000 C 239.200 7.777,238.125 7.600,236.776 7.600 C 235.263 7.600,234.446 7.450,234.600 7.200 C 234.754 6.950,233.937 6.800,232.424 6.800 C 231.075 6.800,230.000 6.623,230.000 6.400 C 230.000 6.167,228.667 6.000,226.800 6.000 C 224.933 6.000,223.600 5.833,223.600 5.600 C 223.600 5.359,221.933 5.200,219.400 5.200 C 216.867 5.200,215.200 5.041,215.200 4.800 C 215.200 4.540,209.867 4.400,200.000 4.400 C 190.133 4.400,184.800 4.540,184.800 4.800 " stroke="none" fill="#bc9c14" fill-rule="evenodd"></path><path id="path1" d="M154.705 9.083 C 155.202 9.179,155.922 9.175,156.305 9.075 C 156.687 8.975,156.280 8.896,155.400 8.901 C 154.520 8.905,154.207 8.987,154.705 9.083 M243.905 9.083 C 244.402 9.179,245.122 9.175,245.505 9.075 C 245.887 8.975,245.480 8.896,244.600 8.901 C 243.720 8.905,243.407 8.987,243.905 9.083 M97.660 31.442 C 97.362 31.778,97.199 32.132,97.295 32.229 C 97.392 32.326,97.798 32.044,98.198 31.602 C 98.597 31.161,98.761 30.807,98.562 30.815 C 98.363 30.824,97.957 31.105,97.660 31.442 M357.600 80.200 C 358.494 81.151,358.800 81.371,358.800 81.061 C 358.800 80.753,357.284 79.200,356.983 79.200 C 356.806 79.200,357.083 79.650,357.600 80.200 M108.900 89.491 C 109.725 89.578,110.400 89.817,110.400 90.024 C 110.400 90.231,110.602 90.400,110.849 90.400 C 111.159 90.400,111.144 90.215,110.800 89.800 C 110.501 89.439,109.724 89.227,108.851 89.267 L 107.400 89.334 108.900 89.491 M288.667 89.467 C 288.520 89.613,288.403 89.928,288.406 90.167 C 288.410 90.451,288.514 90.441,288.707 90.136 C 288.870 89.881,289.542 89.593,290.201 89.496 L 291.400 89.320 290.167 89.260 C 289.488 89.227,288.813 89.320,288.667 89.467 M308.711 103.300 C 308.928 106.102,309.104 106.341,309.154 103.900 C 309.179 102.635,309.060 101.600,308.889 101.600 C 308.719 101.600,308.638 102.365,308.711 103.300 M89.366 117.600 C 89.366 121.670,89.425 123.335,89.498 121.300 C 89.571 119.265,89.571 115.935,89.498 113.900 C 89.425 111.865,89.366 113.530,89.366 117.600 M308.909 131.600 C 308.909 132.590,308.987 132.995,309.082 132.500 C 309.178 132.005,309.178 131.195,309.082 130.700 C 308.987 130.205,308.909 130.610,308.909 131.600 M8.901 141.800 C 8.905 142.680,8.987 142.993,9.083 142.495 C 9.179 141.998,9.175 141.278,9.075 140.895 C 8.975 140.513,8.896 140.920,8.901 141.800 M325.200 181.151 C 325.200 181.398,325.373 181.600,325.585 181.600 C 325.797 181.600,326.029 183.265,326.102 185.300 L 326.234 189.000 326.317 185.349 C 326.381 182.516,326.266 181.586,325.800 181.200 C 325.385 180.856,325.200 180.841,325.200 181.151 M326.151 207.600 C 326.151 210.130,326.216 211.165,326.296 209.900 C 326.375 208.635,326.375 206.565,326.296 205.300 C 326.216 204.035,326.151 205.070,326.151 207.600 M306.600 261.732 C 306.380 262.007,305.844 262.675,305.409 263.216 C 304.968 263.764,305.278 263.589,306.109 262.822 C 306.929 262.063,307.600 261.388,307.600 261.322 C 307.600 261.017,306.961 261.279,306.600 261.732 M8.854 267.900 C 8.813 268.894,8.965 269.199,9.500 269.194 C 9.950 269.190,10.036 269.083,9.740 268.894 C 9.488 268.732,9.197 268.150,9.095 267.600 C 8.937 266.753,8.901 266.799,8.854 267.900 M389.115 272.800 C 389.018 273.460,389.087 274.000,389.269 274.000 C 389.451 274.000,389.600 273.460,389.600 272.800 C 389.600 272.140,389.530 271.600,389.445 271.600 C 389.360 271.600,389.212 272.140,389.115 272.800 M287.640 276.900 C 287.111 277.761,287.119 277.772,287.843 277.152 C 288.260 276.796,288.870 276.405,289.200 276.284 C 289.628 276.126,289.570 276.054,288.996 276.032 C 288.554 276.014,287.944 276.405,287.640 276.900 M157.560 291.722 C 157.738 291.899,158.945 291.986,160.242 291.917 L 162.600 291.790 159.918 291.595 C 158.443 291.488,157.382 291.545,157.560 291.722 M240.000 291.600 L 237.400 291.862 240.100 291.931 C 241.679 291.971,242.800 291.834,242.800 291.600 C 242.800 291.380,242.755 291.231,242.700 291.269 C 242.645 291.307,241.430 291.456,240.000 291.600 M248.128 319.200 C 248.128 320.630,248.201 321.215,248.289 320.500 C 248.378 319.785,248.378 318.615,248.289 317.900 C 248.201 317.185,248.128 317.770,248.128 319.200 M86.800 331.152 C 86.800 331.542,88.355 332.998,88.523 332.764 C 88.587 332.674,88.226 332.201,87.720 331.714 C 87.214 331.227,86.800 330.974,86.800 331.152 M116.291 348.289 C 117.001 348.377,118.261 348.379,119.091 348.292 C 119.921 348.205,119.340 348.133,117.800 348.131 C 116.260 348.129,115.581 348.200,116.291 348.289 M142.700 348.289 C 143.415 348.378,144.585 348.378,145.300 348.289 C 146.015 348.201,145.430 348.128,144.000 348.128 C 142.570 348.128,141.985 348.201,142.700 348.289 " stroke="none" fill="#c09c14" fill-rule="evenodd"></path><path id="path2" d="M154.705 9.083 C 155.202 9.179,155.922 9.175,156.305 9.075 C 156.687 8.975,156.280 8.896,155.400 8.901 C 154.520 8.905,154.207 8.987,154.705 9.083 M243.905 9.083 C 244.402 9.179,245.122 9.175,245.505 9.075 C 245.887 8.975,245.480 8.896,244.600 8.901 C 243.720 8.905,243.407 8.987,243.905 9.083 M97.660 31.442 C 97.362 31.778,97.199 32.132,97.295 32.229 C 97.392 32.326,97.798 32.044,98.198 31.602 C 98.597 31.161,98.761 30.807,98.562 30.815 C 98.363 30.824,97.957 31.105,97.660 31.442 M357.600 80.200 C 358.494 81.151,358.800 81.371,358.800 81.061 C 358.800 80.753,357.284 79.200,356.983 79.200 C 356.806 79.200,357.083 79.650,357.600 80.200 M108.900 89.491 C 109.725 89.578,110.400 89.817,110.400 90.024 C 110.400 90.231,110.602 90.400,110.849 90.400 C 111.159 90.400,111.144 90.215,110.800 89.800 C 110.501 89.439,109.724 89.227,108.851 89.267 L 107.400 89.334 108.900 89.491 M288.667 89.467 C 288.520 89.613,288.403 89.928,288.406 90.167 C 288.410 90.451,288.514 90.441,288.707 90.136 C 288.870 89.881,289.542 89.593,290.201 89.496 L 291.400 89.320 290.167 89.260 C 289.488 89.227,288.813 89.320,288.667 89.467 M308.711 103.300 C 308.928 106.102,309.104 106.341,309.154 103.900 C 309.179 102.635,309.060 101.600,308.889 101.600 C 308.719 101.600,308.638 102.365,308.711 103.300 M89.366 117.600 C 89.366 121.670,89.425 123.335,89.498 121.300 C 89.571 119.265,89.571 115.935,89.498 113.900 C 89.425 111.865,89.366 113.530,89.366 117.600 M308.909 131.600 C 308.909 132.590,308.987 132.995,309.082 132.500 C 309.178 132.005,309.178 131.195,309.082 130.700 C 308.987 130.205,308.909 130.610,308.909 131.600 M8.901 141.800 C 8.905 142.680,8.987 142.993,9.083 142.495 C 9.179 141.998,9.175 141.278,9.075 140.895 C 8.975 140.513,8.896 140.920,8.901 141.800 M325.200 181.151 C 325.200 181.398,325.373 181.600,325.585 181.600 C 325.797 181.600,326.029 183.265,326.102 185.300 L 326.234 189.000 326.317 185.349 C 326.381 182.516,326.266 181.586,325.800 181.200 C 325.385 180.856,325.200 180.841,325.200 181.151 M326.151 207.600 C 326.151 210.130,326.216 211.165,326.296 209.900 C 326.375 208.635,326.375 206.565,326.296 205.300 C 326.216 204.035,326.151 205.070,326.151 207.600 M306.600 261.732 C 306.380 262.007,305.844 262.675,305.409 263.216 C 304.968 263.764,305.278 263.589,306.109 262.822 C 306.929 262.063,307.600 261.388,307.600 261.322 C 307.600 261.017,306.961 261.279,306.600 261.732 M8.854 267.900 C 8.813 268.894,8.965 269.199,9.500 269.194 C 9.950 269.190,10.036 269.083,9.740 268.894 C 9.488 268.732,9.197 268.150,9.095 267.600 C 8.937 266.753,8.901 266.799,8.854 267.900 M389.115 272.800 C 389.018 273.460,389.087 274.000,389.269 274.000 C 389.451 274.000,389.600 273.460,389.600 272.800 C 389.600 272.140,389.530 271.600,389.445 271.600 C 389.360 271.600,389.212 272.140,389.115 272.800 M287.640 276.900 C 287.111 277.761,287.119 277.772,287.843 277.152 C 288.260 276.796,288.870 276.405,289.200 276.284 C 289.628 276.126,289.570 276.054,288.996 276.032 C 288.554 276.014,287.944 276.405,287.640 276.900 M157.560 291.722 C 157.738 291.899,158.945 291.986,160.242 291.917 L 162.600 291.790 159.918 291.595 C 158.443 291.488,157.382 291.545,157.560 291.722 M240.000 291.600 L 237.400 291.862 240.100 291.931 C 241.679 291.971,242.800 291.834,242.800 291.600 C 242.800 291.380,242.755 291.231,242.700 291.269 C 242.645 291.307,241.430 291.456,240.000 291.600 M248.128 319.200 C 248.128 320.630,248.201 321.215,248.289 320.500 C 248.378 319.785,248.378 318.615,248.289 317.900 C 248.201 317.185,248.128 317.770,248.128 319.200 M86.800 331.152 C 86.800 331.542,88.355 332.998,88.523 332.764 C 88.587 332.674,88.226 332.201,87.720 331.714 C 87.214 331.227,86.800 330.974,86.800 331.152 M116.291 348.289 C 117.001 348.377,118.261 348.379,119.091 348.292 C 119.921 348.205,119.340 348.133,117.800 348.131 C 116.260 348.129,115.581 348.200,116.291 348.289 M142.700 348.289 C 143.415 348.378,144.585 348.378,145.300 348.289 C 146.015 348.201,145.430 348.128,144.000 348.128 C 142.570 348.128,141.985 348.201,142.700 348.289 " stroke="none" fill="#c09c14" fill-rule="evenodd"></path><path id="path3" d="M154.705 9.083 C 155.202 9.179,155.922 9.175,156.305 9.075 C 156.687 8.975,156.280 8.896,155.400 8.901 C 154.520 8.905,154.207 8.987,154.705 9.083 M243.905 9.083 C 244.402 9.179,245.122 9.175,245.505 9.075 C 245.887 8.975,245.480 8.896,244.600 8.901 C 243.720 8.905,243.407 8.987,243.905 9.083 M97.660 31.442 C 97.362 31.778,97.199 32.132,97.295 32.229 C 97.392 32.326,97.798 32.044,98.198 31.602 C 98.597 31.161,98.761 30.807,98.562 30.815 C 98.363 30.824,97.957 31.105,97.660 31.442 M357.600 80.200 C 358.494 81.151,358.800 81.371,358.800 81.061 C 358.800 80.753,357.284 79.200,356.983 79.200 C 356.806 79.200,357.083 79.650,357.600 80.200 M108.900 89.491 C 109.725 89.578,110.400 89.817,110.400 90.024 C 110.400 90.231,110.602 90.400,110.849 90.400 C 111.159 90.400,111.144 90.215,110.800 89.800 C 110.501 89.439,109.724 89.227,108.851 89.267 L 107.400 89.334 108.900 89.491 M288.667 89.467 C 288.520 89.613,288.403 89.928,288.406 90.167 C 288.410 90.451,288.514 90.441,288.707 90.136 C 288.870 89.881,289.542 89.593,290.201 89.496 L 291.400 89.320 290.167 89.260 C 289.488 89.227,288.813 89.320,288.667 89.467 M308.711 103.300 C 308.928 106.102,309.104 106.341,309.154 103.900 C 309.179 102.635,309.060 101.600,308.889 101.600 C 308.719 101.600,308.638 102.365,308.711 103.300 M89.366 117.600 C 89.366 121.670,89.425 123.335,89.498 121.300 C 89.571 119.265,89.571 115.935,89.498 113.900 C 89.425 111.865,89.366 113.530,89.366 117.600 M308.909 131.600 C 308.909 132.590,308.987 132.995,309.082 132.500 C 309.178 132.005,309.178 131.195,309.082 130.700 C 308.987 130.205,308.909 130.610,308.909 131.600 M8.901 141.800 C 8.905 142.680,8.987 142.993,9.083 142.495 C 9.179 141.998,9.175 141.278,9.075 140.895 C 8.975 140.513,8.896 140.920,8.901 141.800 M325.200 181.151 C 325.200 181.398,325.373 181.600,325.585 181.600 C 325.797 181.600,326.029 183.265,326.102 185.300 L 326.234 189.000 326.317 185.349 C 326.381 182.516,326.266 181.586,325.800 181.200 C 325.385 180.856,325.200 180.841,325.200 181.151 M326.151 207.600 C 326.151 210.130,326.216 211.165,326.296 209.900 C 326.375 208.635,326.375 206.565,326.296 205.300 C 326.216 204.035,326.151 205.070,326.151 207.600 M306.600 261.732 C 306.380 262.007,305.844 262.675,305.409 263.216 C 304.968 263.764,305.278 263.589,306.109 262.822 C 306.929 262.063,307.600 261.388,307.600 261.322 C 307.600 261.017,306.961 261.279,306.600 261.732 M8.854 267.900 C 8.813 268.894,8.965 269.199,9.500 269.194 C 9.950 269.190,10.036 269.083,9.740 268.894 C 9.488 268.732,9.197 268.150,9.095 267.600 C 8.937 266.753,8.901 266.799,8.854 267.900 M389.115 272.800 C 389.018 273.460,389.087 274.000,389.269 274.000 C 389.451 274.000,389.600 273.460,389.600 272.800 C 389.600 272.140,389.530 271.600,389.445 271.600 C 389.360 271.600,389.212 272.140,389.115 272.800 M287.640 276.900 C 287.111 277.761,287.119 277.772,287.843 277.152 C 288.260 276.796,288.870 276.405,289.200 276.284 C 289.628 276.126,289.570 276.054,288.996 276.032 C 288.554 276.014,287.944 276.405,287.640 276.900 M157.560 291.722 C 157.738 291.899,158.945 291.986,160.242 291.917 L 162.600 291.790 159.918 291.595 C 158.443 291.488,157.382 291.545,157.560 291.722 M240.000 291.600 L 237.400 291.862 240.100 291.931 C 241.679 291.971,242.800 291.834,242.800 291.600 C 242.800 291.380,242.755 291.231,242.700 291.269 C 242.645 291.307,241.430 291.456,240.000 291.600 M248.128 319.200 C 248.128 320.630,248.201 321.215,248.289 320.500 C 248.378 319.785,248.378 318.615,248.289 317.900 C 248.201 317.185,248.128 317.770,248.128 319.200 M86.800 331.152 C 86.800 331.542,88.355 332.998,88.523 332.764 C 88.587 332.674,88.226 332.201,87.720 331.714 C 87.214 331.227,86.800 330.974,86.800 331.152 M116.291 348.289 C 117.001 348.377,118.261 348.379,119.091 348.292 C 119.921 348.205,119.340 348.133,117.800 348.131 C 116.260 348.129,115.581 348.200,116.291 348.289 M142.700 348.289 C 143.415 348.378,144.585 348.378,145.300 348.289 C 146.015 348.201,145.430 348.128,144.000 348.128 C 142.570 348.128,141.985 348.201,142.700 348.289 " stroke="none" fill="#c09c14" fill-rule="evenodd"></path><path id="path4" d="M154.705 9.083 C 155.202 9.179,155.922 9.175,156.305 9.075 C 156.687 8.975,156.280 8.896,155.400 8.901 C 154.520 8.905,154.207 8.987,154.705 9.083 M243.905 9.083 C 244.402 9.179,245.122 9.175,245.505 9.075 C 245.887 8.975,245.480 8.896,244.600 8.901 C 243.720 8.905,243.407 8.987,243.905 9.083 M97.660 31.442 C 97.362 31.778,97.199 32.132,97.295 32.229 C 97.392 32.326,97.798 32.044,98.198 31.602 C 98.597 31.161,98.761 30.807,98.562 30.815 C 98.363 30.824,97.957 31.105,97.660 31.442 M357.600 80.200 C 358.494 81.151,358.800 81.371,358.800 81.061 C 358.800 80.753,357.284 79.200,356.983 79.200 C 356.806 79.200,357.083 79.650,357.600 80.200 M108.900 89.491 C 109.725 89.578,110.400 89.817,110.400 90.024 C 110.400 90.231,110.602 90.400,110.849 90.400 C 111.159 90.400,111.144 90.215,110.800 89.800 C 110.501 89.439,109.724 89.227,108.851 89.267 L 107.400 89.334 108.900 89.491 M288.667 89.467 C 288.520 89.613,288.403 89.928,288.406 90.167 C 288.410 90.451,288.514 90.441,288.707 90.136 C 288.870 89.881,289.542 89.593,290.201 89.496 L 291.400 89.320 290.167 89.260 C 289.488 89.227,288.813 89.320,288.667 89.467 M308.711 103.300 C 308.928 106.102,309.104 106.341,309.154 103.900 C 309.179 102.635,309.060 101.600,308.889 101.600 C 308.719 101.600,308.638 102.365,308.711 103.300 M89.366 117.600 C 89.366 121.670,89.425 123.335,89.498 121.300 C 89.571 119.265,89.571 115.935,89.498 113.900 C 89.425 111.865,89.366 113.530,89.366 117.600 M308.909 131.600 C 308.909 132.590,308.987 132.995,309.082 132.500 C 309.178 132.005,309.178 131.195,309.082 130.700 C 308.987 130.205,308.909 130.610,308.909 131.600 M8.901 141.800 C 8.905 142.680,8.987 142.993,9.083 142.495 C 9.179 141.998,9.175 141.278,9.075 140.895 C 8.975 140.513,8.896 140.920,8.901 141.800 M325.200 181.151 C 325.200 181.398,325.373 181.600,325.585 181.600 C 325.797 181.600,326.029 183.265,326.102 185.300 L 326.234 189.000 326.317 185.349 C 326.381 182.516,326.266 181.586,325.800 181.200 C 325.385 180.856,325.200 180.841,325.200 181.151 M326.151 207.600 C 326.151 210.130,326.216 211.165,326.296 209.900 C 326.375 208.635,326.375 206.565,326.296 205.300 C 326.216 204.035,326.151 205.070,326.151 207.600 M306.600 261.732 C 306.380 262.007,305.844 262.675,305.409 263.216 C 304.968 263.764,305.278 263.589,306.109 262.822 C 306.929 262.063,307.600 261.388,307.600 261.322 C 307.600 261.017,306.961 261.279,306.600 261.732 M8.854 267.900 C 8.813 268.894,8.965 269.199,9.500 269.194 C 9.950 269.190,10.036 269.083,9.740 268.894 C 9.488 268.732,9.197 268.150,9.095 267.600 C 8.937 266.753,8.901 266.799,8.854 267.900 M389.115 272.800 C 389.018 273.460,389.087 274.000,389.269 274.000 C 389.451 274.000,389.600 273.460,389.600 272.800 C 389.600 272.140,389.530 271.600,389.445 271.600 C 389.360 271.600,389.212 272.140,389.115 272.800 M287.640 276.900 C 287.111 277.761,287.119 277.772,287.843 277.152 C 288.260 276.796,288.870 276.405,289.200 276.284 C 289.628 276.126,289.570 276.054,288.996 276.032 C 288.554 276.014,287.944 276.405,287.640 276.900 M157.560 291.722 C 157.738 291.899,158.945 291.986,160.242 291.917 L 162.600 291.790 159.918 291.595 C 158.443 291.488,157.382 291.545,157.560 291.722 M240.000 291.600 L 237.400 291.862 240.100 291.931 C 241.679 291.971,242.800 291.834,242.800 291.600 C 242.800 291.380,242.755 291.231,242.700 291.269 C 242.645 291.307,241.430 291.456,240.000 291.600 M248.128 319.200 C 248.128 320.630,248.201 321.215,248.289 320.500 C 248.378 319.785,248.378 318.615,248.289 317.900 C 248.201 317.185,248.128 317.770,248.128 319.200 M86.800 331.152 C 86.800 331.542,88.355 332.998,88.523 332.764 C 88.587 332.674,88.226 332.201,87.720 331.714 C 87.214 331.227,86.800 330.974,86.800 331.152 M116.291 348.289 C 117.001 348.377,118.261 348.379,119.091 348.292 C 119.921 348.205,119.340 348.133,117.800 348.131 C 116.260 348.129,115.581 348.200,116.291 348.289 M142.700 348.289 C 143.415 348.378,144.585 348.378,145.300 348.289 C 146.015 348.201,145.430 348.128,144.000 348.128 C 142.570 348.128,141.985 348.201,142.700 348.289 " stroke="none" fill="#c09c14" fill-rule="evenodd"></path></g></svg>