<?xml version="1.0" encoding="UTF-8" standalone="no"?>
<svg
   id="svg"
   version="1.1"
   width="400"
   height="402.1276595744681"
   viewBox="0, 0, 400,402.1276595744681"
   sodipodi:docname="hmc_logo.svg"
   inkscape:version="1.1.1 (3bf5ae0, 2021-09-20)"
   xmlns:inkscape="http://www.inkscape.org/namespaces/inkscape"
   xmlns:sodipodi="http://sodipodi.sourceforge.net/DTD/sodipodi-0.dtd"
   xmlns="http://www.w3.org/2000/svg"
   xmlns:svg="http://www.w3.org/2000/svg">
  <defs
     id="defs11">
    <inkscape:path-effect
       effect="powerstroke"
       id="path-effect56538"
       is_visible="true"
       lpeversion="1"
       offset_points="2.0252186,1.2352052"
       not_jump="false"
       sort_points="true"
       interpolator_type="CentripetalCatmullRom"
       interpolator_beta="0.2"
       start_linecap_type="zerowidth"
       linejoin_type="round"
       miter_limit="4"
       scale_width="1"
       end_linecap_type="zerowidth" />
    <inkscape:path-effect
       effect="powerstroke"
       id="path-effect52759"
       is_visible="true"
       lpeversion="1"
       offset_points="0.16891323,2.0078163 | 0.49358465,2.2054735 | 0.84975864,1.3724324"
       not_jump="false"
       sort_points="true"
       interpolator_type="CentripetalCatmullRom"
       interpolator_beta="0.2"
       start_linecap_type="zerowidth"
       linejoin_type="round"
       miter_limit="4"
       scale_width="1"
       end_linecap_type="zerowidth" />
    <inkscape:path-effect
       effect="powerstroke"
       id="path-effect52757"
       is_visible="true"
       lpeversion="1"
       offset_points="0.26926196,1.8505745 | 1.4913042,2.1472816 | 1.7979077,1.2567407"
       not_jump="false"
       sort_points="true"
       interpolator_type="CentripetalCatmullRom"
       interpolator_beta="0.2"
       start_linecap_type="zerowidth"
       linejoin_type="round"
       miter_limit="4"
       scale_width="1"
       end_linecap_type="zerowidth" />
    <inkscape:path-effect
       effect="powerstroke"
       id="path-effect52755"
       is_visible="true"
       lpeversion="1"
       offset_points="0.20732796,1.6351028 | 0.51423492,2.5697296 | 0.85458697,1.5368576"
       not_jump="false"
       sort_points="true"
       interpolator_type="CentripetalCatmullRom"
       interpolator_beta="0.2"
       start_linecap_type="zerowidth"
       linejoin_type="round"
       miter_limit="4"
       scale_width="1"
       end_linecap_type="zerowidth" />
    <inkscape:path-effect
       effect="powerstroke"
       id="path-effect52753"
       is_visible="true"
       lpeversion="1"
       offset_points="0.21064568,1.3403507 | 1,2.7950001 | 1.7923964,1.1003112"
       not_jump="false"
       sort_points="true"
       interpolator_type="CentripetalCatmullRom"
       interpolator_beta="0.2"
       start_linecap_type="zerowidth"
       linejoin_type="round"
       miter_limit="4"
       scale_width="1"
       end_linecap_type="zerowidth" />
    <inkscape:path-effect
       effect="powerstroke"
       id="path-effect52751"
       is_visible="true"
       lpeversion="1"
       offset_points="0.37068911,0.97918407 | 1.099131,3.1228634 | 1.8259162,1.7222923"
       not_jump="false"
       sort_points="true"
       interpolator_type="CentripetalCatmullRom"
       interpolator_beta="0.2"
       start_linecap_type="zerowidth"
       linejoin_type="round"
       miter_limit="4"
       scale_width="1"
       end_linecap_type="zerowidth" />
    <inkscape:path-effect
       effect="powerstroke"
       id="path-effect52749"
       is_visible="true"
       lpeversion="1"
       offset_points="0.029130497,0.78579392 | 0.52087475,2.7890907 | 0.97555254,1.1878213"
       not_jump="false"
       sort_points="true"
       interpolator_type="CentripetalCatmullRom"
       interpolator_beta="0.2"
       start_linecap_type="zerowidth"
       linejoin_type="round"
       miter_limit="4"
       scale_width="1"
       end_linecap_type="zerowidth" />
    <inkscape:path-effect
       effect="powerstroke"
       id="path-effect52747"
       is_visible="true"
       lpeversion="1"
       offset_points="0.17257209,0.94229692 | 1.4328625,2.3981933 | 1.830451,0.91032872"
       not_jump="false"
       sort_points="true"
       interpolator_type="CentripetalCatmullRom"
       interpolator_beta="0.2"
       start_linecap_type="zerowidth"
       linejoin_type="round"
       miter_limit="4"
       scale_width="1"
       end_linecap_type="zerowidth" />
    <inkscape:path-effect
       effect="powerstroke"
       id="path-effect52745"
       is_visible="true"
       lpeversion="1"
       offset_points="0.22609859,1.1328242 | 1.1207999,3.1957214 | 1.7188008,1.3451025"
       not_jump="false"
       sort_points="true"
       interpolator_type="CentripetalCatmullRom"
       interpolator_beta="0.2"
       start_linecap_type="zerowidth"
       linejoin_type="round"
       miter_limit="4"
       scale_width="1"
       end_linecap_type="zerowidth" />
    <inkscape:path-effect
       effect="powerstroke"
       id="path-effect52743"
       is_visible="true"
       lpeversion="1"
       offset_points="0.19546725,1.2507302 | 1,2.7950001 | 1.7740149,1.0514918"
       not_jump="false"
       sort_points="true"
       interpolator_type="CentripetalCatmullRom"
       interpolator_beta="0.2"
       start_linecap_type="zerowidth"
       linejoin_type="round"
       miter_limit="4"
       scale_width="1"
       end_linecap_type="zerowidth" />
    <inkscape:path-effect
       effect="powerstroke"
       id="path-effect52741"
       is_visible="true"
       lpeversion="1"
       offset_points="0.24925712,1.9059146 | 0.82269981,2.7480032 | 1.7374905,1.6044022"
       not_jump="false"
       sort_points="true"
       interpolator_type="CentripetalCatmullRom"
       interpolator_beta="0.2"
       start_linecap_type="zerowidth"
       linejoin_type="round"
       miter_limit="4"
       scale_width="1"
       end_linecap_type="zerowidth" />
    <inkscape:path-effect
       effect="powerstroke"
       id="path-effect52739"
       is_visible="true"
       lpeversion="1"
       offset_points="0.24912858,1.3437115 | 1,2.7950001 | 1.9818859,0.58980164"
       not_jump="false"
       sort_points="true"
       interpolator_type="CentripetalCatmullRom"
       interpolator_beta="0.2"
       start_linecap_type="zerowidth"
       linejoin_type="round"
       miter_limit="4"
       scale_width="1"
       end_linecap_type="zerowidth" />
    <inkscape:path-effect
       effect="powerstroke"
       id="path-effect52737"
       is_visible="true"
       lpeversion="1"
       offset_points="0.14352146,0.48058802 | 1.5,2.7950001 | 2.9576876,2.1270227"
       not_jump="false"
       sort_points="true"
       interpolator_type="CentripetalCatmullRom"
       interpolator_beta="0.2"
       start_linecap_type="zerowidth"
       linejoin_type="round"
       miter_limit="4"
       scale_width="1"
       end_linecap_type="zerowidth" />
    <inkscape:path-effect
       effect="powerstroke"
       id="path-effect52735"
       is_visible="true"
       lpeversion="1"
       offset_points="0.0032777496,0.89468463 | 2.0142115,1.8554413 | 3.9947955,1.0403813"
       not_jump="false"
       sort_points="true"
       interpolator_type="CentripetalCatmullRom"
       interpolator_beta="1"
       start_linecap_type="zerowidth"
       linejoin_type="round"
       miter_limit="0"
       scale_width="1"
       end_linecap_type="zerowidth" />
    <inkscape:path-effect
       effect="powerstroke"
       id="path-effect52729"
       is_visible="true"
       lpeversion="1"
       offset_points="2,2.7950001"
       not_jump="false"
       sort_points="true"
       interpolator_type="CentripetalCatmullRom"
       interpolator_beta="0.2"
       start_linecap_type="zerowidth"
       linejoin_type="round"
       miter_limit="4"
       scale_width="1"
       end_linecap_type="zerowidth" />
    <inkscape:path-effect
       effect="powerstroke"
       id="path-effect52727"
       is_visible="true"
       lpeversion="1"
       offset_points="0.02849887,0.70821921 | 2.2,2.7950001 | 4.952274,0.8505996 | 3.8426785,2.7564826"
       not_jump="false"
       sort_points="true"
       interpolator_type="CentripetalCatmullRom"
       interpolator_beta="1"
       start_linecap_type="zerowidth"
       linejoin_type="bevel"
       miter_limit="4"
       scale_width="1"
       end_linecap_type="zerowidth" />
    <inkscape:path-effect
       effect="fill_between_many"
       method="bsplinespiro"
       linkedpaths="#path40387,0,1"
       id="path-effect52731" />
    <inkscape:path-effect
       effect="fill_between_many"
       method="bsplinespiro"
       linkedpaths="#path40387,0,1"
       id="path-effect56540" />
  </defs>
  <sodipodi:namedview
     id="namedview9"
     pagecolor="#ffffff"
     bordercolor="#666666"
     borderopacity="1.0"
     inkscape:pageshadow="2"
     inkscape:pageopacity="0.0"
     inkscape:pagecheckerboard="0"
     showgrid="false"
     inkscape:snap-nodes="false"
     inkscape:zoom="1.1737566"
     inkscape:cx="158.46556"
     inkscape:cy="96.69807"
     inkscape:window-width="1366"
     inkscape:window-height="743"
     inkscape:window-x="0"
     inkscape:window-y="0"
     inkscape:window-maximized="1"
     inkscape:current-layer="svg" />
  <g
     inkscape:groupmode="layer"
     id="layer1"
     inkscape:label="hmc_logo"
     style="display:inline">
    <path
       style="font-variation-settings:normal;opacity:1;fill:#bd9d17;fill-opacity:1;fill-rule:nonzero;stroke:none;stroke-width:5.59;stroke-linecap:round;stroke-linejoin:round;stroke-miterlimit:4;stroke-dasharray:none;stroke-dashoffset:0;stroke-opacity:1;paint-order:normal;stop-color:#000000;stop-opacity:1"
       d="m 93.068403,34.245482 c 0.03633,-0.07082 -0.347119,-0.440637 -2.959406,-1.922473 C 87.51368,30.850799 83.150694,28.538481 77.607937,25.83829 74.63927,24.392084 71.069317,22.68184 67.145871,20.904199 60.422732,17.858067 52.395939,14.493726 44.623595,11.998003 40.90816,10.804965 37.24793,9.8095138 33.810937,9.1426902 30.362854,8.4737151 27.099702,8.1272648 24.188143,8.2575853 a 3.0354944,2.9715236 57.008076 0 0 -1.146191,5.6855267 c 3.445393,1.803786 6.300417,3.438623 8.72608,4.977902 0.635968,0.403573 1.251065,0.806892 1.845301,1.210861 2.746881,1.867364 4.983485,3.704204 6.8272,5.639375 1.760779,1.848121 3.162668,3.783917 4.358738,5.965515 1.209657,2.206383 2.204661,4.656714 3.141764,7.491649 0.981089,2.968 1.890024,6.337498 2.839729,9.960638 1.166346,4.449638 2.135816,8.260475 3.478296,13.037426 0.946258,3.367072 1.90063,6.567141 2.886565,9.658245 3.667633,11.498761 8.028321,21.446196 10.710815,27.828522 -2.190063,-7.084317 -4.606899,-16.642254 -7.388833,-28.739349 -0.730144,-3.174994 -1.4219,-6.310354 -2.139433,-9.743891 -1.106909,-5.296779 -1.634235,-8.149146 -2.641065,-13.173927 -0.733746,-3.661904 -1.48699,-7.242059 -2.367751,-10.44857 -0.846363,-3.081282 -1.844096,-5.955806 -3.191664,-8.650677 -1.349918,-2.699571 -3.011849,-5.141636 -5.138452,-7.445132 -2.206303,-2.389826 -4.825878,-4.534753 -7.87158,-6.574835 -0.659926,-0.442034 -1.338089,-0.877917 -2.033498,-1.308522 -2.646902,-1.63899 -5.718815,-3.298333 -9.333314,-5.0557182 l -1.146189,5.6855272 c 2.298521,-0.232692 5.101301,-0.145326 8.349911,0.252492 3.213632,0.393535 6.732058,1.074369 10.411913,1.959518 7.68732,1.849099 15.831967,4.531203 22.718919,7.034589 4.006195,1.45624 7.68707,2.888734 10.724735,4.12204 5.502984,2.234235 10.274356,4.297137 12.946759,5.414064 2.764864,1.155571 3.267875,1.289669 3.311505,1.204628 z"
       id="path30568"
       sodipodi:nodetypes="ccc"
       inkscape:path-effect="#path-effect52751"
       inkscape:original-d="m 93.068403,34.245482 c 0,0 -47.650041,-24.4468158 -68.672002,-22.987614 34.982895,17.645521 20.487212,25.296261 43.460039,88.455377" />
    <path
       style="font-variation-settings:normal;opacity:1;fill:#bd9d17;fill-opacity:1;fill-rule:nonzero;stroke:none;stroke-width:5.59;stroke-linecap:round;stroke-linejoin:round;stroke-miterlimit:4;stroke-dasharray:none;stroke-dashoffset:0;stroke-opacity:1;paint-order:normal;stop-color:#000000;stop-opacity:1"
       d="m 70.421848,107.51816 c 3.18667,1.05687 7.887893,2.95815 13.934651,5.585 5.949927,2.58479 11.569893,5.40657 16.830291,8.6482 4.69451,2.8929 7.08541,4.91521 7.01377,4.83741 a 3.1049786,2.5662441 62.243729 0 0 1.03788,-4.96062 c 0.17429,-0.0198 -1.07728,0.56479 -4.93597,1.16459 -4.14527,0.64435 -9.268428,1.00066 -14.969698,1.15826 -5.801936,0.16037 -10.704232,0.27835 -14.04223,0.22334 3.007462,0.46051 8.424318,1.41207 13.960343,1.97575 5.675604,0.5779 10.988515,0.91152 15.335135,0.99697 3.97055,0.0781 5.75601,-0.0562 5.92318,-0.0753 a 3.1049718,2.5662469 62.243636 0 0 1.03788,-4.96062 c -0.0716,-0.0778 -2.90922,-1.96243 -8.09242,-4.49142 -5.66277,-2.76298 -11.97704,-5.22295 -18.187889,-7.03801 -6.242091,-1.82418 -11.766625,-2.57864 -14.844923,-3.06358 z"
       id="path40371"
       sodipodi:nodetypes="ccc"
       inkscape:path-effect="#path-effect52753"
       inkscape:original-d="m 70.421848,107.51816 c 25.08114,6.09115 39.451972,16.83181 39.451972,16.83181 0,0 -8.63158,2.01494 -34.583278,-0.17563" />
    <path
       style="font-variation-settings:normal;opacity:1;fill:#bd9d17;fill-opacity:1;fill-rule:nonzero;stroke:none;stroke-width:5.59;stroke-linecap:round;stroke-linejoin:round;stroke-miterlimit:4;stroke-dasharray:none;stroke-dashoffset:0;stroke-opacity:1;paint-order:normal;stop-color:#000000;stop-opacity:1"
       d="m 77.246441,127.27739 c 0.09909,2.06606 0.188571,5.92411 1.059284,9.98972 0.920561,4.29837 2.422947,9.06394 4.710129,13.8223 0.105843,0.2202 0.213048,0.43969 0.321604,0.6584 2.657193,5.35355 6.542109,11.18012 9.987612,15.36038 2.177321,2.64164 4.840071,5.03297 5.920277,6.12493 -0.598402,-1.32191 -1.898769,-4.80706 -3.332401,-7.78343 -2.172517,-4.51037 -5.53649,-11.08269 -7.972135,-15.98731 -0.0054,-0.011 -0.308238,-0.61926 -0.313676,-0.63021 -2.592068,-5.19688 -4.098547,-8.07817 -6.220096,-12.60241 -1.525937,-3.25408 -3.548579,-7.41365 -4.160598,-8.95237 z"
       id="path40373"
       sodipodi:nodetypes="cc"
       inkscape:path-effect="#path-effect52755"
       inkscape:original-d="m 77.246441,127.27739 c 3.33457,15.39968 10.865938,29.77081 21.998906,45.95573" />
    <path
       style="font-variation-settings:normal;opacity:1;fill:#bd9d17;fill-opacity:1;fill-rule:nonzero;stroke:none;stroke-width:5.59;stroke-linecap:round;stroke-linejoin:round;stroke-miterlimit:4;stroke-dasharray:none;stroke-dashoffset:0;stroke-opacity:1;paint-order:normal;stop-color:#000000;stop-opacity:1"
       d="m 100.55226,175.36362 c 3.30945,1.17335 7.78644,3.32327 12.79076,5.58394 2.33572,1.05515 4.43166,2.00555 6.51242,3.13539 3.04593,1.65392 4.23636,2.88297 3.99756,2.58098 a 2.7300607,2.2605913 45.305686 0 0 -0.26857,-3.02821 c 0.17328,-0.23785 0.23543,-0.16019 -0.0724,0.12149 -0.40861,0.3739 -1.12868,0.79654 -2.14719,1.20335 -0.0438,0.0175 -0.088,0.0349 -0.13253,0.0523 -1.59159,0.61954 -3.74425,1.16537 -5.91328,1.5384 -0.51645,0.0888 -1.07148,0.17426 -1.66404,0.25176 -2.74926,0.35957 -7.39881,0.66876 -9.26155,0.64886 2.36761,0.56946 6.01131,1.50401 9.27945,1.86456 0.62526,0.069 1.21532,0.12387 1.77613,0.16506 2.41452,0.17733 4.771,0.13194 6.99528,-0.37323 0.0603,-0.0137 0.12058,-0.0277 0.18072,-0.0421 1.34912,-0.32314 2.61452,-0.8103 3.63081,-1.45913 0.81039,-0.51739 1.25152,-1.00351 1.45683,-1.28533 a 2.7300605,2.2605914 45.305682 0 0 -0.26857,-3.02821 c -0.2856,-0.36117 -1.82094,-1.70872 -5.58285,-3.34549 -2.25501,-0.98113 -4.86356,-1.86599 -7.29531,-2.49364 -5.20019,-1.34222 -10.8871,-1.69437 -14.01366,-2.09066 z"
       id="path40375"
       sodipodi:nodetypes="ccc"
       inkscape:path-effect="#path-effect52757"
       inkscape:original-d="m 100.55226,175.36362 c 20.68782,4.91811 25.09628,9.61505 25.09628,9.61505 0,0 -3.07562,4.72723 -21.25511,2.47317" />
    <path
       style="font-variation-settings:normal;opacity:1;fill:#bd9d17;fill-opacity:1;fill-rule:nonzero;stroke:none;stroke-width:5.59;stroke-linecap:round;stroke-linejoin:round;stroke-miterlimit:4;stroke-dasharray:none;stroke-dashoffset:0;stroke-opacity:1;paint-order:normal;stop-color:#000000;stop-opacity:1"
       d="m 104.42239,188.17193 h 0 c -0.14599,0.0946 -0.41425,0.39507 -0.35842,1.21796 0.0554,0.81582 0.43781,2.07666 1.28984,3.57785 2.25752,3.97749 8.80814,11.97643 18.42194,20.86607 0.17796,0.16456 0.35784,0.33011 0.53961,0.49659 6.97687,6.39011 15.68562,13.17886 25.8158,18.73021 4.5136,2.47346 8.81529,4.4284 12.78751,5.93027 9.08901,3.4365 16.90983,4.53772 21.61766,5.10986 -4.85936,-1.19505 -11.79994,-3.49859 -20.54572,-7.63676 -3.76164,-1.77986 -7.7882,-3.88757 -12.08245,-6.48827 -9.64717,-5.84256 -17.85682,-12.49678 -24.59614,-18.86671 -0.17418,-0.16464 -0.34656,-0.3283 -0.51711,-0.49096 -8.87326,-8.4621 -15.10755,-16.79721 -18.21532,-20.04189 -1.15257,-1.20334 -2.17665,-1.9582 -2.90342,-2.28781 -0.73354,-0.33267 -1.10398,-0.21348 -1.25378,-0.11641 z"
       id="path40377"
       sodipodi:nodetypes="cc"
       inkscape:path-effect="#path-effect52759"
       inkscape:original-d="m 104.42239,188.17193 c 0,0 30.33884,46.8178 80.11394,55.92881" />
    <path
       style="font-variation-settings:normal;opacity:1;fill:#bd9d17;fill-opacity:1;fill-rule:nonzero;stroke:none;stroke-width:5.59;stroke-linecap:round;stroke-linejoin:round;stroke-miterlimit:4;stroke-dasharray:none;stroke-dashoffset:0;stroke-opacity:1;paint-order:normal;stop-color:#000000;stop-opacity:1"
       d="m 201.42556,261.66371 c -2.15225,-0.92422 -7.37516,-3.68962 -11.65797,-5.73811 -6.41258,-3.06718 -13.86263,-6.66603 -16.47493,-8.04567 -0.66026,-0.34871 -1.10281,-0.57855 -1.09363,-0.54322 a 3.3822606,3.0372737 85.879874 0 0 -3.28988,4.24072 c 0.0893,0.0138 1.79539,1.62318 4.78809,3.98909 3.20449,2.53335 6.93884,5.17552 10.60995,7.35377 4.95312,2.93892 9.71562,4.77526 12.37123,5.91299 -2.6772,-1.91045 -5.91769,-4.70434 -10.52308,-8.53611 -3.39273,-2.82281 -6.37515,-5.38122 -9.36483,-8.2734 -2.70388,-2.6157 -4.03267,-4.19454 -3.93776,-4.17992 l -3.28988,4.24072 c 0.01,0.0382 0.49024,0.31341 1.20147,0.67529 3.21749,1.63707 10.11582,4.76299 17.69637,6.74654 5.09697,1.33368 10.20533,1.7866 12.96485,2.15731 z"
       id="path40379"
       sodipodi:nodetypes="ccc"
       inkscape:path-effect="#path-effect52741"
       inkscape:original-d="m 201.42556,261.66371 c -17.94809,-4.95907 -30.54461,-11.95307 -30.54461,-11.95307 0,0 9.34454,9.87019 25.79747,19.12264" />
    <path
       style="font-variation-settings:normal;opacity:1;fill:#bd9d17;fill-opacity:1;fill-rule:nonzero;stroke:none;stroke-width:5.59;stroke-linecap:round;stroke-linejoin:round;stroke-miterlimit:4;stroke-dasharray:none;stroke-dashoffset:0;stroke-opacity:1;paint-order:normal;stop-color:#000000;stop-opacity:1"
       d="m 209.07682,273.56553 c -2.60168,-0.60444 -6.20931,-1.79715 -11.41504,-3.76708 -3.15214,-1.19282 -6.46192,-2.61436 -9.8763,-4.28092 -5.33935,-2.60614 -9.46255,-5.19283 -9.40639,-5.13213 a 2.8578066,2.6260679 87.588943 0 0 -3.53783,4.19102 c 0.11775,0.10895 2.76969,3.03551 9.01652,7.39958 6.67904,4.66601 15.10579,8.96137 18.17825,9.74853 0.78305,0.20061 1.07667,0.006 1.29344,0.007 -0.12694,-0.17571 -0.14116,-0.52485 -0.74596,-1.05142 -3.95937,-3.44724 -12.17283,-8.58169 -16.1322,-12.02893 -5.46984,-4.77434 -7.3644,-7.67739 -7.24665,-7.56844 a 2.8577976,2.6260766 87.588759 0 0 -3.53783,4.19102 c 0.0626,0.0677 4.48269,2.14316 10.52063,4.16263 3.72455,1.24572 7.33796,2.23284 10.72359,2.94293 5.44589,1.14221 9.6941,1.16604 12.16577,1.18665 z"
       id="path40381"
       sodipodi:nodetypes="ccc"
       inkscape:path-effect="#path-effect52739"
       inkscape:original-d="m 209.07682,273.56553 c -16.16912,-1.92189 -32.05386,-10.73617 -32.05386,-10.73617 0,0 7.33167,9.15564 26.30651,18.90173" />
    <path
       style="font-variation-settings:normal;opacity:1;fill:#bd9d17;fill-opacity:1;fill-rule:nonzero;stroke:none;stroke-width:5.59;stroke-linecap:round;stroke-linejoin:round;stroke-miterlimit:4;stroke-dasharray:none;stroke-dashoffset:0;stroke-opacity:1;paint-order:normal;stop-color:#000000;stop-opacity:1"
       d="m 249.61834,292.00243 c -0.34163,-0.12368 -0.98108,-0.35826 -2.05587,-0.63469 -0.68596,-0.17642 -1.58182,-0.3787 -2.7431,-0.58891 -0.29162,-0.0528 -0.60066,-0.1062 -0.92784,-0.15988 -1.44991,-0.23787 -3.50057,-0.53209 -6.15921,-0.81561 -4.26026,-0.45433 -10.66207,-0.93504 -17.56536,-0.89258 -2.90129,0.0179 -5.91591,0.12975 -8.81904,0.38783 -2.73055,0.24273 -5.40451,0.61848 -7.79594,1.18105 -1.16318,0.27363 -2.27557,0.59517 -3.30498,0.97426 -1.01389,0.37337 -1.97037,0.81096 -2.82595,1.32923 -0.84688,0.51299 -1.62697,1.12436 -2.26634,1.86149 -0.64272,0.74099 -1.14265,1.60944 -1.41174,2.60994 a 0.00985475,0.24676016 11.102015 0 0 -0.0517,0.33342 c -0.10129,0.45972 -0.1739,0.99892 -0.14661,1.59351 0.0282,0.61346 0.16185,1.26209 0.4515,1.91678 0.29847,0.67463 0.7319,1.28633 1.27489,1.83195 0.56734,0.57008 1.24056,1.05469 1.98111,1.47054 1.38613,0.77837 3.31306,1.55745 6.1598,2.28224 2.57143,0.65469 5.91422,1.27067 10.33513,1.80586 4.71661,0.56258 9.85938,0.68129 15.00408,0.46334 5.42325,-0.22975 10.72291,-0.82737 15.45117,-1.62821 5.60275,-0.94897 10.23745,-2.15062 13.72767,-3.37217 2.34047,-0.81915 4.14067,-1.63648 5.47011,-2.40035 1.42006,-0.81594 2.2963,-1.56715 2.71388,-2.18082 0.68692,-1.00947 0.22946,-2.1916 0.23311,-2.57211 -0.37362,-0.18718 -1.10032,-1.10523 -2.20604,-1.19677 -0.65798,-0.0545 -1.59589,0.10701 -2.99212,0.44154 -1.30121,0.31176 -3.00568,0.77491 -5.20429,1.32484 -3.29922,0.82522 -7.63877,1.82468 -12.96347,2.71984 -4.49133,0.75506 -9.4947,1.40128 -14.62077,1.75127 -4.86775,0.33235 -9.64275,0.38249 -13.95781,0.0486 -4.27454,-0.32802 -7.38979,-0.71228 -9.69685,-1.12342 -2.56426,-0.45698 -4.01831,-0.9289 -4.86114,-1.31622 -0.45168,-0.20757 -0.74739,-0.3805 -0.9559,-0.51157 -0.19198,-0.12069 -0.29118,-0.18644 -0.37614,-0.23579 -0.0823,-0.0478 -0.15826,-0.0914 -0.23585,-0.20934 -0.0745,-0.11322 -0.13797,-0.27964 -0.18467,-0.52154 0.0613,-0.21341 0.16605,-0.44044 0.33336,-0.68478 0.25115,-0.36677 0.63585,-0.76007 1.18528,-1.16365 0.55266,-0.40594 1.24082,-0.79945 2.06004,-1.1734 0.82806,-0.37798 1.76816,-0.72611 2.80281,-1.04414 2.13501,-0.65627 4.61098,-1.16581 7.23464,-1.55612 2.77843,-0.41333 5.69948,-0.69 8.54766,-0.87157 6.70471,-0.42743 13.19112,-0.34144 17.37355,-0.20255 2.62119,0.087 4.7273,0.20711 6.15271,0.30007 0.03,0.002 0.90108,0.0597 0.93107,0.0616 1.12196,0.0754 2.11831,0.14616 2.77359,0.19381 1.09258,0.0794 1.77318,0.13269 2.13157,0.1731 z"
       id="path40383"
       sodipodi:nodetypes="ccsc"
       inkscape:path-effect="#path-effect52737"
       inkscape:original-d="m 249.61834,292.00243 c -9.20519,-2.1535 -51.30311,-4.58864 -53.7306,5.75545 -0.22317,2.88507 1.25586,5.7491 18.18711,7.4305 17.93996,1.78156 43.34771,-2.93799 52.27226,-8.38984" />
    <path
       style="font-variation-settings:normal;opacity:1;fill:#bd9d17;fill-opacity:1;fill-rule:nonzero;stroke:none;stroke-width:5.59;stroke-linecap:round;stroke-linejoin:round;stroke-miterlimit:4;stroke-dasharray:none;stroke-dashoffset:0;stroke-opacity:1;paint-order:normal;stop-color:#000000;stop-opacity:1"
       d="m 202.24041,319.85172 c -0.20078,0.0958 -0.66374,0.10289 -1.26959,0.63029 -1.03503,0.901 -3.25881,3.74724 -6.61661,9.01772 -2.12239,3.33136 -4.69039,7.62879 -7.45292,12.63823 -2.26607,4.10918 -4.64747,8.67207 -6.84747,13.25939 -1.99732,4.16469 -3.84453,8.34957 -5.26027,12.1168 -1.19745,3.17266 -2.16162,6.22837 -2.5792,9.05164 -0.20854,1.40993 -0.28639,2.7949 -0.18045,4.14008 0.10695,1.3581 0.40105,2.67151 0.93111,3.92004 0.53921,1.27006 1.3008,2.42121 2.28118,3.4528 0.99735,1.04944 2.19877,1.95051 3.56489,2.72384 1.4129,0.79982 3.01302,1.47031 4.77062,2.03835 1.82778,0.59072 3.84264,1.0759 6.01143,1.4769 4.4187,1.0029 9.49685,1.72667 14.44112,2.24731 1.35236,0.1424 2.73342,0.27316 4.1376,0.39246 7.07191,0.60086 14.74426,0.9125 22.3467,0.95761 7.72542,0.0458 15.38854,-0.18315 22.36293,-0.66528 7.10613,-0.49123 13.52639,-1.24665 18.66732,-2.2566 2.45872,-0.47948 5.24043,-1.16639 7.98846,-2.12803 2.82272,-0.98777 5.63581,-2.27372 8.05981,-3.94752 1.24663,-0.86082 2.40229,-1.83239 3.40555,-2.92923 1.0253,-1.12094 1.8906,-2.37209 2.52525,-3.76053 0.47975,-1.04956 0.81964,-2.16027 1.00133,-3.32722 0.063,-0.40492 0.10801,-0.82028 0.13303,-1.24603 0.0933,-1.58774 -0.0926,-3.28435 -0.61701,-5.09126 -0.46393,-1.5893 -1.12793,-3.44615 -1.95499,-5.51542 -0.81677,-2.04352 -1.79544,-4.30111 -2.89829,-6.70883 -2.27107,-4.95817 -5.02597,-10.45982 -7.85463,-15.82233 -3.27001,-6.19921 -6.53029,-12.01003 -9.28787,-16.69172 -3.60495,-6.12032 -6.26875,-10.18106 -7.72137,-12.00142 -1.07864,-1.35169 -1.89119,-1.81893 -2.24529,-2.14977 0.12317,0.48625 0.13161,1.38928 0.7744,3.00451 0.88385,2.22097 3.00228,6.40491 6.22549,12.76981 2.41871,4.77625 5.45459,10.77565 8.45653,16.98765 2.62031,5.42226 5.1724,10.91906 7.24873,15.84118 1.00738,2.38805 1.88289,4.59399 2.5946,6.56393 0.72456,2.00548 1.25893,3.71027 1.59555,5.08973 0.31006,1.2849 0.35264,2.37008 0.2445,3.28522 -0.0293,0.24803 -0.0699,0.48565 -0.12011,0.71346 -0.14358,0.65167 -0.37126,1.26382 -0.67565,1.84485 -0.40342,0.77009 -0.9547,1.51013 -1.65776,2.22221 -0.69159,0.70046 -1.52471,1.36827 -2.4916,2.00072 -1.89817,1.24161 -4.21179,2.28182 -6.72189,3.13833 -2.42698,0.82815 -4.92272,1.44561 -7.18477,1.89954 -4.80776,0.95706 -10.95756,1.71616 -17.91943,2.2373 -6.81095,0.50984 -14.32489,0.78606 -21.92117,0.80137 -7.47584,0.0151 -15.00031,-0.22295 -21.91132,-0.73461 -1.37066,-0.10148 -2.71616,-0.21365 -4.03121,-0.33662 -4.84905,-0.45346 -9.71176,-1.10185 -13.85803,-1.9971 l -0.11423,-0.0228 c -2.03005,-0.34598 -3.83986,-0.75919 -5.42263,-1.24496 -1.50675,-0.46244 -2.77216,-0.97974 -3.81818,-1.54672 -1.00685,-0.54575 -1.78809,-1.12532 -2.38929,-1.72868 -0.58203,-0.58413 -1.01293,-1.20777 -1.32265,-1.88503 -0.30712,-0.67155 -0.51284,-1.43484 -0.60668,-2.32091 -0.0939,-0.88664 -0.0747,-1.88746 0.0635,-3.02183 0.28182,-2.31259 1.03539,-5.00424 2.1167,-8.10646 1.27013,-3.62671 2.96623,-7.72277 4.82584,-11.87096 2.04146,-4.55385 4.26105,-9.12967 6.34589,-13.26968 2.52548,-5.015 4.88729,-9.45925 6.71349,-12.86712 2.95528,-5.51483 4.60626,-8.5167 5.03247,-9.85941 0.24269,-0.76452 0.0734,-1.17948 0.0865,-1.4092 z"
       id="path40385"
       sodipodi:nodetypes="cscssc"
       inkscape:path-effect="#path-effect52727"
       inkscape:original-d="m 202.24041,319.85172 c -7.80881,11.62261 -20.01151,34.11689 -25.22555,48.4694 -4.62177,12.72218 -4.28971,20.24714 13.12625,23.33591 20.03953,4.44788 60.70961,4.33296 80.81869,0.35718 9.28821,-1.83639 23.80108,-6.7258 20.55185,-18.76707 -3.24922,-12.04126 -19.13687,-42.15625 -29.42887,-59.57315" />
    <path
       style="font-variation-settings:normal;opacity:1;fill:#bd9d17;fill-opacity:1;fill-rule:nonzero;stroke:#bd9d17;stroke-width:2.47041;stroke-linecap:round;stroke-linejoin:round;stroke-miterlimit:4;stroke-dasharray:none;stroke-dashoffset:0;stroke-opacity:1;paint-order:normal;stop-color:#000000;stop-opacity:1"
       d="m 199.76401,350.9721 c 19.02119,-9.24594 47.0654,-7.78552 60.90449,0.29739 0,0 1.80948,10.54471 -0.59549,21.37544 -14.52708,-0.4085 -44.96798,-0.40756 -58.27197,-0.95808 -2.64046,-3.43816 -2.03703,-20.71475 -2.03703,-20.71475 z"
       id="path40387"
       sodipodi:nodetypes="ccccc"
       inkscape:linked-fill="path56542" />
    <path
       style="font-variation-settings:normal;opacity:1;fill:#bd9d17;fill-opacity:1;fill-rule:nonzero;stroke:none;stroke-width:5.59;stroke-linecap:round;stroke-linejoin:round;stroke-miterlimit:4;stroke-dasharray:none;stroke-dashoffset:0;stroke-opacity:1;paint-order:normal;stop-color:#000000;stop-opacity:1"
       d="m 118.40294,96.307967 c -0.0798,0.134221 -0.48063,0.381431 -0.48128,0.803978 -0.001,0.71147 0.85055,2.198453 2.83517,5.293075 1.24661,1.94383 3.10551,4.79182 4.35211,6.73565 2.72796,4.24319 6.32902,9.92873 11.00118,17.61327 7.06925,11.62717 16.34079,27.43146 27.25655,47.09002 9.02357,16.25085 18.89277,34.6476 28.19578,52.946 8.521,16.76021 16.41566,33.14763 22.21604,46.6271 5.43533,12.62433 9.71685,22.29699 13.13873,29.66964 3.44223,7.41648 5.97579,12.42223 7.98281,15.89671 1.0331,1.78845 1.93166,3.17974 2.7442,4.28225 0.84259,1.14329 1.60803,1.99681 2.3441,2.65304 0.78551,0.70031 1.52298,1.16233 2.24163,1.4981 0.74488,0.34802 1.46973,0.55626 2.04902,0.7225 a 1.8768523,1.8391236 42.946265 0 0 1.12288,-0.0289 c 0.12291,-0.0427 0.24381,-0.0865 0.36273,-0.13143 0.87954,-0.33223 1.77877,-0.77364 2.56584,-1.41404 0.42433,-0.34526 0.81757,-0.74937 1.15908,-1.22609 0.33093,-0.46195 0.60193,-0.97626 0.80709,-1.54625 0.39365,-1.0937 0.52584,-2.33701 0.43685,-3.73852 -0.0855,-1.34558 -0.37728,-2.87854 -0.87461,-4.64274 -0.96651,-3.42858 -2.733,-7.82341 -5.441,-13.63677 -2.68823,-5.77088 -6.29035,-12.90441 -10.85466,-21.66107 -7.94828,-15.2571 -24.6403,-46.93907 -33.62081,-64.01204 -6.33688,-12.04713 -12.98508,-24.69811 -17.05509,-32.37704 -8.61428,-16.25264 -12.36255,-22.93363 -13.99404,-23.79246 -0.47169,-0.2483 -0.94679,0.0254 -1.13345,0.0307 -0.12354,0.13841 -0.64082,0.32698 -0.75206,0.84934 -0.38328,1.79986 2.32587,9.11095 10.45657,25.6792 4.29276,8.74754 9.89498,19.67508 16.71629,32.64122 11.06678,21.03604 23.90788,44.70833 34.29731,63.69651 4.73112,8.65089 8.487,15.61114 11.32713,21.19199 2.87589,5.6511 4.72031,9.70874 5.77069,12.72896 0.53828,1.54778 0.84275,2.75305 0.98014,3.70764 0.14186,0.98559 0.0975,1.65104 -0.0157,2.11033 -0.0587,0.23803 -0.13965,0.43676 -0.23911,0.60888 -0.10346,0.17906 -0.23673,0.34627 -0.40952,0.50621 -0.33073,0.30612 -0.80454,0.58305 -1.44248,0.82619 -0.0836,0.0319 -0.17053,0.0634 -0.26092,0.0944 l 1.12288,-0.0289 c -0.54954,-0.16066 -0.9853,-0.31607 -1.3901,-0.54287 -0.36175,-0.20269 -0.75064,-0.49108 -1.20808,-0.97323 -0.44427,-0.46827 -0.97602,-1.14318 -1.63576,-2.16994 -0.63738,-0.99196 -1.38162,-2.29205 -2.28541,-4.03811 -1.76202,-3.40414 -4.05688,-8.35856 -7.30399,-15.81904 -3.22129,-7.40119 -7.30939,-17.10608 -12.58207,-29.78425 -5.70562,-13.70805 -13.52923,-30.29579 -21.98274,-47.16315 -9.20186,-18.36054 -19.09582,-36.94506 -28.16048,-53.23909 -10.9605,-19.70186 -20.42433,-35.57538 -27.79174,-47.1195 -4.87386,-7.63694 -8.75707,-13.2714 -11.82453,-17.3849 -2.0828,-2.79306 -3.77657,-4.86781 -5.14973,-6.404039 -2.52229,-2.821812 -4.05007,-3.920901 -4.73738,-4.013546 -0.41991,-0.0566 -0.7197,0.322194 -0.85605,0.384892 z"
       id="path40389"
       sodipodi:nodetypes="cscsc"
       inkscape:path-effect="#path-effect52735"
       inkscape:original-d="m 118.40294,96.307967 c 18.93312,21.044763 75.51806,123.044613 97.9391,176.024213 21.54892,50.91882 23.64357,52.63242 28.45295,54.02484 7.45625,-2.58064 4.92801,-9.86113 -13.77445,-44.88577 -18.31563,-34.30021 -51.15493,-95.47501 -63.26075,-121.50857" />
    <path
       style="font-variation-settings:normal;opacity:1;fill:#bd9d17;fill-opacity:1;fill-rule:nonzero;stroke:none;stroke-width:5.59;stroke-linecap:round;stroke-linejoin:round;stroke-miterlimit:4;stroke-dasharray:none;stroke-dashoffset:0;stroke-opacity:1;paint-order:normal;stop-color:#000000;stop-opacity:1"
       d="m 235.62346,262.56218 c 0.6814,-1.98024 2.1425,-5.75007 3.32009,-10.65392 1.03068,-4.2921 1.9959,-9.38214 2.78641,-14.68393 1.00439,-6.73628 1.40155,-11.45154 1.37736,-11.49727 a 3.3836096,2.7583725 46.198457 0 0 -5.52123,-0.679 c 0.0471,-0.1112 0.073,1.09271 -0.39707,3.25338 -0.51356,2.36037 -1.38761,4.95525 -2.4972,7.49331 -1.2306,2.81484 -2.27853,5.02189 -3.11477,6.48578 1.09799,-1.105 3.05998,-2.98137 4.9237,-5.41326 0.32152,-0.41953 0.6362,-0.84015 0.94396,-1.2617 -0.0123,0.39678 -0.026,0.80216 -0.0412,1.21553 -0.20094,5.45728 -0.5471,10.14568 -0.92937,14.68793 -0.39988,4.75151 -0.63745,9.1598 -0.85069,11.05315 z"
       id="path40391"
       sodipodi:nodetypes="ccc"
       inkscape:path-effect="#path-effect52743"
       inkscape:original-d="m 235.62346,262.56218 c 4.26254,-18.90334 4.68965,-36.90143 4.68965,-36.90143 0,0 -1.63928,7.29629 -8.73606,16.61978" />
    <path
       style="font-variation-settings:normal;opacity:1;fill:#bd9d17;fill-opacity:1;fill-rule:nonzero;stroke:none;stroke-width:5.59;stroke-linecap:round;stroke-linejoin:round;stroke-miterlimit:4;stroke-dasharray:none;stroke-dashoffset:0;stroke-opacity:1;paint-order:normal;stop-color:#000000;stop-opacity:1"
       d="m 226.80873,239.92357 c 0.78364,-3.04174 2.19864,-8.44263 3.2237,-15.86377 0.71376,-5.16739 1.30215,-10.94773 1.70868,-17.43053 0.56116,-8.94861 0.55996,-15.79033 0.70016,-15.86009 l -3.14684,3.38838 c 0,0.0416 -0.0516,0.30833 -0.14624,0.69607 l -3.11091,-3.92707 c -0.30799,1.58681 -0.68256,4.53714 -1.90408,9.21467 -0.78034,2.9881 -1.77659,6.13198 -3.00721,9.24361 -2.4192,6.11693 -4.86913,10.96474 -6.92452,14.47571 2.48488,-3.06831 5.98138,-7.57472 9.3412,-13.29382 1.75805,-2.99257 3.35709,-5.90503 4.80855,-8.83902 2.13478,-4.31525 3.48048,-7.75715 3.90788,-9.33845 a 3.1808105,1.5622726 77.772989 0 0 -3.11091,-3.92707 c 0.0946,-0.41743 0.14624,-0.6528 0.14624,-0.61553 a 2.5321602,5.2168308 68.774471 0 0 -3.14684,3.38838 c 0.16212,-0.0807 1.04648,6.06195 1.48439,15.36039 0.29748,6.31633 0.30474,12.18532 0.14295,17.27242 -0.23897,7.51378 -0.59707,12.80878 -0.9662,16.05572 z"
       id="path40393"
       sodipodi:nodetypes="ccc"
       inkscape:path-effect="#path-effect52745"
       inkscape:original-d="m 226.80873,239.92357 c 4.35991,-23.6013 2.4857,-48.92146 2.4857,-48.92146 0,0 -3.10827,15.53348 -15.09296,32.85844" />
    <path
       style="font-variation-settings:normal;opacity:1;fill:#bd9d17;fill-opacity:1;fill-rule:nonzero;stroke:none;stroke-width:5.59;stroke-linecap:round;stroke-linejoin:round;stroke-miterlimit:4;stroke-dasharray:none;stroke-dashoffset:0;stroke-opacity:1;paint-order:normal;stop-color:#000000;stop-opacity:1"
       d="m 208.17246,189.29795 c 1.30823,-0.83443 4.10164,-2.46511 6.93567,-5.20961 2.60622,-2.5239 5.42524,-5.98357 7.70081,-10.20792 2.31841,-4.3039 3.17723,-8.03616 3.34465,-8.20904 l -4.66077,-0.15484 c -0.15144,-0.06 -0.0384,5.59659 -0.0657,10.34093 -0.0243,4.23151 0.006,-1.02001 -0.0186,3.2115 -0.0457,6.97425 -0.16079,14.03235 -0.75213,20.43504 -0.51414,5.5668 -1.05474,9.80331 -1.51648,12.72376 0.80828,-2.68303 2.12369,-7.08058 3.31511,-12.44144 1.43226,-6.44451 2.80997,-13.24569 3.50448,-20.48211 0.10665,-1.11117 0.1943,-2.20787 0.26119,-3.2821 0.30265,-4.86106 0.0981,-10.70461 -0.0533,-10.76458 a 5.0751536,2.1895332 25.239187 0 0 -4.66077,-0.15484 c 0.16742,-0.17288 -0.0863,3.18643 -1.7421,7.34854 -1.64939,4.14594 -3.90141,7.5773 -6.06023,10.3798 -2.31317,3.00287 -4.39482,5.36504 -5.53178,6.46691 z"
       id="path40395"
       sodipodi:nodetypes="ccc"
       inkscape:path-effect="#path-effect52747"
       inkscape:original-d="m 208.17246,189.29795 c 14.09449,-11.13777 15.65762,-23.91091 15.65762,-23.91091 0,0 1.17385,21.18524 -4.69018,46.84073" />
    <path
       style="font-variation-settings:normal;opacity:1;fill:#bd9d17;fill-opacity:1;fill-rule:nonzero;stroke:none;stroke-width:5.59;stroke-linecap:round;stroke-linejoin:round;stroke-miterlimit:4;stroke-dasharray:none;stroke-dashoffset:0;stroke-opacity:1;paint-order:normal;stop-color:#000000;stop-opacity:1"
       d="m 93.353397,41.229563 c 0.754283,0.657514 1.989227,1.96588 4.495793,4.002524 5.7097,4.639265 16.8274,13.014723 31.361,26.74822 14.6484,13.841971 27.23068,27.945298 37.85426,41.600593 0.87055,1.119 1.70923,2.21077 2.51708,3.27423 8.45113,11.12517 16.42309,23.16666 22.93045,35.52188 8.9988,17.08559 10.92472,26.13907 13.17843,31.84104 0.67839,1.71635 1.44327,2.5302 1.71782,3.03923 0.10985,-0.53074 0.62741,-1.62112 0.61566,-3.48481 -0.0144,-2.2797 -0.6185,-6.65799 -2.32025,-12.55165 -1.73554,-6.01074 -4.46977,-13.13377 -8.50824,-21.24213 -6.36256,-12.77461 -14.5986,-25.27656 -23.17669,-36.50403 -0.82592,-1.08101 -1.68596,-2.18895 -2.58034,-3.32184 C 160.66052,96.500693 147.21898,82.165277 132.02858,68.879586 117.25017,55.954228 104.59443,47.387044 98.745837,43.941385 96.011435,42.330429 94.186274,41.636462 93.353397,41.229563 Z"
       id="path40397"
       sodipodi:nodetypes="cc"
       inkscape:path-effect="#path-effect52749"
       inkscape:original-d="M 93.353397,41.229563 C 150.11035,78.879241 200.97286,143.2701 207.40823,187.25728" />
  </g>
</svg>
