<svg id="svg" version="1.1" xmlns="http://www.w3.org/2000/svg" xmlns:xlink="http://www.w3.org/1999/xlink" width="400" height="400" viewBox="0, 0, 400,400"><g id="svgg"><path id="path0" d="M270.284 25.144 C 267.672 25.315,266.258 25.579,266.038 25.937 C 265.800 26.322,264.962 26.435,263.053 26.337 C 261.593 26.261,260.399 26.335,260.399 26.500 C 260.400 26.665,259.770 26.800,259.000 26.800 C 258.230 26.800,257.600 26.941,257.600 27.113 C 257.600 27.285,256.745 27.652,255.700 27.929 C 254.655 28.205,253.247 28.605,252.572 28.816 C 251.896 29.027,251.041 29.200,250.672 29.200 C 250.302 29.200,250.000 29.336,250.000 29.502 C 250.000 29.931,247.964 30.779,246.681 30.885 C 246.086 30.934,245.600 31.115,245.600 31.287 C 245.600 31.459,245.049 31.600,244.376 31.600 C 243.663 31.600,243.256 31.767,243.400 32.000 C 243.536 32.220,243.354 32.400,242.995 32.400 C 242.636 32.400,242.071 32.672,241.739 33.004 C 241.407 33.336,240.970 33.505,240.768 33.380 C 240.565 33.255,240.400 33.343,240.400 33.576 C 240.400 33.809,240.055 34.000,239.633 34.000 C 239.212 34.000,238.807 34.135,238.733 34.300 C 238.660 34.465,237.750 35.031,236.712 35.557 C 235.673 36.083,234.919 36.668,235.035 36.857 C 235.152 37.046,234.864 37.200,234.395 37.200 C 233.476 37.200,232.280 38.147,232.686 38.552 C 232.822 38.689,232.453 38.800,231.867 38.800 C 231.280 38.800,230.800 38.980,230.800 39.200 C 230.800 39.420,230.410 39.600,229.933 39.600 C 229.457 39.600,229.168 39.701,229.291 39.824 C 229.679 40.212,227.574 42.027,226.871 41.911 C 226.502 41.850,226.245 42.025,226.300 42.300 C 226.355 42.575,226.100 42.800,225.733 42.800 C 225.367 42.800,225.178 42.911,225.314 43.048 C 225.728 43.461,224.421 44.494,223.790 44.251 C 223.429 44.113,223.200 44.262,223.200 44.636 C 223.200 44.972,223.020 45.136,222.800 45.000 C 222.580 44.864,222.400 45.033,222.400 45.376 C 222.400 45.719,222.265 46.003,222.100 46.007 C 221.563 46.020,217.621 49.888,217.881 50.148 C 218.020 50.286,217.910 50.400,217.638 50.400 C 217.366 50.400,216.873 50.670,216.543 51.000 C 216.213 51.330,216.060 51.600,216.202 51.600 C 216.345 51.600,215.863 52.091,215.131 52.692 C 213.639 53.916,212.735 54.866,211.466 56.545 C 210.990 57.175,210.105 58.150,209.500 58.712 C 208.895 59.273,208.400 60.075,208.400 60.495 C 208.400 60.914,208.130 61.527,207.800 61.857 C 207.470 62.187,207.200 62.341,207.200 62.200 C 207.200 62.059,206.930 62.213,206.600 62.543 C 206.270 62.873,206.000 63.516,206.000 63.971 C 206.000 64.427,205.820 64.800,205.600 64.800 C 205.380 64.800,205.200 65.030,205.200 65.312 C 205.200 65.593,204.840 66.083,204.400 66.400 C 203.960 66.717,203.600 67.397,203.600 67.912 C 203.600 68.434,203.423 68.738,203.200 68.600 C 202.980 68.464,202.800 68.641,202.800 68.993 C 202.800 69.345,202.440 70.020,202.000 70.492 C 201.560 70.964,201.200 71.587,201.200 71.875 C 201.200 72.164,201.020 72.400,200.800 72.400 C 200.580 72.400,200.400 72.749,200.400 73.176 C 200.400 73.603,200.220 74.064,200.000 74.200 C 199.780 74.336,199.600 74.797,199.600 75.224 C 199.600 75.651,199.399 76.000,199.153 76.000 C 198.893 76.000,198.786 76.416,198.898 77.000 C 199.024 77.661,198.909 78.000,198.557 78.000 C 198.249 78.000,198.122 78.252,198.255 78.600 C 198.394 78.962,198.257 79.200,197.909 79.200 C 197.593 79.200,197.333 79.466,197.333 79.792 C 197.333 80.741,196.305 83.589,196.025 83.416 C 195.885 83.329,195.731 83.730,195.683 84.306 C 195.635 84.883,195.458 85.455,195.289 85.578 C 195.121 85.700,194.924 86.430,194.852 87.200 C 194.780 87.970,194.609 88.780,194.473 89.000 C 194.336 89.220,194.277 89.805,194.341 90.300 C 194.405 90.795,194.275 91.200,194.053 91.200 C 193.830 91.200,193.592 91.875,193.524 92.700 C 193.456 93.525,193.205 94.165,192.967 94.122 C 192.728 94.079,192.523 94.259,192.511 94.522 C 192.273 99.656,191.807 104.400,191.541 104.400 C 191.354 104.400,191.200 108.270,191.200 113.000 C 191.200 118.467,191.346 121.600,191.600 121.600 C 191.821 121.600,192.013 122.719,192.028 124.100 C 192.044 125.475,192.181 127.950,192.332 129.600 L 192.607 132.600 187.903 132.476 C 185.316 132.409,183.200 132.184,183.200 131.976 C 183.200 131.769,181.583 131.600,179.600 131.600 C 177.467 131.600,176.000 131.437,176.000 131.200 C 176.000 130.968,174.693 130.800,172.880 130.800 C 171.164 130.800,169.589 130.638,169.380 130.441 C 169.006 130.088,167.348 129.785,163.400 129.348 C 162.300 129.226,161.229 128.963,161.020 128.763 C 160.811 128.563,159.956 128.400,159.120 128.400 C 158.284 128.400,157.600 128.220,157.600 128.000 C 157.600 127.780,156.779 127.600,155.776 127.600 C 154.663 127.600,154.049 127.444,154.200 127.200 C 154.352 126.954,153.693 126.800,152.490 126.800 C 151.414 126.800,150.404 126.670,150.245 126.512 C 150.087 126.353,149.361 126.275,148.631 126.338 C 147.751 126.414,147.230 126.254,147.079 125.863 C 146.923 125.454,145.926 125.186,143.827 124.990 C 142.162 124.834,140.800 124.547,140.800 124.353 C 140.800 124.159,140.249 124.000,139.576 124.000 C 138.863 124.000,138.456 123.833,138.600 123.600 C 138.749 123.358,138.204 123.200,137.224 123.200 C 136.331 123.200,135.600 123.020,135.600 122.800 C 135.600 122.580,135.071 122.400,134.424 122.400 C 133.777 122.400,133.136 122.220,133.000 122.000 C 132.864 121.780,132.313 121.600,131.776 121.600 C 131.239 121.600,130.800 121.420,130.800 121.200 C 130.800 120.980,130.260 120.800,129.600 120.800 C 128.940 120.800,128.400 120.620,128.400 120.400 C 128.400 120.180,127.871 120.000,127.224 120.000 C 126.577 120.000,125.936 119.820,125.800 119.600 C 125.664 119.380,125.203 119.200,124.776 119.200 C 124.349 119.200,124.000 119.020,124.000 118.800 C 124.000 118.580,123.651 118.400,123.224 118.400 C 122.797 118.400,122.336 118.220,122.200 118.000 C 122.064 117.780,121.524 117.600,121.000 117.600 C 120.476 117.600,119.936 117.420,119.800 117.200 C 119.664 116.980,119.113 116.800,118.576 116.800 C 118.039 116.800,117.600 116.609,117.600 116.376 C 117.600 116.143,117.447 116.048,117.259 116.164 C 117.071 116.280,116.576 116.116,116.159 115.800 C 115.742 115.484,115.121 115.220,114.780 115.213 C 113.951 115.196,112.007 114.277,112.003 113.900 C 112.001 113.735,111.640 113.600,111.200 113.600 C 110.760 113.600,110.400 113.420,110.400 113.200 C 110.400 112.980,109.860 112.800,109.200 112.800 C 108.540 112.800,108.000 112.656,108.000 112.480 C 108.000 112.305,107.370 111.933,106.600 111.654 C 105.830 111.376,105.200 110.996,105.200 110.809 C 105.200 110.623,104.766 110.518,104.235 110.576 C 103.524 110.654,103.330 110.527,103.498 110.090 C 103.679 109.618,103.434 109.532,102.290 109.665 C 101.502 109.757,100.944 109.690,101.052 109.516 C 101.159 109.342,100.787 109.200,100.224 109.200 C 99.661 109.200,99.200 109.054,99.200 108.875 C 99.200 108.696,98.570 108.302,97.800 108.000 C 97.030 107.698,96.400 107.304,96.400 107.125 C 96.400 106.946,96.040 106.800,95.600 106.800 C 95.160 106.800,94.800 106.620,94.800 106.400 C 94.800 106.180,94.440 106.000,94.000 106.000 C 93.560 106.000,93.200 105.820,93.200 105.600 C 93.200 105.380,92.917 105.200,92.571 105.200 C 91.826 105.200,90.731 104.203,91.086 103.848 C 91.222 103.711,90.843 103.600,90.243 103.600 C 89.618 103.600,89.258 103.429,89.400 103.200 C 89.536 102.980,89.364 102.800,89.018 102.800 C 88.225 102.800,86.805 102.011,85.957 101.100 C 85.599 100.715,85.160 100.400,84.981 100.400 C 84.135 100.400,80.000 98.139,80.000 97.677 C 80.000 97.389,79.835 97.255,79.632 97.380 C 79.430 97.505,79.021 97.381,78.723 97.104 C 78.425 96.827,77.915 96.547,77.590 96.483 C 77.266 96.419,76.730 96.059,76.400 95.683 C 76.070 95.307,75.305 94.745,74.700 94.432 C 74.095 94.120,73.600 93.721,73.600 93.545 C 73.600 93.369,73.330 93.329,73.000 93.455 C 72.604 93.607,72.389 93.433,72.368 92.943 C 72.351 92.534,72.248 92.420,72.139 92.688 C 71.983 93.073,71.829 93.073,71.413 92.688 C 71.122 92.420,70.983 92.037,71.104 91.838 C 71.225 91.639,71.106 91.611,70.841 91.775 C 70.559 91.949,70.055 91.724,69.632 91.237 C 69.233 90.777,68.612 90.400,68.253 90.400 C 67.894 90.400,67.600 90.250,67.600 90.068 C 67.600 89.885,67.105 89.480,66.500 89.168 C 65.895 88.855,65.051 88.285,64.625 87.900 C 64.198 87.515,63.685 87.200,63.485 87.200 C 63.285 87.200,62.617 86.660,62.000 86.000 C 61.383 85.340,60.631 84.800,60.328 84.800 C 60.025 84.800,59.524 84.450,59.215 84.021 C 58.907 83.593,58.507 83.334,58.327 83.445 C 58.147 83.556,58.000 83.367,58.000 83.024 C 58.000 82.681,57.672 82.400,57.272 82.400 C 56.872 82.400,56.153 81.950,55.675 81.400 C 55.197 80.850,54.907 80.400,55.031 80.400 C 55.738 80.400,53.949 79.252,52.874 79.016 C 52.169 78.861,51.701 78.560,51.834 78.346 C 52.125 77.875,50.319 76.226,48.400 75.211 C 47.630 74.803,46.380 73.824,45.622 73.035 C 44.863 72.246,44.081 71.600,43.882 71.600 C 43.405 71.600,41.200 69.228,41.200 68.715 C 41.200 68.495,40.939 68.414,40.620 68.537 C 40.233 68.685,40.115 68.567,40.263 68.180 C 40.403 67.816,40.237 67.600,39.819 67.600 C 39.453 67.600,39.235 67.465,39.334 67.300 C 39.434 67.135,39.265 66.768,38.958 66.484 C 38.651 66.201,38.400 66.066,38.400 66.184 C 38.400 66.303,38.069 66.085,37.663 65.700 C 37.258 65.315,36.986 64.885,37.059 64.745 C 37.132 64.605,36.833 64.397,36.396 64.283 C 35.958 64.169,35.600 63.777,35.600 63.414 C 35.600 63.050,35.447 62.847,35.260 62.963 C 35.073 63.078,34.704 62.767,34.438 62.272 C 34.173 61.776,33.561 61.191,33.078 60.971 C 32.595 60.751,32.228 60.397,32.262 60.185 C 32.296 59.973,32.071 59.568,31.762 59.284 C 31.453 59.001,31.200 58.892,31.200 59.042 C 31.200 59.193,30.131 58.210,28.825 56.858 C 27.518 55.506,26.187 54.400,25.867 54.400 C 25.547 54.400,25.197 54.169,25.089 53.887 C 24.980 53.604,24.153 53.019,23.250 52.587 C 22.348 52.154,21.607 51.665,21.605 51.500 C 21.602 51.335,19.800 51.200,17.600 51.200 C 15.200 51.200,13.600 51.360,13.600 51.600 C 13.600 51.820,13.137 52.000,12.571 52.000 C 11.514 52.000,10.244 52.911,10.686 53.352 C 10.822 53.489,10.443 53.600,9.843 53.600 C 9.243 53.600,8.852 53.761,8.974 53.957 C 9.095 54.154,8.657 54.739,8.001 55.257 C 7.344 55.776,6.806 56.515,6.804 56.900 C 6.802 57.285,6.665 57.601,6.500 57.603 C 6.020 57.608,5.200 59.660,5.200 60.856 C 5.200 61.459,5.020 62.064,4.800 62.200 C 4.580 62.336,4.400 62.977,4.400 63.624 C 4.400 64.271,4.220 64.800,4.000 64.800 C 3.780 64.800,3.600 65.711,3.600 66.824 C 3.600 68.071,3.447 68.752,3.200 68.600 C 2.950 68.446,2.800 69.263,2.800 70.776 C 2.800 72.125,2.623 73.200,2.400 73.200 C 2.155 73.200,2.000 75.125,2.000 78.176 C 2.000 81.063,1.832 83.257,1.600 83.400 C 1.380 83.536,1.200 84.637,1.200 85.847 C 1.200 87.212,1.352 87.953,1.600 87.800 C 1.860 87.639,2.000 89.663,2.000 93.576 C 2.000 97.325,2.151 99.600,2.400 99.600 C 2.623 99.600,2.800 100.675,2.800 102.024 C 2.800 103.537,2.950 104.354,3.200 104.200 C 3.447 104.048,3.600 104.729,3.600 105.976 C 3.600 107.089,3.780 108.000,4.000 108.000 C 4.220 108.000,4.400 108.594,4.400 109.320 C 4.400 110.046,4.579 110.819,4.798 111.038 C 5.016 111.256,5.236 111.922,5.285 112.518 C 5.334 113.113,5.515 113.600,5.687 113.600 C 5.859 113.600,6.000 114.219,6.000 114.976 C 6.000 115.733,6.180 116.464,6.400 116.600 C 6.620 116.736,6.800 117.377,6.800 118.024 C 6.800 118.671,6.935 119.201,7.100 119.203 C 7.552 119.208,8.400 121.231,8.400 122.303 C 8.400 122.916,8.562 123.147,8.863 122.961 C 9.175 122.768,9.258 122.936,9.116 123.478 C 8.998 123.930,9.228 124.699,9.644 125.240 C 10.050 125.768,10.386 126.434,10.391 126.720 C 10.405 127.509,11.637 129.758,12.254 130.120 C 12.554 130.296,12.800 130.780,12.800 131.196 C 12.800 131.612,12.980 132.064,13.200 132.200 C 13.420 132.336,13.600 132.807,13.600 133.247 C 13.600 133.687,13.780 133.936,14.000 133.800 C 14.220 133.664,14.400 133.833,14.400 134.176 C 14.400 134.519,14.535 134.801,14.700 134.803 C 15.059 134.807,16.000 136.744,16.000 137.480 C 16.000 137.766,16.223 137.955,16.496 137.900 C 16.769 137.845,17.167 138.389,17.381 139.110 C 17.612 139.886,17.973 140.343,18.265 140.230 C 18.567 140.115,18.673 140.266,18.537 140.620 C 18.414 140.939,18.486 141.200,18.696 141.200 C 19.179 141.200,20.622 142.452,20.837 143.058 C 20.927 143.311,22.080 144.670,23.400 146.079 C 26.140 149.003,28.332 151.533,29.188 152.758 C 29.512 153.221,30.107 153.600,30.512 153.600 C 30.916 153.600,31.136 153.780,31.000 154.000 C 30.864 154.220,30.943 154.400,31.176 154.400 C 31.737 154.400,33.200 155.880,33.200 156.447 C 33.200 156.706,33.614 156.814,34.188 156.704 C 34.731 156.601,35.088 156.657,34.981 156.830 C 34.874 157.004,35.190 157.428,35.682 157.773 C 36.556 158.385,36.537 158.400,34.889 158.400 C 33.960 158.400,33.200 158.220,33.200 158.000 C 33.200 157.778,32.133 157.600,30.800 157.600 C 29.467 157.600,28.400 157.422,28.400 157.200 C 28.400 156.980,27.680 156.800,26.800 156.800 C 25.920 156.800,25.200 156.620,25.200 156.400 C 25.200 156.180,24.469 156.000,23.576 156.000 C 22.596 156.000,22.051 155.842,22.200 155.600 C 22.351 155.356,21.737 155.200,20.624 155.200 C 19.621 155.200,18.800 155.020,18.800 154.800 C 18.800 154.577,17.725 154.400,16.376 154.400 C 14.863 154.400,14.046 154.250,14.200 154.000 C 14.350 153.758,13.796 153.600,12.800 153.600 C 11.804 153.600,11.250 153.758,11.400 154.000 C 11.552 154.247,10.871 154.400,9.624 154.400 C 8.511 154.400,7.600 154.580,7.600 154.800 C 7.600 155.020,7.240 155.200,6.800 155.200 C 6.360 155.200,6.045 155.425,6.100 155.700 C 6.155 155.975,5.975 156.155,5.700 156.100 C 5.425 156.045,5.200 156.180,5.200 156.400 C 5.200 156.620,4.922 156.800,4.582 156.800 C 3.750 156.800,2.000 158.595,2.000 159.448 C 2.000 159.825,1.889 160.022,1.752 159.886 C 1.616 159.750,1.239 159.904,0.914 160.229 C -0.190 161.333,-0.267 175.260,0.834 174.579 C 1.138 174.391,1.417 176.228,1.247 177.300 C 1.221 177.465,1.380 177.600,1.600 177.600 C 1.820 177.600,2.000 177.960,2.000 178.400 C 2.000 178.840,2.180 179.200,2.400 179.200 C 2.620 179.200,2.800 179.555,2.800 179.988 C 2.800 180.421,3.160 181.417,3.600 182.200 C 4.040 182.983,4.400 184.099,4.400 184.679 C 4.400 185.259,4.517 185.616,4.661 185.473 C 4.960 185.173,6.000 187.016,6.000 187.846 C 6.000 188.151,6.180 188.400,6.400 188.400 C 6.620 188.400,6.800 188.760,6.800 189.200 C 6.800 189.640,6.980 190.000,7.200 190.000 C 7.420 190.000,7.600 190.294,7.600 190.653 C 7.600 191.012,7.936 191.597,8.346 191.953 C 8.757 192.309,9.224 193.198,9.384 193.927 C 9.544 194.657,9.912 195.345,10.201 195.456 C 10.490 195.567,10.945 196.185,11.212 196.829 C 11.479 197.473,11.885 198.000,12.115 198.000 C 12.345 198.000,12.422 198.111,12.286 198.248 C 12.150 198.384,12.301 198.758,12.623 199.080 C 12.944 199.401,13.088 199.858,12.942 200.094 C 12.785 200.349,12.864 200.407,13.138 200.238 C 13.399 200.077,13.600 200.185,13.600 200.488 C 13.600 200.783,13.960 201.283,14.400 201.600 C 14.840 201.917,15.200 202.391,15.200 202.654 C 15.200 203.278,17.856 206.011,18.164 205.703 C 18.294 205.573,18.400 205.785,18.400 206.173 C 18.400 206.562,20.110 208.568,22.200 210.631 C 24.290 212.694,26.000 214.566,26.000 214.791 C 26.000 215.016,26.270 215.200,26.600 215.200 C 26.930 215.200,27.200 215.380,27.200 215.600 C 27.200 215.820,27.571 216.000,28.024 216.000 C 28.477 216.000,28.736 216.180,28.600 216.400 C 28.464 216.620,28.644 216.800,29.000 216.800 C 29.356 216.800,29.536 216.980,29.400 217.200 C 29.264 217.420,29.427 217.600,29.762 217.600 C 30.098 217.600,30.553 217.939,30.775 218.354 C 30.997 218.769,31.634 219.222,32.189 219.362 C 32.745 219.501,33.200 219.805,33.200 220.036 C 33.200 220.667,34.257 221.600,34.971 221.600 C 35.317 221.600,35.600 221.791,35.600 222.024 C 35.600 222.257,35.780 222.336,36.000 222.200 C 36.220 222.064,36.400 222.122,36.400 222.328 C 36.400 222.534,36.940 222.927,37.600 223.200 C 38.260 223.473,38.800 223.865,38.800 224.069 C 38.800 224.274,39.340 224.630,40.000 224.860 C 40.660 225.090,41.200 225.441,41.200 225.639 C 41.200 225.838,41.470 226.000,41.800 226.000 C 42.130 226.000,42.400 226.180,42.400 226.400 C 42.400 226.620,42.749 226.800,43.176 226.800 C 43.603 226.800,44.064 226.980,44.200 227.200 C 44.336 227.420,44.797 227.600,45.224 227.600 C 45.651 227.600,46.000 227.780,46.000 228.000 C 46.000 228.220,46.270 228.400,46.600 228.400 C 46.930 228.400,47.200 228.580,47.200 228.800 C 47.200 229.020,47.650 229.200,48.200 229.200 C 48.750 229.200,49.200 229.380,49.200 229.600 C 49.200 229.820,49.470 230.000,49.800 230.000 C 50.130 230.000,50.400 230.180,50.400 230.400 C 50.400 230.620,50.760 230.800,51.200 230.800 C 51.640 230.800,52.000 230.980,52.000 231.200 C 52.000 231.420,52.445 231.600,52.988 231.600 C 53.531 231.600,54.617 231.960,55.400 232.400 C 56.183 232.840,57.179 233.200,57.612 233.200 C 58.045 233.200,58.400 233.380,58.400 233.600 C 58.400 233.820,58.850 234.000,59.400 234.000 C 59.950 234.000,60.400 234.151,60.400 234.335 C 60.400 234.519,61.165 234.654,62.100 234.635 C 63.261 234.611,63.768 234.759,63.700 235.100 C 63.645 235.375,63.780 235.600,64.000 235.600 C 64.220 235.600,64.400 235.780,64.400 236.000 C 64.400 236.220,63.500 236.400,62.400 236.400 C 61.300 236.400,60.400 236.580,60.400 236.800 C 60.400 237.020,59.511 237.200,58.424 237.200 C 57.337 237.200,56.336 237.380,56.200 237.600 C 56.055 237.835,53.729 238.000,50.576 238.000 C 47.259 238.000,45.200 238.153,45.200 238.400 C 45.200 238.620,44.570 238.800,43.800 238.800 C 43.030 238.800,42.400 238.980,42.400 239.200 C 42.400 239.420,42.214 239.600,41.988 239.600 C 41.761 239.600,40.921 240.312,40.120 241.182 C 39.320 242.052,38.516 242.672,38.333 242.559 C 38.150 242.445,38.000 243.004,38.000 243.800 C 38.000 244.663,37.839 245.147,37.600 245.000 C 37.344 244.842,37.200 246.129,37.200 248.576 C 37.200 250.859,37.361 252.400,37.600 252.400 C 37.820 252.400,38.000 252.946,38.000 253.613 C 38.000 254.319,38.249 254.921,38.598 255.054 C 38.926 255.181,39.096 255.445,38.974 255.642 C 38.852 255.839,38.943 256.000,39.176 256.000 C 39.409 256.000,39.600 256.230,39.600 256.512 C 39.600 256.793,39.960 257.283,40.400 257.600 C 40.840 257.917,41.200 258.497,41.200 258.888 C 41.200 259.280,41.368 259.600,41.573 259.600 C 41.929 259.600,42.624 261.134,42.498 261.643 C 42.465 261.776,42.880 262.122,43.419 262.410 C 43.959 262.699,44.400 263.265,44.400 263.668 C 44.400 264.070,44.591 264.400,44.824 264.400 C 45.057 264.400,45.136 264.580,45.000 264.800 C 44.864 265.020,45.033 265.200,45.376 265.200 C 45.719 265.200,46.000 265.352,46.000 265.539 C 46.000 266.045,47.433 267.600,47.900 267.600 C 48.124 267.600,48.412 267.915,48.542 268.300 C 48.942 269.491,49.719 270.460,51.964 272.568 C 53.154 273.686,55.024 275.455,56.118 276.500 C 57.213 277.545,58.365 278.400,58.678 278.400 C 58.991 278.400,59.152 278.554,59.036 278.742 C 58.920 278.929,59.280 279.290,59.835 279.543 C 60.391 279.796,60.734 280.183,60.599 280.402 C 60.464 280.621,60.644 280.800,61.000 280.800 C 61.356 280.800,61.536 280.980,61.400 281.200 C 61.264 281.420,61.478 281.606,61.876 281.613 C 62.760 281.628,64.087 282.580,63.727 282.940 C 63.584 283.083,63.784 283.200,64.173 283.200 C 64.561 283.200,65.383 283.740,66.000 284.400 C 66.617 285.060,67.409 285.600,67.760 285.600 C 68.112 285.600,68.400 285.780,68.400 286.000 C 68.400 286.220,68.720 286.400,69.112 286.400 C 69.503 286.400,70.083 286.760,70.400 287.200 C 70.717 287.640,71.216 288.000,71.508 288.000 C 71.801 288.000,72.616 288.307,73.320 288.681 C 74.024 289.056,74.828 289.317,75.106 289.262 C 75.385 289.207,75.565 289.391,75.506 289.672 C 75.448 289.952,75.805 290.243,76.300 290.318 C 76.795 290.394,77.200 290.615,77.200 290.810 C 77.200 291.004,77.832 291.282,78.604 291.427 C 79.377 291.572,80.107 291.850,80.228 292.045 C 80.349 292.240,80.987 292.400,81.647 292.400 C 82.345 292.400,82.744 292.567,82.600 292.800 C 82.456 293.033,82.863 293.200,83.576 293.200 C 84.249 293.200,84.800 293.380,84.800 293.600 C 84.800 293.820,85.340 294.000,86.000 294.000 C 86.660 294.000,87.200 294.180,87.200 294.400 C 87.200 294.620,87.549 294.800,87.976 294.800 C 88.403 294.800,88.864 294.980,89.000 295.200 C 89.136 295.420,89.867 295.600,90.624 295.600 C 91.381 295.600,92.000 295.780,92.000 296.000 C 92.000 296.220,92.720 296.400,93.600 296.400 C 94.494 296.400,95.200 296.594,95.200 296.839 C 95.200 297.116,95.923 297.226,97.167 297.139 C 98.332 297.057,99.107 297.163,99.067 297.400 C 99.030 297.620,99.990 297.855,101.200 297.923 C 102.410 297.991,103.571 298.216,103.780 298.423 C 103.989 298.630,105.654 298.800,107.480 298.800 C 109.427 298.800,110.800 298.965,110.800 299.200 C 110.800 299.420,110.519 299.600,110.176 299.600 C 109.833 299.600,109.664 299.780,109.800 300.000 C 109.936 300.220,109.698 300.400,109.270 300.400 C 108.830 300.400,108.403 300.746,108.284 301.200 C 108.169 301.640,107.788 302.000,107.437 302.000 C 107.087 302.000,106.800 302.180,106.800 302.400 C 106.800 302.620,106.558 302.800,106.262 302.800 C 105.966 302.800,105.398 303.160,105.000 303.600 C 104.602 304.040,104.035 304.400,103.741 304.400 C 103.447 304.400,102.691 304.940,102.060 305.600 C 101.429 306.260,100.708 306.800,100.457 306.800 C 100.206 306.800,100.000 306.980,100.000 307.200 C 100.000 307.420,99.590 307.600,99.088 307.600 C 98.587 307.600,97.917 307.960,97.601 308.399 C 97.218 308.930,96.766 309.116,96.252 308.953 C 95.664 308.767,95.537 308.858,95.719 309.333 C 95.872 309.731,95.779 309.890,95.466 309.770 C 95.194 309.666,94.581 309.945,94.103 310.390 C 93.625 310.836,92.950 311.200,92.604 311.200 C 92.258 311.200,91.875 311.460,91.753 311.777 C 91.492 312.459,88.587 314.054,88.240 313.706 C 88.108 313.574,88.000 313.677,88.000 313.933 C 88.000 314.190,87.640 314.400,87.200 314.400 C 86.760 314.400,86.400 314.580,86.400 314.800 C 86.400 315.020,86.029 315.200,85.576 315.200 C 85.123 315.200,84.864 315.380,85.000 315.600 C 85.140 315.827,84.804 316.000,84.224 316.000 C 83.661 316.000,83.200 316.180,83.200 316.400 C 83.200 316.620,82.840 316.800,82.400 316.800 C 81.960 316.800,81.600 316.980,81.600 317.200 C 81.600 317.420,81.240 317.600,80.800 317.600 C 80.360 317.600,80.000 317.780,80.000 318.000 C 80.000 318.220,79.629 318.400,79.176 318.400 C 78.723 318.400,78.464 318.580,78.600 318.800 C 78.736 319.020,78.572 319.200,78.236 319.200 C 77.899 319.200,76.983 319.560,76.200 320.000 C 75.417 320.440,74.421 320.800,73.988 320.800 C 73.555 320.800,73.200 320.980,73.200 321.200 C 73.200 321.420,72.840 321.600,72.400 321.600 C 71.960 321.600,71.600 321.780,71.600 322.000 C 71.600 322.220,71.161 322.400,70.624 322.400 C 70.087 322.400,69.536 322.580,69.400 322.800 C 69.264 323.020,68.793 323.200,68.353 323.200 C 67.913 323.200,67.664 323.380,67.800 323.600 C 67.947 323.839,67.463 324.000,66.600 324.000 C 65.737 324.000,65.253 324.161,65.400 324.400 C 65.536 324.620,65.277 324.800,64.824 324.800 C 64.371 324.800,64.000 324.949,64.000 325.131 C 64.000 325.313,63.462 325.382,62.805 325.286 C 61.959 325.162,61.537 325.299,61.362 325.755 C 61.212 326.147,60.651 326.400,59.934 326.400 C 59.284 326.400,58.844 326.547,58.955 326.728 C 59.067 326.908,58.627 326.977,57.979 326.882 C 57.276 326.779,56.800 326.889,56.800 327.155 C 56.800 327.406,56.118 327.600,55.233 327.600 C 54.372 327.600,53.607 327.778,53.533 327.997 C 53.460 328.215,52.905 328.434,52.300 328.484 C 51.695 328.534,51.200 328.715,51.200 328.887 C 51.200 329.059,50.649 329.200,49.976 329.200 C 49.263 329.200,48.856 329.367,49.000 329.600 C 49.152 329.847,48.471 330.000,47.224 330.000 C 46.111 330.000,45.200 330.180,45.200 330.400 C 45.200 330.620,44.480 330.800,43.600 330.800 C 42.720 330.800,42.000 330.962,42.000 331.160 C 42.000 331.499,40.902 331.707,36.200 332.255 C 35.100 332.383,34.106 332.637,33.991 332.820 C 33.876 333.003,32.391 333.190,30.691 333.235 C 28.991 333.280,27.600 333.471,27.600 333.658 C 27.600 333.846,26.430 334.000,25.000 334.000 C 23.533 334.000,22.400 334.174,22.400 334.400 C 22.400 334.651,19.933 334.800,15.800 334.800 C 11.667 334.800,9.200 334.949,9.200 335.200 C 9.200 335.436,7.790 335.600,5.771 335.600 C 2.378 335.600,1.200 336.011,1.200 337.195 C 1.200 337.444,1.025 337.539,0.812 337.407 C -0.310 336.714,-0.218 344.639,0.909 345.766 C 1.258 346.115,1.700 346.400,1.892 346.400 C 2.517 346.400,4.394 347.392,4.397 347.724 C 4.399 347.902,4.565 347.945,4.768 347.820 C 4.970 347.695,5.407 347.864,5.739 348.196 C 6.071 348.528,6.626 348.800,6.971 348.800 C 7.317 348.800,7.600 349.001,7.600 349.247 C 7.600 349.496,7.953 349.601,8.400 349.484 C 8.920 349.348,9.200 349.472,9.200 349.837 C 9.200 350.147,9.470 350.400,9.800 350.400 C 10.130 350.400,10.400 350.580,10.400 350.800 C 10.400 351.020,10.760 351.200,11.200 351.200 C 11.640 351.200,12.000 351.380,12.000 351.600 C 12.000 351.820,12.360 352.000,12.800 352.000 C 13.240 352.000,13.600 352.180,13.600 352.400 C 13.600 352.620,13.960 352.800,14.400 352.800 C 14.840 352.800,15.200 352.980,15.200 353.200 C 15.200 353.420,15.740 353.600,16.400 353.600 C 17.060 353.600,17.600 353.791,17.600 354.024 C 17.600 354.257,17.765 354.345,17.968 354.220 C 18.170 354.095,18.575 354.219,18.868 354.496 C 19.160 354.773,19.850 355.062,20.400 355.138 C 20.950 355.214,21.460 355.439,21.533 355.638 C 21.607 355.837,22.012 356.000,22.433 356.000 C 22.855 356.000,23.200 356.191,23.200 356.424 C 23.200 356.657,23.353 356.752,23.541 356.636 C 23.729 356.520,24.224 356.684,24.641 357.000 C 25.058 357.316,25.760 357.586,26.200 357.600 C 26.640 357.614,27.349 357.890,27.776 358.213 C 28.204 358.536,29.048 358.800,29.653 358.800 C 30.258 358.800,30.864 358.980,31.000 359.200 C 31.136 359.420,31.687 359.600,32.224 359.600 C 32.761 359.600,33.200 359.780,33.200 360.000 C 33.200 360.220,33.560 360.400,34.000 360.400 C 34.440 360.400,34.800 360.580,34.800 360.800 C 34.800 361.020,35.340 361.200,36.000 361.200 C 36.660 361.200,37.200 361.380,37.200 361.600 C 37.200 361.820,37.729 362.000,38.376 362.000 C 39.023 362.000,39.664 362.180,39.800 362.400 C 39.936 362.620,40.487 362.800,41.024 362.800 C 41.561 362.800,42.000 362.980,42.000 363.200 C 42.000 363.420,42.540 363.600,43.200 363.600 C 43.860 363.600,44.400 363.780,44.400 364.000 C 44.400 364.220,45.019 364.400,45.776 364.400 C 46.533 364.400,47.264 364.580,47.400 364.800 C 47.536 365.020,48.076 365.200,48.600 365.200 C 49.124 365.200,49.664 365.380,49.800 365.600 C 49.936 365.820,50.667 366.000,51.424 366.000 C 52.181 366.000,52.800 366.183,52.800 366.408 C 52.800 366.641,53.221 366.709,53.788 366.567 C 54.433 366.405,54.999 366.542,55.417 366.960 C 55.769 367.312,56.584 367.600,57.229 367.600 C 57.873 367.600,58.400 367.780,58.400 368.000 C 58.400 368.220,59.199 368.400,60.176 368.400 C 61.153 368.400,62.064 368.580,62.200 368.800 C 62.336 369.020,63.067 369.200,63.824 369.200 C 64.581 369.200,65.200 369.380,65.200 369.600 C 65.200 369.820,66.089 370.000,67.176 370.000 C 68.263 370.000,69.264 370.180,69.400 370.400 C 69.536 370.620,70.267 370.800,71.024 370.800 C 71.781 370.800,72.400 370.980,72.400 371.200 C 72.400 371.429,73.608 371.600,75.224 371.600 C 76.777 371.600,77.955 371.750,77.842 371.932 C 77.729 372.115,78.653 372.306,79.895 372.356 C 81.137 372.406,82.344 372.570,82.576 372.719 C 83.153 373.090,87.758 373.612,92.594 373.856 C 94.938 373.974,96.704 374.245,96.870 374.512 C 97.283 375.181,141.285 375.144,141.508 374.475 C 141.617 374.149,142.965 374.000,145.810 374.000 C 148.140 374.000,150.061 373.825,150.200 373.600 C 150.336 373.380,151.438 373.200,152.650 373.200 C 153.861 373.200,155.169 373.030,155.557 372.823 C 155.944 372.616,157.552 372.409,159.130 372.363 C 160.709 372.316,162.000 372.144,162.000 371.980 C 162.000 371.699,162.783 371.554,167.500 370.961 C 168.545 370.830,169.571 370.560,169.780 370.361 C 169.989 370.163,170.923 370.000,171.856 370.000 C 172.789 370.000,173.664 369.820,173.800 369.600 C 173.936 369.380,174.847 369.200,175.824 369.200 C 176.801 369.200,177.600 369.020,177.600 368.800 C 177.600 368.580,178.320 368.400,179.200 368.400 C 180.080 368.400,180.800 368.220,180.800 368.000 C 180.800 367.780,181.520 367.600,182.400 367.600 C 183.604 367.600,184.000 367.441,184.000 366.956 C 184.000 366.457,184.312 366.349,185.394 366.475 C 186.160 366.565,186.835 366.510,186.894 366.355 C 186.952 366.199,187.720 366.017,188.600 365.950 C 189.480 365.884,190.306 365.679,190.436 365.495 C 190.566 365.310,191.061 365.131,191.536 365.095 C 192.011 365.059,192.400 364.888,192.400 364.715 C 192.400 364.542,192.940 364.400,193.600 364.400 C 194.260 364.400,194.800 364.220,194.800 364.000 C 194.800 363.780,195.340 363.600,196.000 363.600 C 196.660 363.600,197.200 363.420,197.200 363.200 C 197.200 362.980,197.920 362.800,198.800 362.800 C 199.680 362.800,200.400 362.620,200.400 362.400 C 200.400 362.180,200.940 362.000,201.600 362.000 C 202.260 362.000,202.801 361.865,202.803 361.700 C 202.808 361.253,204.826 360.400,205.880 360.400 C 206.386 360.400,206.800 360.220,206.800 360.000 C 206.800 359.780,207.072 359.600,207.405 359.600 C 207.738 359.600,208.323 359.433,208.705 359.229 C 209.664 358.716,213.414 357.600,214.175 357.600 C 214.519 357.600,214.800 357.420,214.800 357.200 C 214.800 356.980,215.250 356.800,215.800 356.800 C 216.350 356.800,216.800 356.620,216.800 356.400 C 216.800 356.180,217.160 356.000,217.600 356.000 C 218.040 356.000,218.400 355.853,218.400 355.672 C 218.400 355.492,219.292 355.102,220.382 354.805 C 221.472 354.508,222.279 354.128,222.176 353.961 C 222.073 353.794,222.396 353.595,222.894 353.519 C 223.392 353.443,223.757 353.167,223.705 352.905 C 223.651 352.636,223.864 352.527,224.195 352.653 C 224.516 352.777,225.069 352.589,225.422 352.235 C 225.775 351.882,226.230 351.695,226.432 351.820 C 226.635 351.945,226.801 351.902,226.803 351.724 C 226.807 351.346,228.720 350.400,229.480 350.400 C 229.766 350.400,230.000 350.220,230.000 350.000 C 230.000 349.780,230.360 349.600,230.800 349.600 C 231.240 349.600,231.600 349.420,231.600 349.200 C 231.600 348.980,231.883 348.800,232.229 348.800 C 232.574 348.800,233.129 348.528,233.461 348.196 C 233.793 347.864,234.230 347.695,234.432 347.820 C 234.635 347.945,234.801 347.902,234.803 347.724 C 234.807 347.346,236.720 346.400,237.480 346.400 C 237.766 346.400,238.000 346.220,238.000 346.000 C 238.000 345.780,238.360 345.600,238.800 345.600 C 239.240 345.600,239.600 345.420,239.600 345.200 C 239.600 344.980,239.860 344.800,240.177 344.800 C 240.495 344.800,240.992 344.485,241.282 344.100 C 241.926 343.246,243.375 342.400,244.195 342.400 C 244.528 342.400,244.800 342.220,244.800 342.000 C 244.800 341.780,245.160 341.600,245.600 341.600 C 246.083 341.600,246.413 341.323,246.432 340.900 C 246.450 340.488,246.546 340.404,246.664 340.696 C 246.816 341.072,247.010 341.047,247.464 340.593 C 247.794 340.263,248.234 340.098,248.442 340.226 C 248.650 340.354,248.770 340.221,248.710 339.930 C 248.648 339.630,248.947 339.400,249.400 339.400 C 249.840 339.400,250.491 339.085,250.847 338.700 C 251.203 338.315,251.676 338.000,251.898 338.000 C 252.120 338.000,252.529 337.727,252.806 337.393 C 253.083 337.059,253.910 336.501,254.642 336.153 C 255.374 335.806,255.935 335.314,255.887 335.061 C 255.839 334.807,256.151 334.631,256.580 334.669 C 257.009 334.707,257.774 334.257,258.280 333.669 C 258.785 333.081,259.199 332.763,259.200 332.961 C 259.200 333.160,259.536 332.935,259.947 332.461 C 260.358 331.988,260.911 331.600,261.175 331.600 C 261.784 331.600,262.800 330.602,262.800 330.005 C 262.800 329.756,262.980 329.664,263.200 329.800 C 263.420 329.936,263.600 329.857,263.600 329.624 C 263.600 329.391,263.888 329.200,264.240 329.200 C 264.591 329.200,265.383 328.660,266.000 328.000 C 266.617 327.340,267.327 326.800,267.579 326.800 C 267.830 326.800,268.486 326.350,269.036 325.800 C 269.586 325.250,270.253 324.798,270.518 324.796 C 270.783 324.794,271.630 324.076,272.400 323.200 C 273.170 322.324,274.115 321.606,274.500 321.604 C 274.885 321.602,275.200 321.300,275.200 320.933 C 275.200 320.567,275.307 320.374,275.439 320.505 C 275.743 320.809,279.200 317.374,279.200 316.768 C 279.200 316.518,279.455 316.412,279.767 316.532 C 280.382 316.768,286.528 311.062,286.109 310.643 C 285.976 310.509,286.090 310.400,286.362 310.400 C 287.005 310.400,288.036 309.369,287.714 309.048 C 287.578 308.911,287.685 308.800,287.951 308.800 C 288.217 308.800,288.920 308.350,289.513 307.800 C 290.107 307.250,290.742 306.800,290.924 306.800 C 291.429 306.800,292.400 305.722,292.400 305.162 C 292.400 304.890,292.511 304.778,292.648 304.914 C 292.901 305.168,294.000 304.263,294.000 303.800 C 294.000 303.337,295.099 302.432,295.352 302.686 C 295.489 302.822,295.600 302.612,295.600 302.220 C 295.600 301.827,297.387 299.744,299.571 297.590 C 301.755 295.437,303.435 293.568,303.304 293.437 C 303.173 293.307,303.367 293.200,303.733 293.200 C 304.129 293.200,304.400 292.881,304.400 292.414 C 304.400 291.982,304.765 291.433,305.211 291.194 C 305.659 290.954,305.898 290.559,305.746 290.312 C 305.563 290.016,305.705 289.955,306.168 290.132 C 306.605 290.300,306.810 290.231,306.716 289.948 C 306.633 289.700,307.023 288.989,307.583 288.368 C 310.432 285.210,311.113 284.400,310.920 284.400 C 310.548 284.400,312.108 282.220,312.868 281.677 C 313.271 281.390,313.600 280.967,313.600 280.738 C 313.600 280.509,314.140 279.817,314.800 279.200 C 315.460 278.583,316.000 277.863,316.000 277.600 C 316.000 277.337,316.559 276.599,317.243 275.960 C 317.964 275.286,318.392 274.556,318.263 274.220 C 318.131 273.875,318.341 273.546,318.783 273.405 C 319.192 273.276,319.631 272.895,319.760 272.559 C 319.889 272.224,320.160 272.052,320.362 272.177 C 320.564 272.302,320.680 271.953,320.620 271.402 C 320.550 270.762,320.710 270.400,321.064 270.400 C 321.368 270.400,321.822 269.950,322.073 269.400 C 322.323 268.850,322.699 268.400,322.907 268.400 C 323.115 268.400,323.178 268.121,323.047 267.779 C 322.907 267.415,322.977 267.262,323.215 267.409 C 323.438 267.547,323.814 267.107,324.049 266.430 C 324.285 265.754,324.641 265.200,324.839 265.200 C 325.038 265.200,325.200 264.880,325.200 264.488 C 325.200 264.097,325.560 263.517,326.000 263.200 C 326.440 262.883,326.800 262.303,326.800 261.912 C 326.800 261.520,326.980 261.200,327.200 261.200 C 327.420 261.200,327.600 260.850,327.600 260.423 C 327.600 259.995,327.922 259.410,328.315 259.123 C 328.707 258.835,329.294 258.060,329.617 257.400 C 330.605 255.385,332.552 252.208,332.885 252.067 C 333.058 251.993,333.200 251.587,333.200 251.163 C 333.200 250.739,333.544 250.097,333.965 249.737 C 334.386 249.377,334.637 248.840,334.523 248.545 C 334.410 248.249,334.606 247.896,334.958 247.761 C 335.311 247.625,335.600 247.264,335.600 246.957 C 335.600 246.651,335.780 246.400,336.000 246.400 C 336.220 246.400,336.400 246.051,336.400 245.624 C 336.400 245.197,336.572 244.741,336.783 244.611 C 336.993 244.481,337.064 244.110,336.940 243.787 C 336.794 243.407,336.964 243.200,337.424 243.200 C 337.814 243.200,338.024 243.090,337.889 242.956 C 337.755 242.822,337.995 242.060,338.423 241.262 C 338.850 240.464,339.200 239.579,339.200 239.293 C 339.200 239.008,339.485 238.666,339.832 238.532 C 340.212 238.387,340.387 237.992,340.270 237.544 C 340.162 237.134,340.211 236.884,340.379 236.987 C 340.722 237.199,341.600 235.470,341.600 234.581 C 341.600 234.262,341.780 234.000,342.000 234.000 C 342.220 234.000,342.400 233.640,342.400 233.200 C 342.400 232.760,342.580 232.400,342.800 232.400 C 343.020 232.400,343.200 232.040,343.200 231.600 C 343.200 231.160,343.380 230.800,343.600 230.800 C 343.820 230.800,344.000 230.440,344.000 230.000 C 344.000 229.560,344.180 229.200,344.400 229.200 C 344.620 229.200,344.800 228.660,344.800 228.000 C 344.800 227.340,344.980 226.800,345.200 226.800 C 345.420 226.800,345.600 226.440,345.600 226.000 C 345.600 225.560,345.780 225.200,346.000 225.200 C 346.220 225.200,346.400 224.829,346.400 224.376 C 346.400 223.923,346.580 223.664,346.800 223.800 C 347.033 223.944,347.200 223.537,347.200 222.824 C 347.200 222.151,347.380 221.600,347.600 221.600 C 347.820 221.600,348.000 221.251,348.000 220.824 C 348.000 220.397,348.180 219.936,348.400 219.800 C 348.620 219.664,348.800 219.209,348.800 218.789 C 348.800 218.368,349.160 217.383,349.600 216.600 C 350.040 215.817,350.400 214.821,350.400 214.388 C 350.400 213.955,350.591 213.600,350.824 213.600 C 351.057 213.600,351.152 213.447,351.036 213.259 C 350.920 213.071,351.084 212.576,351.400 212.159 C 351.716 211.742,351.980 210.995,351.987 210.500 C 351.994 210.005,352.180 209.600,352.400 209.600 C 352.620 209.600,352.800 209.161,352.800 208.624 C 352.800 208.087,352.980 207.536,353.200 207.400 C 353.420 207.264,353.600 206.613,353.600 205.953 C 353.600 205.255,353.767 204.856,354.000 205.000 C 354.238 205.147,354.400 204.671,354.400 203.824 C 354.400 203.041,354.580 202.400,354.800 202.400 C 355.020 202.400,355.200 201.950,355.200 201.400 C 355.200 200.850,355.342 200.400,355.515 200.400 C 355.688 200.400,355.874 199.815,355.928 199.100 C 355.981 198.385,356.200 197.740,356.413 197.667 C 356.626 197.593,356.800 197.095,356.800 196.560 C 356.800 195.357,357.698 192.400,358.063 192.400 C 358.211 192.400,358.458 191.050,358.613 189.400 C 358.767 187.750,359.053 186.400,359.247 186.400 C 359.441 186.400,359.600 185.680,359.600 184.800 C 359.600 183.920,359.780 183.200,360.000 183.200 C 360.220 183.200,360.400 182.491,360.400 181.624 C 360.400 180.757,360.580 179.936,360.800 179.800 C 361.020 179.664,361.200 178.933,361.200 178.176 C 361.200 177.419,361.380 176.800,361.600 176.800 C 361.820 176.800,362.000 175.889,362.000 174.776 C 362.000 173.529,362.153 172.848,362.400 173.000 C 362.648 173.153,362.800 172.404,362.800 171.024 C 362.800 169.801,362.980 168.800,363.200 168.800 C 363.420 168.800,363.600 167.810,363.600 166.600 C 363.600 165.390,363.780 164.400,364.000 164.400 C 364.222 164.400,364.400 163.333,364.400 162.000 C 364.400 160.667,364.578 159.600,364.800 159.600 C 365.031 159.600,365.200 158.341,365.200 156.624 C 365.200 154.987,365.380 153.536,365.600 153.400 C 365.820 153.264,366.000 151.633,366.000 149.776 C 366.000 147.919,366.135 146.400,366.300 146.401 C 366.465 146.401,366.540 144.151,366.467 141.401 C 366.352 137.052,366.417 136.400,366.967 136.400 C 367.530 136.400,367.600 135.107,367.600 124.760 L 367.600 113.121 368.786 112.013 C 369.438 111.404,369.858 110.792,369.719 110.653 C 369.580 110.514,369.935 110.400,370.506 110.400 C 371.195 110.400,371.632 110.130,371.800 109.600 C 371.940 109.160,372.229 108.800,372.444 108.800 C 372.877 108.800,373.529 108.318,375.245 106.731 C 375.880 106.143,376.400 105.751,376.400 105.859 C 376.400 105.968,376.670 105.787,377.000 105.457 C 377.330 105.127,377.600 104.738,377.600 104.593 C 377.600 104.103,379.393 102.827,380.100 102.813 C 380.485 102.806,380.800 102.654,380.800 102.476 C 380.800 102.009,387.947 94.800,388.411 94.800 C 388.625 94.800,388.755 94.575,388.700 94.300 C 388.645 94.025,388.780 93.813,389.000 93.829 C 389.370 93.857,394.106 89.250,394.171 88.800 C 394.187 88.690,394.335 88.645,394.500 88.700 C 394.665 88.755,394.800 88.530,394.800 88.200 C 394.800 87.870,394.980 87.600,395.200 87.600 C 395.420 87.600,395.600 87.402,395.600 87.160 C 395.600 86.919,396.134 86.222,396.786 85.613 C 397.438 85.004,397.858 84.392,397.719 84.253 C 397.580 84.114,397.690 84.000,397.962 84.000 C 399.365 84.000,399.800 82.722,399.800 78.601 C 399.800 74.135,399.389 73.200,397.429 73.200 C 396.863 73.200,396.400 73.020,396.400 72.800 C 396.400 72.580,395.500 72.400,394.400 72.400 C 393.300 72.400,392.400 72.580,392.400 72.800 C 392.400 73.020,391.770 73.200,391.000 73.200 C 390.230 73.200,389.600 73.380,389.600 73.600 C 389.600 73.820,389.060 74.000,388.400 74.000 C 387.740 74.000,387.200 74.162,387.200 74.361 C 387.200 74.681,382.662 75.463,381.900 75.274 C 381.735 75.233,381.600 75.444,381.600 75.741 C 381.600 76.127,380.711 76.358,378.500 76.544 C 376.795 76.688,375.340 76.985,375.267 77.203 C 375.193 77.421,374.259 77.600,373.190 77.600 C 372.122 77.600,371.136 77.780,371.000 78.000 C 370.864 78.220,369.863 78.400,368.776 78.400 C 367.689 78.400,366.800 78.580,366.800 78.800 C 366.800 79.020,366.260 79.200,365.600 79.200 C 364.940 79.200,364.400 79.020,364.400 78.800 C 364.400 78.580,364.688 78.400,365.040 78.400 C 365.391 78.400,366.183 77.860,366.800 77.200 C 367.417 76.540,368.131 76.000,368.387 76.000 C 368.644 76.000,369.516 75.372,370.327 74.603 C 371.137 73.835,371.951 73.205,372.135 73.203 C 372.559 73.199,376.452 69.212,377.044 68.176 C 377.288 67.749,377.605 67.447,377.749 67.505 C 378.255 67.709,381.480 64.132,381.746 63.072 C 381.894 62.482,382.147 62.000,382.308 62.000 C 383.072 61.998,384.794 60.050,384.563 59.448 C 384.426 59.092,384.512 58.800,384.754 58.800 C 385.527 58.800,387.147 57.129,386.928 56.557 C 386.812 56.255,387.005 55.896,387.356 55.761 C 387.708 55.627,387.907 55.374,387.800 55.200 C 387.693 55.026,387.874 54.781,388.202 54.654 C 388.531 54.528,388.800 54.139,388.800 53.789 C 388.800 53.439,388.935 53.235,389.100 53.334 C 389.459 53.552,390.148 52.799,390.332 51.988 C 390.405 51.669,390.656 51.289,390.889 51.145 C 391.123 51.000,391.217 50.510,391.098 50.055 C 390.947 49.475,391.109 49.156,391.641 48.987 C 392.058 48.854,392.400 48.398,392.400 47.973 C 392.400 47.548,392.580 47.200,392.800 47.200 C 393.031 47.200,393.200 45.933,393.200 44.200 C 393.200 42.467,393.031 41.200,392.800 41.200 C 392.580 41.200,392.400 40.840,392.400 40.400 C 392.400 39.920,392.133 39.600,391.733 39.600 C 391.367 39.600,391.184 39.483,391.327 39.339 C 391.471 39.196,391.120 38.836,390.548 38.539 C 389.347 37.916,384.931 37.808,384.733 38.397 C 384.660 38.615,384.105 38.834,383.500 38.884 C 382.895 38.934,382.400 39.115,382.400 39.287 C 382.400 39.459,382.130 39.600,381.800 39.600 C 381.470 39.600,381.200 39.780,381.200 40.000 C 381.200 40.220,380.840 40.400,380.400 40.400 C 379.960 40.400,379.600 40.580,379.600 40.800 C 379.600 41.020,379.240 41.200,378.800 41.200 C 378.360 41.200,378.000 41.391,378.000 41.625 C 378.000 41.859,377.595 41.994,377.100 41.925 C 376.605 41.856,376.234 41.992,376.276 42.227 C 376.321 42.481,375.875 42.584,375.176 42.482 C 374.261 42.348,374.000 42.463,374.000 43.001 C 374.000 43.496,373.772 43.634,373.200 43.484 C 372.657 43.342,372.400 43.472,372.400 43.887 C 372.400 44.357,372.115 44.443,371.180 44.256 C 370.424 44.105,370.053 44.162,370.204 44.406 C 370.344 44.633,369.915 44.800,369.195 44.800 C 368.506 44.800,367.673 45.070,367.343 45.399 C 367.014 45.729,366.262 46.100,365.672 46.224 C 365.082 46.347,364.287 46.617,363.905 46.824 C 363.523 47.031,362.848 47.200,362.405 47.200 C 361.962 47.200,361.600 47.445,361.600 47.744 C 361.600 48.219,359.893 48.603,356.500 48.891 C 356.225 48.914,356.000 49.083,356.000 49.267 C 356.000 49.450,355.550 49.600,355.000 49.600 C 354.450 49.600,354.000 49.780,354.000 50.000 C 354.000 50.220,352.999 50.400,351.776 50.400 C 350.396 50.400,349.647 50.552,349.800 50.800 C 350.002 51.126,348.289 51.346,346.945 51.166 C 346.804 51.147,346.579 51.310,346.444 51.528 C 346.097 52.091,342.400 52.429,342.400 51.898 C 342.400 51.666,341.692 50.802,340.826 49.979 C 339.960 49.155,339.360 48.373,339.493 48.241 C 339.625 48.108,339.403 48.000,339.000 48.000 C 338.597 48.000,338.378 47.889,338.514 47.752 C 338.818 47.449,337.821 46.400,337.229 46.400 C 336.993 46.400,336.800 46.220,336.800 46.000 C 336.800 45.780,336.602 45.600,336.360 45.600 C 336.119 45.600,335.404 45.046,334.772 44.370 C 334.139 43.693,333.439 43.252,333.216 43.390 C 332.968 43.543,332.912 43.373,333.073 42.955 C 333.229 42.547,333.176 42.368,332.940 42.514 C 332.722 42.648,332.016 42.410,331.372 41.985 C 330.727 41.560,329.843 40.984,329.406 40.706 C 328.969 40.428,328.318 39.885,327.959 39.500 C 327.600 39.115,327.012 38.800,326.653 38.800 C 326.294 38.800,326.000 38.620,326.000 38.400 C 326.000 38.180,325.732 38.000,325.403 38.000 C 325.075 38.000,324.582 37.640,324.307 37.200 C 324.032 36.760,323.390 36.400,322.880 36.400 C 322.364 36.400,322.062 36.223,322.200 36.000 C 322.336 35.780,322.202 35.600,321.903 35.600 C 321.149 35.600,319.207 34.665,319.203 34.300 C 319.201 34.135,318.840 34.000,318.400 34.000 C 317.960 34.000,317.600 33.820,317.600 33.600 C 317.600 33.380,317.335 33.200,317.012 33.200 C 316.689 33.200,315.783 32.840,315.000 32.400 C 314.217 31.960,313.221 31.600,312.788 31.600 C 312.355 31.600,312.000 31.420,312.000 31.200 C 312.000 30.980,311.640 30.800,311.200 30.800 C 310.760 30.800,310.400 30.620,310.400 30.400 C 310.400 30.180,309.871 30.000,309.224 30.000 C 308.577 30.000,307.936 29.820,307.800 29.600 C 307.664 29.380,307.124 29.200,306.600 29.200 C 306.076 29.200,305.525 29.003,305.377 28.762 C 305.228 28.522,304.683 28.406,304.165 28.505 C 303.648 28.603,303.308 28.549,303.410 28.384 C 303.646 28.002,302.612 27.600,301.391 27.600 C 300.872 27.600,300.336 27.420,300.200 27.200 C 300.064 26.980,299.333 26.800,298.576 26.800 C 297.819 26.800,297.200 26.665,297.201 26.500 C 297.201 26.335,296.198 26.262,294.973 26.339 C 293.316 26.442,292.624 26.319,292.272 25.862 C 291.727 25.151,277.358 24.682,270.284 25.144 " stroke="none" fill="#bc9c14" fill-rule="evenodd"></path><path id="path1" d="M261.891 26.289 C 262.601 26.377,263.861 26.379,264.691 26.292 C 265.521 26.205,264.940 26.133,263.400 26.131 C 261.860 26.129,261.181 26.200,261.891 26.289 M293.507 26.290 C 294.226 26.379,295.306 26.377,295.907 26.286 C 296.508 26.195,295.920 26.122,294.600 26.124 C 293.280 26.126,292.788 26.201,293.507 26.290 M361.200 47.576 C 361.200 47.783,360.525 48.022,359.700 48.109 L 358.200 48.266 359.900 48.333 C 361.174 48.383,361.600 48.250,361.600 47.800 C 361.600 47.470,361.510 47.200,361.400 47.200 C 361.290 47.200,361.200 47.369,361.200 47.576 M378.500 76.287 C 379.105 76.378,380.095 76.378,380.700 76.287 C 381.305 76.195,380.810 76.120,379.600 76.120 C 378.390 76.120,377.895 76.195,378.500 76.287 M193.264 92.420 C 193.229 93.201,192.976 94.101,192.703 94.420 C 192.424 94.746,192.524 94.718,192.932 94.356 C 193.447 93.900,193.611 93.316,193.494 92.356 L 193.328 91.000 193.264 92.420 M70.600 92.078 C 71.040 92.327,71.532 92.727,71.694 92.966 C 71.896 93.265,71.990 93.249,71.994 92.914 C 71.997 92.647,71.652 92.242,71.226 92.014 C 70.174 91.451,69.597 91.509,70.600 92.078 M191.731 101.800 C 191.733 103.340,191.805 103.921,191.892 103.091 C 191.979 102.261,191.977 101.001,191.889 100.291 C 191.800 99.581,191.729 100.260,191.731 101.800 M99.200 108.855 C 99.200 109.045,99.650 109.200,100.200 109.200 C 100.750 109.200,101.200 109.131,101.200 109.047 C 101.200 108.962,100.750 108.807,100.200 108.702 C 99.650 108.597,99.200 108.666,99.200 108.855 M191.734 124.400 C 191.734 126.050,191.805 126.725,191.891 125.900 C 191.978 125.075,191.978 123.725,191.891 122.900 C 191.805 122.075,191.734 122.750,191.734 124.400 M147.700 126.276 C 148.085 126.376,148.715 126.376,149.100 126.276 C 149.485 126.175,149.170 126.093,148.400 126.093 C 147.630 126.093,147.315 126.175,147.700 126.276 M366.553 141.000 C 366.553 143.640,366.618 144.668,366.697 143.284 C 366.775 141.901,366.774 139.741,366.695 138.484 C 366.616 137.228,366.552 138.360,366.553 141.000 M61.200 234.556 C 61.200 234.642,61.817 234.785,62.572 234.873 C 63.327 234.961,63.856 234.890,63.748 234.716 C 63.555 234.403,61.200 234.255,61.200 234.556 M339.326 239.100 C 339.189 239.485,339.004 239.935,338.915 240.100 C 338.826 240.265,338.943 240.400,339.176 240.400 C 339.409 240.400,339.600 240.055,339.600 239.633 C 339.600 239.212,339.825 238.776,340.100 238.665 C 340.492 238.507,340.489 238.456,340.087 238.432 C 339.806 238.414,339.463 238.715,339.326 239.100 M48.032 268.204 C 48.014 268.646,48.405 269.256,48.900 269.560 C 49.761 270.089,49.772 270.081,49.152 269.357 C 48.796 268.940,48.405 268.330,48.284 268.000 C 48.126 267.572,48.054 267.630,48.032 268.204 M307.256 288.834 C 306.736 289.255,306.524 289.600,306.784 289.600 C 307.297 289.600,308.589 288.455,308.348 288.215 C 308.266 288.135,307.775 288.413,307.256 288.834 M184.500 366.676 C 184.885 366.776,185.515 366.776,185.900 366.676 C 186.285 366.575,185.970 366.493,185.200 366.493 C 184.430 366.493,184.115 366.575,184.500 366.676 " stroke="none" fill="#c09c14" fill-rule="evenodd"></path><path id="path2" d="M261.891 26.289 C 262.601 26.377,263.861 26.379,264.691 26.292 C 265.521 26.205,264.940 26.133,263.400 26.131 C 261.860 26.129,261.181 26.200,261.891 26.289 M293.507 26.290 C 294.226 26.379,295.306 26.377,295.907 26.286 C 296.508 26.195,295.920 26.122,294.600 26.124 C 293.280 26.126,292.788 26.201,293.507 26.290 M361.200 47.576 C 361.200 47.783,360.525 48.022,359.700 48.109 L 358.200 48.266 359.900 48.333 C 361.174 48.383,361.600 48.250,361.600 47.800 C 361.600 47.470,361.510 47.200,361.400 47.200 C 361.290 47.200,361.200 47.369,361.200 47.576 M378.500 76.287 C 379.105 76.378,380.095 76.378,380.700 76.287 C 381.305 76.195,380.810 76.120,379.600 76.120 C 378.390 76.120,377.895 76.195,378.500 76.287 M193.264 92.420 C 193.229 93.201,192.976 94.101,192.703 94.420 C 192.424 94.746,192.524 94.718,192.932 94.356 C 193.447 93.900,193.611 93.316,193.494 92.356 L 193.328 91.000 193.264 92.420 M70.600 92.078 C 71.040 92.327,71.532 92.727,71.694 92.966 C 71.896 93.265,71.990 93.249,71.994 92.914 C 71.997 92.647,71.652 92.242,71.226 92.014 C 70.174 91.451,69.597 91.509,70.600 92.078 M191.731 101.800 C 191.733 103.340,191.805 103.921,191.892 103.091 C 191.979 102.261,191.977 101.001,191.889 100.291 C 191.800 99.581,191.729 100.260,191.731 101.800 M99.200 108.855 C 99.200 109.045,99.650 109.200,100.200 109.200 C 100.750 109.200,101.200 109.131,101.200 109.047 C 101.200 108.962,100.750 108.807,100.200 108.702 C 99.650 108.597,99.200 108.666,99.200 108.855 M191.734 124.400 C 191.734 126.050,191.805 126.725,191.891 125.900 C 191.978 125.075,191.978 123.725,191.891 122.900 C 191.805 122.075,191.734 122.750,191.734 124.400 M147.700 126.276 C 148.085 126.376,148.715 126.376,149.100 126.276 C 149.485 126.175,149.170 126.093,148.400 126.093 C 147.630 126.093,147.315 126.175,147.700 126.276 M366.553 141.000 C 366.553 143.640,366.618 144.668,366.697 143.284 C 366.775 141.901,366.774 139.741,366.695 138.484 C 366.616 137.228,366.552 138.360,366.553 141.000 M61.200 234.556 C 61.200 234.642,61.817 234.785,62.572 234.873 C 63.327 234.961,63.856 234.890,63.748 234.716 C 63.555 234.403,61.200 234.255,61.200 234.556 M339.326 239.100 C 339.189 239.485,339.004 239.935,338.915 240.100 C 338.826 240.265,338.943 240.400,339.176 240.400 C 339.409 240.400,339.600 240.055,339.600 239.633 C 339.600 239.212,339.825 238.776,340.100 238.665 C 340.492 238.507,340.489 238.456,340.087 238.432 C 339.806 238.414,339.463 238.715,339.326 239.100 M48.032 268.204 C 48.014 268.646,48.405 269.256,48.900 269.560 C 49.761 270.089,49.772 270.081,49.152 269.357 C 48.796 268.940,48.405 268.330,48.284 268.000 C 48.126 267.572,48.054 267.630,48.032 268.204 M307.256 288.834 C 306.736 289.255,306.524 289.600,306.784 289.600 C 307.297 289.600,308.589 288.455,308.348 288.215 C 308.266 288.135,307.775 288.413,307.256 288.834 M184.500 366.676 C 184.885 366.776,185.515 366.776,185.900 366.676 C 186.285 366.575,185.970 366.493,185.200 366.493 C 184.430 366.493,184.115 366.575,184.500 366.676 " stroke="none" fill="#c09c14" fill-rule="evenodd"></path><path id="path3" d="M261.891 26.289 C 262.601 26.377,263.861 26.379,264.691 26.292 C 265.521 26.205,264.940 26.133,263.400 26.131 C 261.860 26.129,261.181 26.200,261.891 26.289 M293.507 26.290 C 294.226 26.379,295.306 26.377,295.907 26.286 C 296.508 26.195,295.920 26.122,294.600 26.124 C 293.280 26.126,292.788 26.201,293.507 26.290 M361.200 47.576 C 361.200 47.783,360.525 48.022,359.700 48.109 L 358.200 48.266 359.900 48.333 C 361.174 48.383,361.600 48.250,361.600 47.800 C 361.600 47.470,361.510 47.200,361.400 47.200 C 361.290 47.200,361.200 47.369,361.200 47.576 M378.500 76.287 C 379.105 76.378,380.095 76.378,380.700 76.287 C 381.305 76.195,380.810 76.120,379.600 76.120 C 378.390 76.120,377.895 76.195,378.500 76.287 M193.264 92.420 C 193.229 93.201,192.976 94.101,192.703 94.420 C 192.424 94.746,192.524 94.718,192.932 94.356 C 193.447 93.900,193.611 93.316,193.494 92.356 L 193.328 91.000 193.264 92.420 M70.600 92.078 C 71.040 92.327,71.532 92.727,71.694 92.966 C 71.896 93.265,71.990 93.249,71.994 92.914 C 71.997 92.647,71.652 92.242,71.226 92.014 C 70.174 91.451,69.597 91.509,70.600 92.078 M191.731 101.800 C 191.733 103.340,191.805 103.921,191.892 103.091 C 191.979 102.261,191.977 101.001,191.889 100.291 C 191.800 99.581,191.729 100.260,191.731 101.800 M99.200 108.855 C 99.200 109.045,99.650 109.200,100.200 109.200 C 100.750 109.200,101.200 109.131,101.200 109.047 C 101.200 108.962,100.750 108.807,100.200 108.702 C 99.650 108.597,99.200 108.666,99.200 108.855 M191.734 124.400 C 191.734 126.050,191.805 126.725,191.891 125.900 C 191.978 125.075,191.978 123.725,191.891 122.900 C 191.805 122.075,191.734 122.750,191.734 124.400 M147.700 126.276 C 148.085 126.376,148.715 126.376,149.100 126.276 C 149.485 126.175,149.170 126.093,148.400 126.093 C 147.630 126.093,147.315 126.175,147.700 126.276 M366.553 141.000 C 366.553 143.640,366.618 144.668,366.697 143.284 C 366.775 141.901,366.774 139.741,366.695 138.484 C 366.616 137.228,366.552 138.360,366.553 141.000 M61.200 234.556 C 61.200 234.642,61.817 234.785,62.572 234.873 C 63.327 234.961,63.856 234.890,63.748 234.716 C 63.555 234.403,61.200 234.255,61.200 234.556 M339.326 239.100 C 339.189 239.485,339.004 239.935,338.915 240.100 C 338.826 240.265,338.943 240.400,339.176 240.400 C 339.409 240.400,339.600 240.055,339.600 239.633 C 339.600 239.212,339.825 238.776,340.100 238.665 C 340.492 238.507,340.489 238.456,340.087 238.432 C 339.806 238.414,339.463 238.715,339.326 239.100 M48.032 268.204 C 48.014 268.646,48.405 269.256,48.900 269.560 C 49.761 270.089,49.772 270.081,49.152 269.357 C 48.796 268.940,48.405 268.330,48.284 268.000 C 48.126 267.572,48.054 267.630,48.032 268.204 M307.256 288.834 C 306.736 289.255,306.524 289.600,306.784 289.600 C 307.297 289.600,308.589 288.455,308.348 288.215 C 308.266 288.135,307.775 288.413,307.256 288.834 M184.500 366.676 C 184.885 366.776,185.515 366.776,185.900 366.676 C 186.285 366.575,185.970 366.493,185.200 366.493 C 184.430 366.493,184.115 366.575,184.500 366.676 " stroke="none" fill="#c09c14" fill-rule="evenodd"></path><path id="path4" d="M261.891 26.289 C 262.601 26.377,263.861 26.379,264.691 26.292 C 265.521 26.205,264.940 26.133,263.400 26.131 C 261.860 26.129,261.181 26.200,261.891 26.289 M293.507 26.290 C 294.226 26.379,295.306 26.377,295.907 26.286 C 296.508 26.195,295.920 26.122,294.600 26.124 C 293.280 26.126,292.788 26.201,293.507 26.290 M361.200 47.576 C 361.200 47.783,360.525 48.022,359.700 48.109 L 358.200 48.266 359.900 48.333 C 361.174 48.383,361.600 48.250,361.600 47.800 C 361.600 47.470,361.510 47.200,361.400 47.200 C 361.290 47.200,361.200 47.369,361.200 47.576 M378.500 76.287 C 379.105 76.378,380.095 76.378,380.700 76.287 C 381.305 76.195,380.810 76.120,379.600 76.120 C 378.390 76.120,377.895 76.195,378.500 76.287 M193.264 92.420 C 193.229 93.201,192.976 94.101,192.703 94.420 C 192.424 94.746,192.524 94.718,192.932 94.356 C 193.447 93.900,193.611 93.316,193.494 92.356 L 193.328 91.000 193.264 92.420 M70.600 92.078 C 71.040 92.327,71.532 92.727,71.694 92.966 C 71.896 93.265,71.990 93.249,71.994 92.914 C 71.997 92.647,71.652 92.242,71.226 92.014 C 70.174 91.451,69.597 91.509,70.600 92.078 M191.731 101.800 C 191.733 103.340,191.805 103.921,191.892 103.091 C 191.979 102.261,191.977 101.001,191.889 100.291 C 191.800 99.581,191.729 100.260,191.731 101.800 M99.200 108.855 C 99.200 109.045,99.650 109.200,100.200 109.200 C 100.750 109.200,101.200 109.131,101.200 109.047 C 101.200 108.962,100.750 108.807,100.200 108.702 C 99.650 108.597,99.200 108.666,99.200 108.855 M191.734 124.400 C 191.734 126.050,191.805 126.725,191.891 125.900 C 191.978 125.075,191.978 123.725,191.891 122.900 C 191.805 122.075,191.734 122.750,191.734 124.400 M147.700 126.276 C 148.085 126.376,148.715 126.376,149.100 126.276 C 149.485 126.175,149.170 126.093,148.400 126.093 C 147.630 126.093,147.315 126.175,147.700 126.276 M366.553 141.000 C 366.553 143.640,366.618 144.668,366.697 143.284 C 366.775 141.901,366.774 139.741,366.695 138.484 C 366.616 137.228,366.552 138.360,366.553 141.000 M61.200 234.556 C 61.200 234.642,61.817 234.785,62.572 234.873 C 63.327 234.961,63.856 234.890,63.748 234.716 C 63.555 234.403,61.200 234.255,61.200 234.556 M339.326 239.100 C 339.189 239.485,339.004 239.935,338.915 240.100 C 338.826 240.265,338.943 240.400,339.176 240.400 C 339.409 240.400,339.600 240.055,339.600 239.633 C 339.600 239.212,339.825 238.776,340.100 238.665 C 340.492 238.507,340.489 238.456,340.087 238.432 C 339.806 238.414,339.463 238.715,339.326 239.100 M48.032 268.204 C 48.014 268.646,48.405 269.256,48.900 269.560 C 49.761 270.089,49.772 270.081,49.152 269.357 C 48.796 268.940,48.405 268.330,48.284 268.000 C 48.126 267.572,48.054 267.630,48.032 268.204 M307.256 288.834 C 306.736 289.255,306.524 289.600,306.784 289.600 C 307.297 289.600,308.589 288.455,308.348 288.215 C 308.266 288.135,307.775 288.413,307.256 288.834 M184.500 366.676 C 184.885 366.776,185.515 366.776,185.900 366.676 C 186.285 366.575,185.970 366.493,185.200 366.493 C 184.430 366.493,184.115 366.575,184.500 366.676 " stroke="none" fill="#c09c14" fill-rule="evenodd"></path></g></svg>